<svg xmlns="http://www.w3.org/2000/svg" width="1228" height="855" viewBox="0 0 1228 855">
  <g id="t2-i2" transform="translate(-4570.806 6316.994)">
    <rect id="Rectangle_5169" data-name="Rectangle 5169" width="1228" height="855" transform="translate(4570.806 -6316.994)" fill="#fff"/>
    <g id="Group_55547" data-name="Group 55547" transform="translate(4596.983 -6296.695)">
      <text id="Descubrimientos:_con_la_investigación_realizada_surgen_nuevas_inquietudes_y_preguntas_alrededor_de_dudas_o_interrogantes_que_surgen_para_que_puedan_llevar_a_nuevas_investigaciones_y_descubrimientos._El_método_científico_es_un_proceso_en_espiral_que_no_tien" data-name="Descubrimientos:
con la investigación realizada surgen nuevas
inquietudes y preguntas alrededor de dudas o
interrogantes que surgen para que puedan llevar
a nuevas investigaciones y descubrimientos.
El método científico es un proceso en espiral
que no tien" transform="translate(22.121 475.01)" fill="#3c3c3b" font-size="15" font-family="Roboto-Bold, Roboto" font-weight="700"><tspan x="0" y="0">Descubrimientos:</tspan><tspan font-family="Roboto-Regular, Roboto" font-weight="400"><tspan x="0" y="18">con la investigación realizada surgen nuevas</tspan><tspan x="0" y="36">inquietudes y preguntas alrededor de dudas o</tspan><tspan x="0" y="54">interrogantes que surgen para que puedan llevar</tspan><tspan x="0" y="72">a nuevas investigaciones y descubrimientos.</tspan><tspan x="0" y="90">El método científico es un proceso en espiral</tspan><tspan x="0" y="108">que no tiene fin y se reinicia nuevamente cuando</tspan><tspan x="0" y="126">los estudiantes se plantean nuevas preguntas</tspan><tspan x="0" y="144">para ser resueltas.</tspan></tspan></text>
      <text id="Documentación:_los_equipos_de_estudiantes_investigadores_una_vez_concluye_su_proceso_de_investigación_realizan_una_generalización_y_comunicación_de_resultados_que_consiste_en_presentar_de_manera_formal_a_través_de_un_escrito_los_resultados_encontrados_a" data-name="Documentación:
los equipos de estudiantes investigadores una vez concluye su
proceso de investigación realizan una generalización y comunicación
de resultados, que consiste en presentar de manera formal, a través
de un escrito, los resultados encontrados a" transform="translate(156.348 723.4)" fill="#3c3c3b" font-size="15" font-family="Roboto-Bold, Roboto" font-weight="700"><tspan x="0" y="0">Documentación:</tspan><tspan font-family="Roboto-Regular, Roboto" font-weight="400"><tspan x="0" y="18">los equipos de estudiantes investigadores una vez concluye su</tspan><tspan x="0" y="36">proceso de investigación realizan una generalización y comunicación</tspan><tspan x="0" y="54">de resultados, que consiste en presentar de manera formal, a través</tspan><tspan x="0" y="72">de un escrito, los resultados encontrados a la comunidad científica.</tspan></tspan></text>
      <text id="Conclusiones:_los_estudiantes_piensan_de_manera_que_puedan_evidenciar_si_el_fenómeno_podría_ser_aplicado_en_otras_áreas_de_estudio_con_los_datos_obtenidos." data-name="Conclusiones:
los estudiantes piensan de manera que puedan
evidenciar si el fenómeno podría ser aplicado en
otras áreas de estudio, con los datos obtenidos." transform="translate(777.284 640.586)" fill="#3c3c3b" font-size="15" font-family="Roboto-Bold, Roboto" font-weight="700"><tspan x="0" y="0">Conclusiones:</tspan><tspan font-family="Roboto-Regular, Roboto" font-weight="400"><tspan x="0" y="18">los estudiantes piensan de manera que puedan</tspan><tspan x="0" y="36">evidenciar si el fenómeno podría ser aplicado en</tspan><tspan x="0" y="54">otras áreas de estudio, con los datos obtenidos.</tspan></tspan></text>
      <text id="Preguntas:_es_el_proceso_sistémico_que_realizan_los_estudiantes_para_establecer_los_objetivos_generales_y_específicos_que_ayudarán_a_dar_alcance_a_la_investigación." data-name="Preguntas:
es el proceso sistémico que realizan los estudiantes
para establecer los objetivos generales y específicos
que ayudarán a dar alcance a la investigación." transform="translate(706.453 14)" fill="#3c3c3b" font-size="15" font-family="Roboto-Bold, Roboto" font-weight="700"><tspan x="0" y="0">Preguntas:</tspan><tspan font-family="Roboto-Regular, Roboto" font-weight="400"><tspan x="0" y="18">es el proceso sistémico que realizan los estudiantes</tspan><tspan x="0" y="36">para establecer los objetivos generales y específicos</tspan><tspan x="0" y="54">que ayudarán a dar alcance a la investigación.</tspan></tspan></text>
      <text id="Seguir_aprendiendo" data-name="Seguir aprendiendo" transform="translate(211.829 296.365)" fill="#3c3c3b" font-size="15" font-family="Roboto-Bold, Roboto" font-weight="700"><tspan x="0" y="0">Seguir aprendiendo</tspan></text>
      <text id="Nuevas_preguntas" data-name="Nuevas preguntas" transform="translate(211.829 385.322)" fill="#3c3c3b" font-size="15" font-family="Roboto-Bold, Roboto" font-weight="700"><tspan x="0" y="0">Nuevas preguntas</tspan></text>
      <path id="Path_101470" data-name="Path 101470" d="M5020.7-6001.183c34.272-24.335,74.483-37.523,123.475-34.221l18.344-134.963c-76.287-13.341-149.665-1.514-219.944,37.37Z" transform="translate(-4606.03 6292.891)" fill="#cc3d60" fill-rule="evenodd"/>
      <path id="Path_101471" data-name="Path 101471" d="M5156.006-6034.688c35.7,4.645,67.252,16.66,93.645,37.828l109.522-136.425c-45.368-43.036-99.294-70.059-161.185-82.175Z" transform="translate(-4611.225 6293.86)" fill="#9ddfd3" fill-rule="evenodd"/>
      <path id="Path_101472" data-name="Path 101472" d="M5257.185-5992.119c29.677,24.352,52.327,53.62,61.908,92.079l141.343-51.357c-9.632-60.564-42.186-117.026-84.507-156.66Z" transform="translate(-4613.687 6291.246)" fill="#81c140" fill-rule="evenodd"/>
      <path id="Path_101473" data-name="Path 101473" d="M5320.988-5892.887l107.6-25.44c8.883,61.958-2.756,119.647-35.565,173.8l-88.013-43.224c15.06-28.5,23.723-61.312,15.979-105.131Z" transform="translate(-4614.851 6286.628)" fill="#cc3d60" fill-rule="evenodd"/>
      <path id="Path_101474" data-name="Path 101474" d="M5302.474-5782.214q53.373,30.606,106.729,61.21c-25.134,41.369-63.882,82.771-108.841,93.526q-28.1-48.753-56.224-97.524c21.781-12.354,41.657-30.171,58.335-57.211Z" transform="translate(-4613.37 6283.315)" fill="#9ddfd3" fill-rule="evenodd"/>
      <path id="Path_101475" data-name="Path 101475" d="M5238.769-5722.425l36.808,86.275c-58.555,24.743-115.409,19.6-170.97-7.878l25.883-78.45c37.012,17.784,73.071,17.086,108.279.052Z" transform="translate(-4609.974 6281.862)" fill="#81c140" fill-rule="evenodd"/>
      <path id="Path_101476" data-name="Path 101476" d="M5061.966-5809.354c7.1,38.425,28.793,66.061,63.49,84.082l-46.15,86.889c-55.747-33-92.946-78.347-98.273-144.968Z" transform="translate(-4606.966 6283.977)" fill="#cc3d60" fill-rule="evenodd"/>
      <path id="Path_101477" data-name="Path 101477" d="M4990.276-5807.56l71.693-7.1c-.952-33.489,8.152-63.848,36.026-88.352l-34.681-45.248c-51.391,33.847-73.871,81.648-73.038,140.7Z" transform="translate(-4607.191 6287.356)" fill="#9ddfd3" fill-rule="evenodd"/>
      <path id="Path_101478" data-name="Path 101478" d="M5102.168-5905.055l-23.637-43.666c24.369-14.975,51.852-21.2,82.839-17.561l2.247,42.78c-24.47-3.3-44.193,4.646-61.448,18.446Z" transform="translate(-4609.339 6287.82)" fill="#81c140" fill-rule="evenodd"/>
      <path id="Path_101479" data-name="Path 101479" d="M5167.025-5923.221q2.757-20.829,5.513-41.64c28.146,6.483,64.665,28.775,81.052,60.325,23.6,45.47,16.881,113.231-53.144,138.894-34.681,12.729-90.751-16.949-92.964-60.326-2.756-53.791,59.952-80.15,87.91-38.833-27.21-30.206-62.776-13.665-72.152,8.662-16.217,38.594,11.418,65.668,37.812,73.054,40.4,11.3,76.186-31.345,75.419-64.375-1.225-53.382-48.209-72.237-69.446-75.76Z" transform="translate(-4610.042 6287.761)" fill="#dbf6e9" fill-rule="evenodd"/>
      <g id="Group_55519" data-name="Group 55519" transform="translate(696.534 69.834)">
        <path id="Path_101480" data-name="Path 101480" d="M5313.007-6178.871a1.464,1.464,0,0,1-1.463-1.463v-27.728a1.464,1.464,0,0,1,1.463-1.464h385.343v-13.25a1.463,1.463,0,0,1,1.463-1.463,1.464,1.464,0,0,1,1.464,1.463v14.714a1.464,1.464,0,0,1-1.464,1.463H5314.471v26.264A1.464,1.464,0,0,1,5313.007-6178.871Z" transform="translate(-5311.544 6224.239)" fill="#9ddfd3"/>
      </g>
      <g id="Group_55520" data-name="Group 55520" transform="translate(739.588 639.758)">
        <path id="Path_101481" data-name="Path 101481" d="M5743.941-5557.67H5357.136a1.463,1.463,0,0,1-1.464-1.463v-79.5a1.463,1.463,0,0,1,1.464-1.463,1.464,1.464,0,0,1,1.463,1.463v78.039h383.879v-13.25a1.463,1.463,0,0,1,1.464-1.463,1.463,1.463,0,0,1,1.463,1.463v14.714A1.463,1.463,0,0,1,5743.941-5557.67Z" transform="translate(-5355.672 5640.099)" fill="#9ddfd3"/>
      </g>
      <g id="Group_55521" data-name="Group 55521" transform="translate(1.987 623.558)">
        <path id="Path_101482" data-name="Path 101482" d="M5040.328-5639.062H4601.135a1.463,1.463,0,0,1-1.463-1.463v-14.714a1.464,1.464,0,0,1,1.463-1.463,1.464,1.464,0,0,1,1.463,1.463v13.251h437.729a1.463,1.463,0,0,1,1.463,1.463A1.463,1.463,0,0,1,5040.328-5639.062Z" transform="translate(-4599.672 5656.703)" fill="#cc3d60"/>
      </g>
      <g id="Group_55522" data-name="Group 55522" transform="translate(192.351 384.493)">
        <path id="Path_101483" data-name="Path 101483" d="M4989.65-5884.09h-193.4a1.464,1.464,0,0,1-1.463-1.464v-14.714a1.463,1.463,0,0,1,1.463-1.463,1.464,1.464,0,0,1,1.464,1.463v13.25H4989.65a1.464,1.464,0,0,1,1.464,1.463A1.464,1.464,0,0,1,4989.65-5884.09Z" transform="translate(-4794.784 5901.731)" fill="#9ddfd3"/>
      </g>
      <g id="Group_55523" data-name="Group 55523" transform="translate(138.786 659.255)">
        <path id="Path_101484" data-name="Path 101484" d="M5250.331-5465.4H4741.348a1.464,1.464,0,0,1-1.464-1.463v-14.713a1.464,1.464,0,0,1,1.464-1.463,1.463,1.463,0,0,1,1.463,1.463v13.25h506.056v-150.325a1.464,1.464,0,0,1,1.463-1.463,1.464,1.464,0,0,1,1.464,1.463v151.789A1.463,1.463,0,0,1,5250.331-5465.4Z" transform="translate(-4739.884 5620.115)" fill="#81c140"/>
      </g>
      <g id="Group_55524" data-name="Group 55524" transform="translate(192.351 294.996)">
        <path id="Path_101485" data-name="Path 101485" d="M5093.238-5964.094a1.464,1.464,0,0,1-1.464-1.463v-10.263H4796.248a1.463,1.463,0,0,1-1.463-1.463V-5992a1.463,1.463,0,0,1,1.463-1.463,1.464,1.464,0,0,1,1.464,1.463v13.25h295.526a1.464,1.464,0,0,1,1.463,1.463v11.727A1.464,1.464,0,0,1,5093.238-5964.094Z" transform="translate(-4794.784 5993.461)" fill="#81c140"/>
      </g>
      <g id="Group_55525" data-name="Group 55525" transform="translate(831.41 245.885)">
        <path id="Path_101486" data-name="Path 101486" d="M5790.361-6026.156H5451.248a1.464,1.464,0,0,1-1.463-1.463,1.464,1.464,0,0,1,1.463-1.463H5788.9v-13.25a1.464,1.464,0,0,1,1.464-1.464,1.464,1.464,0,0,1,1.463,1.464v14.714A1.464,1.464,0,0,1,5790.361-6026.156Z" transform="translate(-5449.784 6043.797)" fill="#81c140"/>
      </g>
      <text id="Hipótesis:_los_estudiantes_plantean_una_posible_explicación_al_fenómeno_que_están_investigando_esta_explicación_puede_ser_verdadera_o_falsa_y_en_desarrollo_de_la_investigación_se_devela_la_respuesta." data-name="Hipótesis:
los estudiantes plantean una posible
explicación al fenómeno que están investigando,
esta explicación puede ser verdadera o falsa
y en  desarrollo de la investigación se devela
la respuesta." transform="translate(829.377 152.267)" fill="#3c3c3b" font-size="15" font-family="Roboto-Bold, Roboto" font-weight="700"><tspan x="0" y="0">Hipótesis:</tspan><tspan font-family="Roboto-Regular, Roboto" font-weight="400"><tspan x="0" y="18">los estudiantes plantean una posible</tspan><tspan x="0" y="36">explicación al fenómeno que están investigando,</tspan><tspan x="0" y="54">esta explicación puede ser verdadera o falsa</tspan><tspan x="0" y="72" xml:space="preserve">y en  desarrollo de la investigación se devela</tspan><tspan x="0" y="90">la respuesta.</tspan></tspan></text>
      <g id="Group_55526" data-name="Group 55526" transform="translate(800.572 502.431)">
        <path id="Path_101487" data-name="Path 101487" d="M5789.592-5763.21H5419.641a1.465,1.465,0,0,1-1.464-1.464,1.464,1.464,0,0,1,1.464-1.463h368.487v-13.25a1.463,1.463,0,0,1,1.464-1.463,1.463,1.463,0,0,1,1.463,1.463v14.714A1.464,1.464,0,0,1,5789.592-5763.21Z" transform="translate(-5418.177 5780.851)" fill="#cc3d60"/>
      </g>
      <text id="Experimentación:_es_el_proceso_mediante_el_cual_los_estudiantes_reproducen_el_fenómeno_en_el_laboratorio_de_clase_o_aula_o_realizan_la_réplica_o_modelo_a_escala_para_poder_demostrarlo." data-name="Experimentación:
es el proceso mediante el cual los estudiantes
reproducen el fenómeno en el laboratorio
de clase o aula o realizan la réplica o modelo a
escala para poder demostrarlo." transform="translate(829.377 423.359)" fill="#3c3c3b" font-size="15" font-family="Roboto-Bold, Roboto" font-weight="700"><tspan x="0" y="0">Experimentación:</tspan><tspan font-family="Roboto-Regular, Roboto" font-weight="400"><tspan x="0" y="18">es el proceso mediante el cual los estudiantes</tspan><tspan x="0" y="36">reproducen el fenómeno en el laboratorio</tspan><tspan x="0" y="54">de clase o aula o realizan la réplica o modelo a</tspan><tspan x="0" y="72">escala para poder demostrarlo.</tspan></tspan></text>
      <circle id="Ellipse_4095" data-name="Ellipse 4095" cx="3.606" cy="3.606" r="3.606" transform="translate(190.033 291.902)" fill="#81c140"/>
      <circle id="Ellipse_4096" data-name="Ellipse 4096" cx="3.606" cy="3.606" r="3.606" transform="translate(487.197 319.293)" fill="#81c140"/>
      <circle id="Ellipse_4097" data-name="Ellipse 4097" cx="3.606" cy="3.606" r="3.606" transform="translate(190.108 382.35)" fill="#9ddfd3"/>
      <circle id="Ellipse_4098" data-name="Ellipse 4098" cx="3.606" cy="3.606" r="3.606" transform="translate(383.916 396.62)" fill="#9ddfd3"/>
      <circle id="Ellipse_4099" data-name="Ellipse 4099" cx="3.606" cy="3.606" r="3.606" transform="translate(0 619.952)" fill="#cc3d60"/>
      <circle id="Ellipse_4100" data-name="Ellipse 4100" cx="3.606" cy="3.606" r="3.606" transform="translate(440.5 636.395)" fill="#cc3d60"/>
      <circle id="Ellipse_4101" data-name="Ellipse 4101" cx="3.606" cy="3.606" r="3.606" transform="translate(645.599 656.883)" fill="#81c140"/>
      <circle id="Ellipse_4102" data-name="Ellipse 4102" cx="3.606" cy="3.606" r="3.606" transform="translate(736.823 637.615)" fill="#9ddfd3"/>
      <circle id="Ellipse_4103" data-name="Ellipse 4103" cx="3.606" cy="3.606" r="3.606" transform="translate(1124.44 701.803)" fill="#9ddfd3"/>
      <circle id="Ellipse_4104" data-name="Ellipse 4104" cx="3.606" cy="3.606" r="3.606" transform="translate(797.907 515.055)" fill="#cc3d60"/>
      <circle id="Ellipse_4105" data-name="Ellipse 4105" cx="3.606" cy="3.606" r="3.606" transform="translate(1168.432 498.825)" fill="#cc3d60"/>
      <circle id="Ellipse_4106" data-name="Ellipse 4106" cx="3.606" cy="3.606" r="3.606" transform="translate(827.804 258.507)" fill="#81c140"/>
      <circle id="Ellipse_4107" data-name="Ellipse 4107" cx="3.606" cy="3.606" r="3.606" transform="translate(694.652 109.958)" fill="#9ddfd3"/>
      <circle id="Ellipse_4108" data-name="Ellipse 4108" cx="3.606" cy="3.606" r="3.606" transform="translate(422.933 111.397)" fill="#cc3d60"/>
      <circle id="Ellipse_4109" data-name="Ellipse 4109" cx="3.606" cy="3.606" r="3.606" transform="translate(1081.015 67.116)" fill="#9ddfd3"/>
      <text id="Observaciones:_es_la_acción_que_realizan_los_estudiantes_cuando_descubren_el_fenómeno_o_problema_que_existe_y_formulan_un_problema_para_iniciar_la_investigación_que_van_a_resolver" data-name="Observaciones:
es la acción que realizan los estudiantes cuando descubren
el fenómeno o problema que existe y formulan un problema
para iniciar la investigación que van a resolver" transform="translate(54.228 14.978)" fill="#3c3c3b" font-size="15" font-family="Roboto-Bold, Roboto" font-weight="700"><tspan x="0" y="0">Observaciones:</tspan><tspan font-family="Roboto-Regular, Roboto" font-weight="400"><tspan x="0" y="18">es la acción que realizan los estudiantes cuando descubren</tspan><tspan x="0" y="36">el fenómeno o problema que existe y formulan un problema</tspan><tspan x="0" y="54">para iniciar la investigación que van a resolver</tspan></tspan></text>
      <g id="Group_55527" data-name="Group 55527" transform="translate(38.53 70.811)">
        <path id="Path_101488" data-name="Path 101488" d="M5025.4-6177.87a1.464,1.464,0,0,0,1.464-1.463v-27.728a1.463,1.463,0,0,0-1.464-1.464H4640.054v-13.25a1.463,1.463,0,0,0-1.463-1.463,1.463,1.463,0,0,0-1.463,1.463v14.714a1.464,1.464,0,0,0,1.463,1.463h385.343v26.264A1.464,1.464,0,0,0,5025.4-6177.87Z" transform="translate(-4637.127 6223.238)" fill="#cc3d60"/>
      </g>
      <circle id="Ellipse_4110" data-name="Ellipse 4110" cx="3.606" cy="3.606" r="3.606" transform="translate(36.57 68.092)" fill="#cc3d60"/>
      <circle id="Ellipse_4111" data-name="Ellipse 4111" cx="3.606" cy="3.606" r="3.606" transform="translate(1168.414 243.323)" fill="#81c140"/>
      <circle id="Ellipse_4112" data-name="Ellipse 4112" cx="3.606" cy="3.606" r="3.606" transform="translate(136.889 793.197)" fill="#81c140"/>
      <g id="Group_55529" data-name="Group 55529" transform="translate(502.826 325.662)">
        <g id="Group_55528" data-name="Group 55528">
          <path id="Path_101489" data-name="Path 101489" d="M5130.653-5936.442a.552.552,0,0,0-.351.7.553.553,0,0,0,.524.38.554.554,0,0,0,.174-.028,20.591,20.591,0,0,1,5.418-.9.552.552,0,0,0,.529-.575.551.551,0,0,0-.575-.529,21.679,21.679,0,0,0-5.719.956Z" transform="translate(-5113.424 5961.431)" fill="#fff"/>
          <path id="Path_101490" data-name="Path 101490" d="M5138.949-5936.828v-.695a.553.553,0,0,0-.553-.552.552.552,0,0,0-.551.552v1.962a.145.145,0,0,1-.143.124h-.458a1.813,1.813,0,0,0-1.812,1.812v1.639a1.34,1.34,0,0,0,1.339,1.339h1.072v2.877a.087.087,0,0,1-.089.086,21.436,21.436,0,0,0-9.1,1.546v-13.386c3.048-1.63,7.187-1.722,8.861-1.684a.41.41,0,0,1,.061.008h.008a.336.336,0,0,1,.262.329v.76a.551.551,0,0,0,.551.552.552.552,0,0,0,.553-.552v-.76a1.434,1.434,0,0,0-.721-1.252v-.693a1.378,1.378,0,0,0-1.354-1.386c-.475-.011-1.131-.011-1.9.03a8.324,8.324,0,0,0-3.173-1.327,5.238,5.238,0,0,1-1.151-.268h0a1.5,1.5,0,0,1-.889-1.366v-.016a5.965,5.965,0,0,0,.93-.674,5.029,5.029,0,0,0,1.646-3.206,1.425,1.425,0,0,0,1.223-1.418l0-1.866a1.4,1.4,0,0,0-.076-.451,1.409,1.409,0,0,0,.077-.456v-3.288a1.71,1.71,0,0,0-1.674-1.7.129.129,0,0,1-.126-.127,1.73,1.73,0,0,0-1.722-1.7h-5.191a4.339,4.339,0,0,0-4.229,3.429.552.552,0,0,0,.427.654.551.551,0,0,0,.654-.427,3.228,3.228,0,0,1,3.148-2.552h5.191a.619.619,0,0,1,.617.608,1.228,1.228,0,0,0,1.213,1.214.6.6,0,0,1,.588.6v3.288a.307.307,0,0,1-.206.29.565.565,0,0,1-.692-.281,1.151,1.151,0,0,0-1.309-.6,4.6,4.6,0,0,1-4.488-1.663,1.769,1.769,0,0,0-1.917-.488,1.7,1.7,0,0,0-1.152,1.542c-.005.092,0-.016,0,1.793l-.856-.3a.307.307,0,0,1-.208-.29v-.692a.551.551,0,0,0-.552-.551.552.552,0,0,0-.552.551v.692a1.326,1.326,0,0,0,.017.212,1.79,1.79,0,0,0-.385,1.111v1.128a1.8,1.8,0,0,0,1.6,1.784,5.031,5.031,0,0,0,1.672,3.192,6.28,6.28,0,0,0,.523.4v.254a1.486,1.486,0,0,1-.71,1.272h0a3.57,3.57,0,0,1-1.331.362,8.333,8.333,0,0,0-3.175,1.327c-.765-.041-1.422-.041-1.9-.03a1.378,1.378,0,0,0-1.354,1.386v.693a1.432,1.432,0,0,0-.722,1.252v4.044c-.253.222-1.761.707-1.761,2.328v1.487a2.367,2.367,0,0,0,1.761,2.286v2.955a1.19,1.19,0,0,0,1.228,1.19c5.286-.172,8.293,1.221,9.341,1.828h0l0,0,.013.007a3.009,3.009,0,0,0,3.016,0l.015-.007h0c1.048-.607,4.057-2,9.34-1.828a1.19,1.19,0,0,0,1.229-1.19v-2.954a2.37,2.37,0,0,0,1.763-2.287v-1.487c0-1.619-1.517-2.112-1.763-2.33Zm-16.128-14.711a.551.551,0,0,0-.551-.538h-.32a.693.693,0,0,1-.692-.691c0-1.191,0-1.13.005-1.208a1.359,1.359,0,0,0,.206.09l.929.324a1.053,1.053,0,0,0,.955-.137,1.048,1.048,0,0,0,.441-.857c0-2.044,0-1.772,0-1.812a.612.612,0,0,1,.418-.555.66.66,0,0,1,.724.183,5.662,5.662,0,0,0,5.571,2,.051.051,0,0,1,.061.023,1.676,1.676,0,0,0,1.887.877l0,1.4a.32.32,0,0,1-.311.325h-.327a.552.552,0,0,0-.55.542,3.97,3.97,0,0,1-1.306,2.924,4.3,4.3,0,0,1-5.812.025,3.973,3.973,0,0,1-1.33-2.913Zm5.879,4.869a2.6,2.6,0,0,0,.775,1.427,4.477,4.477,0,0,1-5.081-.156,2.572,2.572,0,0,0,.641-1.4A5.284,5.284,0,0,0,5128.7-5946.669Zm-6.581,2.257a6.278,6.278,0,0,0,1.331-.317,5.6,5.6,0,0,0,7.083.094c.166.049.9.191,1.063.223a7.312,7.312,0,0,1,1.424.427,13.9,13.9,0,0,0-5.805,1.982.636.636,0,0,1-.714,0,13.9,13.9,0,0,0-5.806-1.982A7.291,7.291,0,0,1,5122.12-5944.413Zm-5.254,1.316c.49-.012,1.184-.011,1.993.038h.013a14.6,14.6,0,0,1,7.01,1.969,1.733,1.733,0,0,0,1.952,0c2.858-1.935,7.256-2.048,9.015-2.007a.279.279,0,0,1,.275.282v.5c-3.142-.019-6.99.513-9.64,2.2a1.156,1.156,0,0,1-1.252,0c-2.645-1.682-6.492-2.215-9.641-2.2v-.5a.279.279,0,0,1,.275-.282Zm-2.757,10.085v-1.487a1.2,1.2,0,0,1,.657-1.034,1.25,1.25,0,0,0,1.248,1.2h.458a.708.708,0,0,1,.708.707v1.64a.235.235,0,0,1-.235.235h-1.575a1.261,1.261,0,0,1-1.259-1.26Zm1.849,5.328a.086.086,0,0,1-.088-.086v-2.877h1.073a1.341,1.341,0,0,0,1.34-1.339v-1.64a1.814,1.814,0,0,0-1.812-1.811h-.458a.144.144,0,0,1-.144-.141v-5.293a.336.336,0,0,1,.261-.329h.007a.41.41,0,0,1,.061-.008c1.675-.039,5.813.054,8.861,1.684v13.385A21.444,21.444,0,0,0,5115.958-5927.683Zm11.594,2.11a1.9,1.9,0,0,1-1.387,0v-13.371a2.3,2.3,0,0,0,1.387,0Zm12.057-7.437a1.261,1.261,0,0,1-1.26,1.259h-1.575a.234.234,0,0,1-.235-.234v-1.64a.708.708,0,0,1,.708-.707h.458a1.253,1.253,0,0,0,1.248-1.2l.118.073a1.134,1.134,0,0,1,.539.961v1.487Z" transform="translate(-5113.004 5962.03)" fill="#fff"/>
        </g>
      </g>
      <g id="Group_55531" data-name="Group 55531" transform="translate(681.598 543.339)">
        <g id="Group_55530" data-name="Group 55530">
          <path id="Path_101491" data-name="Path 101491" d="M5328.438-5726.314h1.225a.821.821,0,0,0,.821-.82.821.821,0,0,0-.821-.822h-1.225a.821.821,0,0,0-.82.822A.821.821,0,0,0,5328.438-5726.314Z" transform="translate(-5296.999 5738.656)" fill="#3c3c3b"/>
          <path id="Path_101492" data-name="Path 101492" d="M5350.342-5727.956h-1.225a.821.821,0,0,0-.822.822.821.821,0,0,0,.822.82h1.225a.821.821,0,0,0,.821-.82A.821.821,0,0,0,5350.342-5727.956Z" transform="translate(-5297.502 5738.656)" fill="#3c3c3b"/>
          <path id="Path_101493" data-name="Path 101493" d="M5331.936-5733.444a.82.82,0,0,0,1.161,0,.819.819,0,0,0,0-1.161l-.866-.865a.819.819,0,0,0-1.161,0,.821.821,0,0,0,0,1.161Z" transform="translate(-5297.077 5738.845)" fill="#3c3c3b"/>
          <path id="Path_101494" data-name="Path 101494" d="M5346.854-5720.848a.82.82,0,0,0-1.162,0,.822.822,0,0,0,0,1.161l.866.865a.819.819,0,0,0,1.161,0,.819.819,0,0,0,0-1.161Z" transform="translate(-5297.433 5738.489)" fill="#3c3c3b"/>
          <path id="Path_101495" data-name="Path 101495" d="M5332.232-5718.821l.865-.866a.82.82,0,0,0,0-1.161.82.82,0,0,0-1.161,0l-.866.865a.822.822,0,0,0,0,1.162A.822.822,0,0,0,5332.232-5718.821Z" transform="translate(-5297.077 5738.489)" fill="#3c3c3b"/>
          <path id="Path_101496" data-name="Path 101496" d="M5346.854-5733.444l.865-.865a.819.819,0,0,0,0-1.161.819.819,0,0,0-1.161,0l-.865.865a.82.82,0,0,0,0,1.161A.82.82,0,0,0,5346.854-5733.444Z" transform="translate(-5297.433 5738.845)" fill="#3c3c3b"/>
          <path id="Path_101497" data-name="Path 101497" d="M5339.405-5736.055a.822.822,0,0,0,.822-.822v-1.225a.821.821,0,0,0-.822-.821.821.821,0,0,0-.82.821v1.225A.821.821,0,0,0,5339.405-5736.055Z" transform="translate(-5297.266 5738.923)" fill="#3c3c3b"/>
          <path id="Path_101498" data-name="Path 101498" d="M5333.443-5695.621a.82.82,0,0,0-.34,1.11,12.4,12.4,0,0,1,1.44,5.8v2.434a1.986,1.986,0,0,1-1.984,1.984h-3.481v-5.367a.821.821,0,0,0-.821-.822.821.821,0,0,0-.822.822v5.367h-22.45v-5.367a.821.821,0,0,0-.822-.822.821.821,0,0,0-.82.822v5.367h-3.482a1.986,1.986,0,0,1-1.984-1.984v-2.434a12.391,12.391,0,0,1,9.716-12.083c.025.239-.011-.026.884,4.993a2.583,2.583,0,0,0,3.185,2.046l4.542-1.169,4.542,1.169a2.584,2.584,0,0,0,3.186-2.046c.9-5.033.858-4.753.884-5a12.306,12.306,0,0,1,6.153,3.385.82.82,0,0,0,.584.245.819.819,0,0,0,.576-.237.821.821,0,0,0,.008-1.161,14.69,14.69,0,0,0-7.607-3.967,6.592,6.592,0,0,0-3.228-2.7v-1.309a7.783,7.783,0,0,0,3.563-5.184h.846a2.653,2.653,0,0,0,2.65-2.65v-2.026a2.655,2.655,0,0,0-1.833-2.52v-4.284a6.933,6.933,0,0,0-6.925-6.924h-6.789a6.907,6.907,0,0,0-6.587,4.785.822.822,0,0,0,.528,1.035.821.821,0,0,0,1.034-.528,5.269,5.269,0,0,1,5.025-3.649h6.789a5.289,5.289,0,0,1,5.283,5.282v4.155H5323.1a.763.763,0,0,1-.785-.734v-3.173a2.424,2.424,0,0,0-2.432-2.42h0a9.379,9.379,0,0,0-2.017.226,7.673,7.673,0,0,1-3.316,0,9.363,9.363,0,0,0-2.016-.226h0a2.424,2.424,0,0,0-2.433,2.42c0,2.67,0,3.188,0,3.24a.771.771,0,0,1-.781.667h-1.783v-2.2a.821.821,0,0,0-.821-.822.821.821,0,0,0-.821.822v2.319a2.654,2.654,0,0,0-1.855,2.528v2.026a2.652,2.652,0,0,0,2.649,2.65h.87a7.722,7.722,0,0,0,3.563,5.185v1.3a6.6,6.6,0,0,0-3.241,2.707l-.274.052a14.036,14.036,0,0,0-11.368,13.765v2.434a3.63,3.63,0,0,0,3.626,3.626h32.7a3.63,3.63,0,0,0,3.627-3.626v-2.434a14.06,14.06,0,0,0-1.632-6.567.821.821,0,0,0-1.11-.339Zm-8.363-21.788h.632a1.009,1.009,0,0,1,1.008,1.007v2.026a1.01,1.01,0,0,1-1.008,1.008h-.643c.022-.5,0,.459.011-4.041Zm-18.395,4.041a1.009,1.009,0,0,1-1.007-1.008v-2.026a1.008,1.008,0,0,1,1.007-1.007h.658c.011,4.33-.011,3.485.014,4.041Zm5.684,10.993a.876.876,0,0,1-.112-.843l.448-1.155a5.424,5.424,0,0,0,.055-1.306,9.1,9.1,0,0,0,6.9,0c-.011,1.057-.03,1.108.042,1.3l0,.006.449,1.155a.881.881,0,0,1-.112.843l-3.836,5.222Zm8.995.973a2.508,2.508,0,0,0,.487-1.652,5.933,5.933,0,0,1,.888.76,1.661,1.661,0,0,1,.43,1.435l-.853,4.766a.939.939,0,0,1-1.159.746l-3.565-.918Zm-12.375-12.258,0-3.749h.331a2.411,2.411,0,0,0,2.419-2.179c.014-.187,0-.12.007-3.369a.784.784,0,0,1,.791-.78h0a7.755,7.755,0,0,1,1.667.188,9.323,9.323,0,0,0,4.021,0,7.75,7.75,0,0,1,1.666-.188h0a.783.783,0,0,1,.789.78v3.172a2.4,2.4,0,0,0,2.426,2.376h.334c-.053,3.183.1,2.572-.082,4.8-1.134,8.237-14.167,7.95-14.368-1.048Zm.683,11.365a5.9,5.9,0,0,1,.887-.761,2.517,2.517,0,0,0,.487,1.653l3.772,5.135-3.565.918a.939.939,0,0,1-1.159-.746l-.853-4.766a1.661,1.661,0,0,1,.43-1.435Z" transform="translate(-5296.235 5738.709)" fill="#3c3c3b"/>
          <path id="Path_101499" data-name="Path 101499" d="M5339.042-5733.93a7.213,7.213,0,0,0-7,7.133c-.035,3.941,2.312,4.344,2.85,7.244a1.621,1.621,0,0,0,.706,1.06v1.531a2.486,2.486,0,0,0,2.483,2.482h2.321a2.485,2.485,0,0,0,2.482-2.482v-1.531a1.625,1.625,0,0,0,.707-1.059c.54-2.9,2.851-3.272,2.851-7.18a7.2,7.2,0,0,0-7.4-7.2Zm2.205,16.968a.841.841,0,0,1-.84.841h-2.321a.842.842,0,0,1-.841-.841v-1.264h4Zm.737-2.906h-1.917v-1.667a3.662,3.662,0,0,0,1.382-.642.823.823,0,0,0,.162-1.15.822.822,0,0,0-1.151-.161,2.06,2.06,0,0,1-2.466,0,.82.82,0,0,0-1.149.161.822.822,0,0,0,.161,1.15,3.683,3.683,0,0,0,1.419.65v1.658h-1.917c-.638-3.4-2.849-3.615-2.82-6.914a5.572,5.572,0,0,1,5.4-5.506,5.555,5.555,0,0,1,5.717,5.556c0,3.273-2.181,3.466-2.82,6.863Z" transform="translate(-5297.106 5738.802)" fill="#3c3c3b"/>
        </g>
      </g>
      <g id="Group_55533" data-name="Group 55533" transform="translate(547.423 589.048)">
        <g id="Group_55532" data-name="Group 55532">
          <path id="Path_101500" data-name="Path 101500" d="M5203.722-5682.893a62.635,62.635,0,0,0-15.223.726.756.756,0,0,0-.606.883.757.757,0,0,0,.743.62,60.506,60.506,0,0,1,14.991-.716.755.755,0,0,0,.8-.709A.757.757,0,0,0,5203.722-5682.893Z" transform="translate(-5159.424 5691.854)" fill="#fff"/>
          <path id="Path_101501" data-name="Path 101501" d="M5203.722-5677.166a62.559,62.559,0,0,0-15.223.726.756.756,0,0,0-.606.883.757.757,0,0,0,.743.62,60.506,60.506,0,0,1,14.991-.716.755.755,0,0,0,.8-.709.757.757,0,0,0-.708-.8Z" transform="translate(-5159.424 5691.715)" fill="#fff"/>
          <path id="Path_101502" data-name="Path 101502" d="M5187.893-5664.1a.757.757,0,0,0,.743.62c.288,0,1.855-.408,5.319-.677a.757.757,0,0,0,.7-.815.758.758,0,0,0-.814-.7,50.869,50.869,0,0,0-5.338.686.756.756,0,0,0-.606.883Z" transform="translate(-5159.424 5691.431)" fill="#fff"/>
          <path id="Path_101503" data-name="Path 101503" d="M5169.909-5681.519h.014a57.648,57.648,0,0,1,11.4.841.724.724,0,0,0,.14.014.757.757,0,0,0,.744-.62.757.757,0,0,0-.606-.883,59.027,59.027,0,0,0-11.707-.866.757.757,0,0,0-.745.77A.757.757,0,0,0,5169.909-5681.519Z" transform="translate(-5158.968 5691.854)" fill="#fff"/>
          <path id="Path_101504" data-name="Path 101504" d="M5166.388-5675.653a61.08,61.08,0,0,1,14.851.7.756.756,0,0,0,.883-.606.757.757,0,0,0-.606-.883,62.555,62.555,0,0,0-15.222-.726.757.757,0,0,0-.709.8.758.758,0,0,0,.8.709Z" transform="translate(-5158.881 5691.715)" fill="#fff"/>
          <path id="Path_101505" data-name="Path 101505" d="M5166.388-5669.926a61.112,61.112,0,0,1,14.851.7.756.756,0,0,0,.883-.606.757.757,0,0,0-.606-.883,62.606,62.606,0,0,0-15.222-.726.757.757,0,0,0-.709.8.757.757,0,0,0,.8.709Z" transform="translate(-5158.881 5691.576)" fill="#fff"/>
          <path id="Path_101506" data-name="Path 101506" d="M5166.388-5664.2a72.29,72.29,0,0,1,7.435-.093,52.441,52.441,0,0,1,7.416.8.756.756,0,0,0,.883-.606.756.756,0,0,0-.606-.883,53.938,53.938,0,0,0-7.631-.821,73.826,73.826,0,0,0-7.592.095.756.756,0,0,0-.708.8.757.757,0,0,0,.8.709Z" transform="translate(-5158.881 5691.437)" fill="#fff"/>
          <path id="Path_101507" data-name="Path 101507" d="M5207.195-5688.545v-.886a2.37,2.37,0,0,0-2.151-2.346c-11.372-.977-18.319.727-20.177,1.273a1.066,1.066,0,0,1-.595,0c-1.858-.546-8.805-2.251-20.177-1.273a2.37,2.37,0,0,0-2.15,2.346v.886a4.225,4.225,0,0,0-3.23,4.237v26.293c0,2.84,2.191,4.675,5.582,4.675.608,0,9.9-1.012,17.658.842a11.224,11.224,0,0,0,4.759.1,7.684,7.684,0,0,0,.6,2.494c1.553,3.677,1.485,3.49,1.581,3.76a1.842,1.842,0,0,0-1.038,1.656v1.139a1.845,1.845,0,0,0,1.843,1.843h11.338a1.845,1.845,0,0,0,1.844-1.843v-1.139a1.843,1.843,0,0,0-.871-1.564,6.073,6.073,0,0,1,.616-1.013,11.669,11.669,0,0,0,2.292-6.277c3.347-.028,5.5-1.855,5.5-4.674v-26.293a4.225,4.225,0,0,0-3.229-4.237Zm-20.5,34.606a9.794,9.794,0,0,1-4.386-.031c-7.966-1.9-17.493-.884-18.01-.884-.954,0-4.066-.228-4.066-3.161v-26.293a2.634,2.634,0,0,1,1.715-2.624v5.18a.757.757,0,0,0,.757.757.757.757,0,0,0,.757-.757v-7.68a.845.845,0,0,1,.766-.837c11.044-.948,17.746.67,19.587,1.208v31.8a6.359,6.359,0,0,1-.756-.134,60.4,60.4,0,0,0-18.689-.975.838.838,0,0,1-.908-.836v-19.008a.758.758,0,0,0-.757-.758.758.758,0,0,0-.757.758v19.008a2.356,2.356,0,0,0,2.548,2.346c9.229-.764,15.372.261,18.211.938a8.15,8.15,0,0,0,3.988-.061v2.039Zm14.676,10.591a.329.329,0,0,1-.329.328H5189.7a.329.329,0,0,1-.329-.328v-1.139a.33.33,0,0,1,.329-.329h11.338a.329.329,0,0,1,.329.329Zm2.06-10.666a10.137,10.137,0,0,1-2.013,6.042,7.68,7.68,0,0,0-.938,1.641h-10.05c-.179-.607-.237-.632-1.718-4.166a6.176,6.176,0,0,1-.5-2.445v-5.733a1.009,1.009,0,0,1,.943-1.02.979.979,0,0,1,1.016.979.756.756,0,0,0,.757.757.756.756,0,0,0,.757-.757v-1a.978.978,0,0,1,.978-.985c.78.016.98.387.98,1.808a.758.758,0,0,0,.759.758.757.757,0,0,0,.757-.758v-1.673a1.009,1.009,0,0,1,.942-1.02.978.978,0,0,1,1.016.979.759.759,0,0,0,.758.757.758.758,0,0,0,.757-.757v-10.057a.98.98,0,0,1,.979-.979.98.98,0,0,1,.979.979v12.218a.759.759,0,0,0,.436.686.757.757,0,0,0,.806-.1.988.988,0,0,1,1.6.8v3.049Zm5.482-4c0,2.838-2.915,3.143-3.967,3.16v-2a2.35,2.35,0,0,0,2.252-2.349v-6.827a.758.758,0,0,0-.758-.758.757.757,0,0,0-.757.758v6.827a.839.839,0,0,1-.908.837l-.2-.016a2.48,2.48,0,0,0-2.477-1.2v-10.9q.4.021.818.047a.754.754,0,0,0,.8-.709.757.757,0,0,0-.708-.8q-.667-.04-1.311-.07a2.491,2.491,0,0,0-2.1-1.147,2.493,2.493,0,0,0-2.046,1.07,56.654,56.654,0,0,0-9.769.873.756.756,0,0,0-.606.883.757.757,0,0,0,.743.62,55.539,55.539,0,0,1,9.184-.856v7.665a2.484,2.484,0,0,0-1.069-.2,2.477,2.477,0,0,0-2.051,1.226,2.578,2.578,0,0,0-1.3-.342,2.47,2.47,0,0,0-2.24,1.344,2.477,2.477,0,0,0-1.352-.341,2.506,2.506,0,0,0-2.4,2.535v1.144c-.209.046-.412.092-.609.14a6.391,6.391,0,0,1-.756.133v-31.8c1.841-.537,8.543-2.157,19.587-1.207a.843.843,0,0,1,.766.836v19.861a.757.757,0,0,0,.757.757.757.757,0,0,0,.758-.757v-17.362a2.634,2.634,0,0,1,1.714,2.624Z" transform="translate(-5158.714 5692.074)" fill="#fff"/>
        </g>
      </g>
      <g id="Group_55535" data-name="Group 55535" transform="translate(734.478 425.795)">
        <g id="Group_55534" data-name="Group 55534">
          <path id="Path_101508" data-name="Path 101508" d="M5370.122-5846h13.459a.762.762,0,0,0,.762-.762.761.761,0,0,0-.762-.761h-13.459a.762.762,0,0,0-.763.761A.763.763,0,0,0,5370.122-5846Z" transform="translate(-5350.895 5859.11)" fill="#fff"/>
          <path id="Path_101509" data-name="Path 101509" d="M5370.122-5842.44h13.459a.761.761,0,0,0,.762-.761.761.761,0,0,0-.762-.762h-13.459a.762.762,0,0,0-.763.762A.762.762,0,0,0,5370.122-5842.44Z" transform="translate(-5350.895 5859.024)" fill="#fff"/>
          <path id="Path_101510" data-name="Path 101510" d="M5365.773-5843.979a.762.762,0,0,0-.762.761v2.612a2.059,2.059,0,0,0,2.057,2.057h19.355a2.058,2.058,0,0,0,2.056-2.057v-8.784a2.058,2.058,0,0,0-2.056-2.056h-19.355a2.058,2.058,0,0,0-2.057,2.056v2.612a.762.762,0,0,0,.762.762.761.761,0,0,0,.761-.762v-2.612a.534.534,0,0,1,.534-.532h19.355a.533.533,0,0,1,.533.532v8.784a.534.534,0,0,1-.533.533h-19.355a.535.535,0,0,1-.534-.533v-2.612a.76.76,0,0,0-.761-.761Z" transform="translate(-5350.789 5859.206)" fill="#fff"/>
          <path id="Path_101511" data-name="Path 101511" d="M5374.867-5808.926h-13.505v-48.95h28.223a2.116,2.116,0,0,1,2.113,2.114v16.536a.762.762,0,0,0,.762.762.763.763,0,0,0,.762-.762v-16.536a3.641,3.641,0,0,0-3.637-3.637h-32.468a3.641,3.641,0,0,0-3.637,3.637v2.332h-.4a2.651,2.651,0,0,0-2.647,2.649,2.65,2.65,0,0,0,2.647,2.647h.4v3.394h-.4a2.651,2.651,0,0,0-2.647,2.649,2.651,2.651,0,0,0,2.647,2.648h.4v3.394h-.4a2.651,2.651,0,0,0-2.647,2.649,2.65,2.65,0,0,0,2.647,2.647h.4v3.394h-.4a2.651,2.651,0,0,0-2.647,2.649,2.65,2.65,0,0,0,2.647,2.648h.4v3.394h-.4a2.651,2.651,0,0,0-2.647,2.649,2.65,2.65,0,0,0,2.647,2.648h.4v2.333a3.641,3.641,0,0,0,3.637,3.637h17.75a.761.761,0,0,0,.761-.762.761.761,0,0,0-.761-.761Zm-21.785-40.73a1.126,1.126,0,0,1-1.125-1.125,1.127,1.127,0,0,1,1.125-1.126h2.318a1.127,1.127,0,0,1,1.125,1.126,1.126,1.126,0,0,1-1.125,1.125Zm0,8.69a1.127,1.127,0,0,1-1.125-1.126,1.126,1.126,0,0,1,1.125-1.125h2.318a1.127,1.127,0,0,1,1.125,1.125,1.127,1.127,0,0,1-1.125,1.126Zm0,8.69a1.126,1.126,0,0,1-1.125-1.125,1.126,1.126,0,0,1,1.125-1.126h2.318a1.126,1.126,0,0,1,1.125,1.126,1.126,1.126,0,0,1-1.125,1.125Zm0,8.69a1.126,1.126,0,0,1-1.125-1.125,1.127,1.127,0,0,1,1.125-1.126h2.318a1.127,1.127,0,0,1,1.125,1.126,1.127,1.127,0,0,1-1.125,1.125Zm0,8.69a1.125,1.125,0,0,1-1.125-1.125,1.127,1.127,0,0,1,1.125-1.126h2.318a1.127,1.127,0,0,1,1.125,1.126,1.126,1.126,0,0,1-1.125,1.125Zm6.757,5.969h-2.722a2.116,2.116,0,0,1-2.113-2.114v-2.332h.4a2.652,2.652,0,0,0,2.649-2.648,2.652,2.652,0,0,0-2.649-2.649h-.4v-3.394h.4a2.652,2.652,0,0,0,2.649-2.648,2.652,2.652,0,0,0-2.649-2.649h-.4v-3.394h.4a2.652,2.652,0,0,0,2.649-2.648,2.652,2.652,0,0,0-2.649-2.648h-.4v-3.394h.4a2.652,2.652,0,0,0,2.649-2.649,2.652,2.652,0,0,0-2.649-2.648h-.4v-3.394h.4a2.652,2.652,0,0,0,2.649-2.648,2.652,2.652,0,0,0-2.649-2.648h-.4v-2.332a2.116,2.116,0,0,1,2.113-2.114h2.722Z" transform="translate(-5350.434 5859.399)" fill="#fff"/>
          <path id="Path_101512" data-name="Path 101512" d="M5402.33-5812.346l-8.317-15.393a1.156,1.156,0,0,1-.137-.541v-1.973a2.82,2.82,0,0,0,2.4-2.785,2.819,2.819,0,0,0-2.816-2.816h-7.341a2.819,2.819,0,0,0-2.816,2.816,2.821,2.821,0,0,0,2.4,2.785v1.973a1.144,1.144,0,0,1-.136.541l-8.318,15.393a3.739,3.739,0,0,0,3.29,5.517h18.5a3.738,3.738,0,0,0,3.29-5.517Zm-17.5-20.691a1.3,1.3,0,0,1,1.293-1.293h7.341a1.294,1.294,0,0,1,1.293,1.293,1.294,1.294,0,0,1-1.293,1.292h-7.341A1.294,1.294,0,0,1,5384.826-5833.037Zm2.08,6.022a2.672,2.672,0,0,0,.32-1.265v-1.942h5.127v1.942a2.671,2.671,0,0,0,.319,1.265l3.818,7.063a3.2,3.2,0,0,0-1.095-.178,3.193,3.193,0,0,0-2.164.813,1.734,1.734,0,0,1-1.234.5,1.73,1.73,0,0,1-1.233-.5,3.2,3.2,0,0,0-2.165-.813,3.2,3.2,0,0,0-2.165.813,1.732,1.732,0,0,1-1.234.5,1.736,1.736,0,0,1-1.234-.5,4.106,4.106,0,0,0-.912-.572Zm12.134,18.662h-18.5a2.216,2.216,0,0,1-1.95-3.27l3.736-6.913a2.234,2.234,0,0,1,.712.426,3.2,3.2,0,0,0,2.165.813,3.2,3.2,0,0,0,2.164-.813,1.731,1.731,0,0,1,1.233-.5,1.734,1.734,0,0,1,1.234.5,3.2,3.2,0,0,0,2.164.813,3.2,3.2,0,0,0,2.165-.813,1.734,1.734,0,0,1,1.234-.5,1.736,1.736,0,0,1,1.234.5,3.617,3.617,0,0,0,1.225.686l3.136,5.8a2.216,2.216,0,0,1-1.951,3.27Z" transform="translate(-5351.075 5858.826)" fill="#fff"/>
        </g>
      </g>
      <g id="Group_55537" data-name="Group 55537" transform="translate(723.25 259.964)">
        <g id="Group_55536" data-name="Group 55536">
          <path id="Path_101513" data-name="Path 101513" d="M5346.825-6005.584a.954.954,0,0,0,.955.954h34.388a.954.954,0,0,0,.955-.954.955.955,0,0,0-.955-.955H5347.78A.955.955,0,0,0,5346.825-6005.584Z" transform="translate(-5339.119 6028.811)" fill="#fff"/>
          <path id="Path_101514" data-name="Path 101514" d="M5347.78-5998.072h34.388a.955.955,0,0,0,.955-.955.954.954,0,0,0-.955-.954H5347.78a.954.954,0,0,0-.955.954A.955.955,0,0,0,5347.78-5998.072Z" transform="translate(-5339.119 6028.651)" fill="#fff"/>
          <path id="Path_101515" data-name="Path 101515" d="M5347.78-5991.515h34.388a.954.954,0,0,0,.955-.954.955.955,0,0,0-.955-.955H5347.78a.955.955,0,0,0-.955.955A.954.954,0,0,0,5347.78-5991.515Z" transform="translate(-5339.119 6028.492)" fill="#fff"/>
          <path id="Path_101516" data-name="Path 101516" d="M5347.78-5984.957h11.461a.956.956,0,0,0,.956-.955.955.955,0,0,0-.956-.954H5347.78a.954.954,0,0,0-.955.954A.955.955,0,0,0,5347.78-5984.957Z" transform="translate(-5339.119 6028.332)" fill="#fff"/>
          <path id="Path_101517" data-name="Path 101517" d="M5347.78-5978.4h11.461a.955.955,0,0,0,.956-.955.955.955,0,0,0-.956-.955H5347.78a.955.955,0,0,0-.955.955A.955.955,0,0,0,5347.78-5978.4Z" transform="translate(-5339.119 6028.172)" fill="#fff"/>
          <path id="Path_101518" data-name="Path 101518" d="M5382.56-6018.024a.955.955,0,0,0,.955-.956.954.954,0,0,0-.955-.954h-18.65a.955.955,0,0,0-.954.954.955.955,0,0,0,.954.956Z" transform="translate(-5339.511 6029.137)" fill="#fff"/>
          <path id="Path_101519" data-name="Path 101519" d="M5374.612-5984.272l-.011-.026a1.15,1.15,0,0,0-1.068-.715h0a1.152,1.152,0,0,0-1.068.718l-.008.021-3.314,8.7a.954.954,0,0,0,.552,1.232.955.955,0,0,0,1.232-.552l.591-1.553h4.008l.584,1.55a.955.955,0,0,0,1.23.556.955.955,0,0,0,.557-1.23Zm-2.368,5.919,1.286-3.377,1.274,3.377Z" transform="translate(-5339.66 6028.287)" fill="#fff"/>
          <path id="Path_101520" data-name="Path 101520" d="M5389.681-5978.588a.954.954,0,0,0-.954.954v7.373a4.841,4.841,0,0,1-4.835,4.836h-38.221a4.841,4.841,0,0,1-4.835-4.836v-30.126a.955.955,0,0,0-.955-.955.955.955,0,0,0-.955.955v30.126a6.753,6.753,0,0,0,6.745,6.746h38.221a6.753,6.753,0,0,0,6.745-6.746v-7.373a.955.955,0,0,0-.956-.954Z" transform="translate(-5338.926 6028.684)" fill="#fff"/>
          <path id="Path_101521" data-name="Path 101521" d="M5383.892-6029.366h-27.058a7.386,7.386,0,0,0-5.255,2.177l-10.476,10.476a7.382,7.382,0,0,0-2.177,5.255v5.938a.954.954,0,0,0,.955.954.954.954,0,0,0,.955-.954v-5.938a5.534,5.534,0,0,1,.276-1.729h10.532a3.466,3.466,0,0,0,3.461-3.461v-10.532a5.536,5.536,0,0,1,1.729-.276h27.058a4.841,4.841,0,0,1,4.835,4.835v39.84a.954.954,0,0,0,.954.955.955.955,0,0,0,.956-.955v-39.84a6.752,6.752,0,0,0-6.745-6.745Zm-30.7,12.718a1.554,1.554,0,0,1-1.552,1.552H5342.2c.08-.091.162-.181.249-.267,11.125-11.118,10.446-10.464,10.743-10.724Z" transform="translate(-5338.926 6029.366)" fill="#fff"/>
          <path id="Path_101522" data-name="Path 101522" d="M5373.376-5989.31a10.157,10.157,0,0,0-10.146,10.146,10.157,10.157,0,0,0,10.146,10.145,10.157,10.157,0,0,0,10.146-10.145A10.157,10.157,0,0,0,5373.376-5989.31Zm0,18.381a8.246,8.246,0,0,1-8.237-8.236,8.246,8.246,0,0,1,8.237-8.236,8.245,8.245,0,0,1,8.236,8.236A8.245,8.245,0,0,1,5373.376-5970.929Z" transform="translate(-5339.517 6028.392)" fill="#fff"/>
        </g>
      </g>
      <g id="Group_55540" data-name="Group 55540" transform="translate(417.634 529.561)">
        <g id="Group_55539" data-name="Group 55539">
          <g id="Group_55538" data-name="Group 55538">
            <path id="Path_101523" data-name="Path 101523" d="M5057.961-5743.792h13.172a.758.758,0,0,0,.757-.758.757.757,0,0,0-.757-.758h-13.172a.756.756,0,0,0-.757.758A.757.757,0,0,0,5057.961-5743.792Z" transform="translate(-5026.454 5752.857)" fill="#fff"/>
            <path id="Path_101524" data-name="Path 101524" d="M5057.961-5739.6h13.172a.757.757,0,0,0,.757-.757.757.757,0,0,0-.757-.758h-13.172a.757.757,0,0,0-.757.758A.757.757,0,0,0,5057.961-5739.6Z" transform="translate(-5026.454 5752.755)" fill="#fff"/>
            <path id="Path_101525" data-name="Path 101525" d="M5057.961-5735.416h4.582a.757.757,0,0,0,.758-.757.758.758,0,0,0-.758-.758h-4.582a.757.757,0,0,0-.757.758A.756.756,0,0,0,5057.961-5735.416Z" transform="translate(-5026.454 5752.653)" fill="#fff"/>
            <path id="Path_101526" data-name="Path 101526" d="M5075.618-5753.045h-34.351a1.781,1.781,0,0,0-1.779,1.779v.983a1.781,1.781,0,0,0,1.779,1.779h.21v4.578a.756.756,0,0,0,.757.757.757.757,0,0,0,.758-.757v-4.578h30.9v18.235a.365.365,0,0,1-.365.364h-11.658l1.532-4.045a.759.759,0,0,0-.44-.977.758.758,0,0,0-.977.44l-1.735,4.582h-7.423a.757.757,0,0,0-.757.758.757.757,0,0,0,.757.757h6.849l-1.392,3.679a1.943,1.943,0,0,0-1.16.519l-1.384,1.3-.018.017a2.642,2.642,0,0,0-.755,1.527,18.97,18.97,0,0,1-.824,2.557,1.535,1.535,0,0,0-.624.8l-.909,2.709a10.581,10.581,0,0,0-4.562-3.133,5.1,5.1,0,0,0,2.6-2.3,5.151,5.151,0,0,0,.179-4.665l-.025-.057c-1.084-2.335-.659-4.331-.757-6.267a9.548,9.548,0,0,0-.919-4.1h3.089a1.7,1.7,0,0,0,1.7-1.7v-6.288a1.7,1.7,0,0,0-1.7-1.7H5047.7a1.7,1.7,0,0,0-1.7,1.7v4.248a9.565,9.565,0,0,0-5.57-1.781,9.631,9.631,0,0,0-9.62,9.62v2.765a8.542,8.542,0,0,1-.781,3.556,5.154,5.154,0,0,0,.179,4.667,5.1,5.1,0,0,0,2.6,2.307,10.624,10.624,0,0,0-7.114,10.046v4.393a2.591,2.591,0,0,0,2.588,2.588h24.938a3.479,3.479,0,0,0,3.431-2.877l2.175-12.314a1.548,1.548,0,0,0-.069-.792l.081-.461a2.357,2.357,0,0,1,.662-1.266l.01-.01.008-.008.569-.592a3.064,3.064,0,0,0-.35-4.536l1.569-4.147h12.231a1.881,1.881,0,0,0,1.879-1.879V-5748.5h.209a1.782,1.782,0,0,0,1.78-1.779v-.983a1.781,1.781,0,0,0-1.78-1.779Zm-26.19,28.238.022.049a3.653,3.653,0,0,1-.127,3.306,3.589,3.589,0,0,1-2.651,1.845l-2.668-1.33v-1.532a6.85,6.85,0,0,0,1.22-.956,6.827,6.827,0,0,0,1.66-2.628,3.039,3.039,0,0,0,1.932-.521A9.515,9.515,0,0,0,5049.427-5724.807Zm-3.735,9.767c.271.336.425.392.379.555-.349,1.245-1.957,3.221-3.513,4.9a30.526,30.526,0,0,0,1.584-4.508,12.028,12.028,0,0,0,.238-4.966l1.649.821a.182.182,0,0,1,.1.12.2.2,0,0,1,.006.062v.009a.2.2,0,0,1-.029.081l-.562.847a1.705,1.705,0,0,0,.15,2.075Zm-10.383-2.075-.561-.848a.175.175,0,0,1-.03-.079v-.011a.159.159,0,0,1,.006-.061.184.184,0,0,1,.056-.093l0,0a.191.191,0,0,1,.036-.024l1.65-.821a12.012,12.012,0,0,0,.238,4.966,30.47,30.47,0,0,0,1.584,4.508c-1.556-1.683-3.165-3.66-3.514-4.9-.046-.163.11-.221.38-.555a1.7,1.7,0,0,0,.15-2.075Zm2.984-3.114a3.19,3.19,0,0,0,.07-.674v-.871a6.861,6.861,0,0,0,4.126,0v.871a3.246,3.246,0,0,0,.07.674,10.643,10.643,0,0,1,.384,4.361,7.565,7.565,0,0,1-2.518.429,7.564,7.564,0,0,1-2.518-.429A10.635,10.635,0,0,1,5038.293-5720.229Zm-3.183-7.973v-2.482a.609.609,0,0,1,.636-.608,8.589,8.589,0,0,0,6.365-2.454,1.435,1.435,0,0,1,2.19.229,13.992,13.992,0,0,0,1.279,1.594.6.6,0,0,1,.161.412v3.31a5.34,5.34,0,0,1-5.316,5.23,5.338,5.338,0,0,1-5.315-5.23Zm3.142,14.016a9.067,9.067,0,0,0,2.174.263,9.07,9.07,0,0,0,2.174-.263,32.707,32.707,0,0,1-1.82,4.888c-.121.273-.239.542-.354.809-.114-.267-.233-.536-.354-.809A32.761,32.761,0,0,1,5038.252-5714.186Zm10.281-14.749a1.372,1.372,0,0,1-1.313,1.365c.067-.65.025-.913.038-2.743a1.377,1.377,0,0,1,1.275,1.36v.018Zm-1.021-14.861a.184.184,0,0,1,.184-.184h4.521a.184.184,0,0,1,.185.184v6.289a.185.185,0,0,1-.185.185h-3.982a9.864,9.864,0,0,0-.723-.888v-5.586Zm-15.19,12.087a8.115,8.115,0,0,1,8.1-8.1,8.115,8.115,0,0,1,8.106,8.106v.225a2.866,2.866,0,0,0-1.3-.347,2.108,2.108,0,0,0-.54-1.123h0a12.468,12.468,0,0,1-1.14-1.421,2.952,2.952,0,0,0-4.5-.455,7.083,7.083,0,0,1-5.249,2.024,2.112,2.112,0,0,0-1.875.981,3.068,3.068,0,0,0-1.608.343Zm1.311,4.123a1.358,1.358,0,0,1-1.311-1.36,1.364,1.364,0,0,1,1.274-1.358c.012,1.853-.029,2.078.036,2.718Zm-2.1,6.135c-1.135-2.064.079-3.337.511-5.133a3.05,3.05,0,0,0,1.924.515,6.805,6.805,0,0,0,1.666,2.645,6.875,6.875,0,0,0,1.218.956v1.532l-2.668,1.33A3.59,3.59,0,0,1,5031.529-5721.451Zm23.623,16.923a1.967,1.967,0,0,1-1.939,1.626h-21.02v-3.289a.757.757,0,0,0-.757-.758.758.758,0,0,0-.758.758v3.289h-2.4a1.074,1.074,0,0,1-1.073-1.073v-4.393a9.114,9.114,0,0,1,6.325-8.692l.519.783a.189.189,0,0,1-.017.229,2.018,2.018,0,0,0-.708,1.974c.688,2.451,4.849,6.694,6.6,8.275a.755.755,0,0,0,1.021-.005c.59-.545,5.789-5.415,6.591-8.27a2,2,0,0,0-.708-1.974.187.187,0,0,1-.017-.228l.518-.784a9.1,9.1,0,0,1,4.71,3.509l-2.209,6.578a.759.759,0,0,0,.477.96.757.757,0,0,0,.959-.477l3.7-11.019a.026.026,0,0,1,.03-.016l2.321.657a.022.022,0,0,1,.017.027Zm3.833-16.229-.562.585a3.854,3.854,0,0,0-1.013,1.756l-1.638-.462a13.48,13.48,0,0,0,.7-2.271,1.147,1.147,0,0,1,.317-.651l1.374-1.287a.43.43,0,0,1,.6.005l.192.188A1.521,1.521,0,0,1,5058.986-5720.756Zm16.9-29.526a.264.264,0,0,1-.264.264h-34.351a.265.265,0,0,1-.265-.264v-.983a.265.265,0,0,1,.265-.264h34.351a.264.264,0,0,1,.264.264Z" transform="translate(-5025.688 5753.045)" fill="#fff"/>
          </g>
        </g>
      </g>
      <g id="Group_55542" data-name="Group 55542" transform="translate(432.657 162.773)">
        <g id="Group_55541" data-name="Group 55541">
          <path id="Path_101527" data-name="Path 101527" d="M5081.159-6108.041h-21.923a.861.861,0,0,0-.86.86.861.861,0,0,0,.86.861h21.923a.86.86,0,0,0,.86-.861A.86.86,0,0,0,5081.159-6108.041Z" transform="translate(-5041.506 6128.472)" fill="#fff"/>
          <path id="Path_101528" data-name="Path 101528" d="M5081.159-6104.255h-21.923a.86.86,0,0,0-.86.859.861.861,0,0,0,.86.86h21.923a.86.86,0,0,0,.86-.86A.859.859,0,0,0,5081.159-6104.255Z" transform="translate(-5041.506 6128.38)" fill="#fff"/>
          <path id="Path_101529" data-name="Path 101529" d="M5055.012-6115.865a.86.86,0,0,0,.859.861h13.2a1.72,1.72,0,0,0,1.719-1.719v-3.07a1.721,1.721,0,0,0-1.719-1.718h-20.026a1.721,1.721,0,0,0-1.719,1.718v3.07a1.721,1.721,0,0,0,1.719,1.719h2.8a.861.861,0,0,0,.86-.861.861.861,0,0,0-.86-.86l-2.8,0,0-3.068,20.024,0,0,3.068h-13.2a.86.86,0,0,0-.859.86Z" transform="translate(-5041.237 6128.8)" fill="#fff"/>
          <path id="Path_101530" data-name="Path 101530" d="M5086.825-6090.779a.861.861,0,0,0-.861.861v13.587a4.362,4.362,0,0,1-4.357,4.357h-34.444a4.363,4.363,0,0,1-4.358-4.357V-6122.9a4.363,4.363,0,0,1,4.358-4.357c27.721.023,26.188-.057,26.726.063v8.356a3.661,3.661,0,0,0,3.656,3.656h8.356a2.57,2.57,0,0,1,.062.557v7.357a.86.86,0,0,0,.861.859.86.86,0,0,0,.861-.859v-7.357a4.255,4.255,0,0,0-1.255-3.028l-10.07-10.07a4.255,4.255,0,0,0-3.028-1.255h-26.169a6.086,6.086,0,0,0-6.079,6.079v46.572a6.086,6.086,0,0,0,6.079,6.078h34.444a6.086,6.086,0,0,0,6.079-6.078v-13.587a.861.861,0,0,0-.861-.861Zm-2.077-26.128h-7.2a1.937,1.937,0,0,1-1.935-1.935v-7.2Z" transform="translate(-5041.085 6128.982)" fill="#fff"/>
          <path id="Path_101531" data-name="Path 101531" d="M5054.72-6107.458a1.6,1.6,0,0,0-1.6-1.6h-4.2a1.6,1.6,0,0,0-1.6,1.6v4.2a1.6,1.6,0,0,0,1.6,1.6h4.2a1.6,1.6,0,0,0,1.6-1.6Zm-1.721,4.076h-3.955v-3.954H5053Z" transform="translate(-5041.237 6128.497)" fill="#fff"/>
          <path id="Path_101532" data-name="Path 101532" d="M5054.72-6096.485a1.6,1.6,0,0,0-1.6-1.6h-4.2a1.6,1.6,0,0,0-1.6,1.6v4.2a1.6,1.6,0,0,0,1.6,1.6h4.2a1.6,1.6,0,0,0,1.6-1.6ZM5053-6092.41h-3.955v-3.954H5053Z" transform="translate(-5041.237 6128.23)" fill="#fff"/>
          <path id="Path_101533" data-name="Path 101533" d="M5053.122-6087.113h-4.2a1.6,1.6,0,0,0-1.6,1.6v4.2a1.6,1.6,0,0,0,1.6,1.6h4.2a1.6,1.6,0,0,0,1.6-1.6v-4.2A1.6,1.6,0,0,0,5053.122-6087.113Zm-.122,5.675h-3.955v-3.954H5053Z" transform="translate(-5041.237 6127.963)" fill="#fff"/>
          <path id="Path_101534" data-name="Path 101534" d="M5092.83-6103.618a3.924,3.924,0,0,0-5.546,0l-6.362,6.362h-21.686a.861.861,0,0,0-.86.86.86.86,0,0,0,.86.859H5079.2l-1.974,1.973h-17.991a.861.861,0,0,0-.86.861.861.861,0,0,0,.86.86h16.271l-5.291,5.291h-10.98a.861.861,0,0,0-.86.86.861.861,0,0,0,.86.86h9.259l-1.973,1.973h-7.287a.861.861,0,0,0-.86.86.861.861,0,0,0,.86.861h5.591a6.834,6.834,0,0,0-1.233,2.04l-1.814,4.706a1.414,1.414,0,0,0,.319,1.5,1.412,1.412,0,0,0,1.5.318l4.706-1.813a6.94,6.94,0,0,0,2.376-1.545l5.21-5.21h5.264a.86.86,0,0,0,.86-.861.86.86,0,0,0-.86-.86h-3.542l1.973-1.973h1.569a.86.86,0,0,0,.86-.86.86.86,0,0,0-.721-.848l11.532-11.532a3.925,3.925,0,0,0,0-5.546Zm-25.14,27.631-4.054,1.562,1.562-4.054a5.027,5.027,0,0,1,.208-.466l2.75,2.75q-.229.116-.466.208Zm1.864-1.243-3.113-3.113,16.934-16.935,3.114,3.113Zm18.151-18.15-3.114-3.114,1.42-1.419,3.113,3.113Zm3.907-3.909-1.272,1.272-3.114-3.113,1.273-1.273a2.2,2.2,0,0,1,3.113,0,2.2,2.2,0,0,1,0,3.114Z" transform="translate(-5041.506 6128.392)" fill="#fff"/>
        </g>
      </g>
      <g id="Group_55544" data-name="Group 55544" transform="translate(599.227 152.902)">
        <g id="Group_55543" data-name="Group 55543">
          <path id="Path_101535" data-name="Path 101535" d="M5282.63-6103.208a1.052,1.052,0,0,0-1.325-.68,1.052,1.052,0,0,0-.68,1.324,18.853,18.853,0,0,1,.9,5.8,18.966,18.966,0,0,1-10.091,16.747,1.84,1.84,0,0,0-.979,1.63v4.282l-4.043-3.436a1.857,1.857,0,0,0-1.436-.424,19.2,19.2,0,0,1-2.435.156,19.005,19.005,0,0,1-18.983-18.983,19.155,19.155,0,0,1,.268-3.191,21.151,21.151,0,0,0,9.666-13.5,18.877,18.877,0,0,1,9.048-2.289h.148a18.923,18.923,0,0,1,15.96,8.969,1.053,1.053,0,0,0,1.451.333,1.053,1.053,0,0,0,.333-1.451,21.023,21.023,0,0,0-17.729-9.958,21.005,21.005,0,0,0-8.816,1.845q.092-.976.094-1.977a20.945,20.945,0,0,0-6.233-14.969,20.944,20.944,0,0,0-14.854-6.12h-.165a21.072,21.072,0,0,0-16,7.576,1.053,1.053,0,0,0,.132,1.483,1.051,1.051,0,0,0,1.482-.131,18.965,18.965,0,0,1,14.4-6.821h.149a18.85,18.85,0,0,1,13.371,5.509,18.85,18.85,0,0,1,5.611,13.474,19,19,0,0,1-18.982,18.983,19.158,19.158,0,0,1-2.434-.156,1.859,1.859,0,0,0-1.437.425l-4.042,3.435v-4.282a1.841,1.841,0,0,0-.979-1.629,18.962,18.962,0,0,1-10.092-16.747,18.7,18.7,0,0,1,1.941-8.365,1.053,1.053,0,0,0-.479-1.409,1.052,1.052,0,0,0-1.41.479,20.778,20.778,0,0,0-2.157,9.3,21.065,21.065,0,0,0,11.069,18.529v4.683a1.831,1.831,0,0,0,1.073,1.678,1.87,1.87,0,0,0,.781.173,1.838,1.838,0,0,0,1.192-.442l4.379-3.724a21.087,21.087,0,0,0,2.6.16,20.959,20.959,0,0,0,8.651-1.857q-.092.984-.093,1.988a21.112,21.112,0,0,0,21.088,21.088,21.3,21.3,0,0,0,2.595-.159l4.379,3.722a1.834,1.834,0,0,0,1.191.443,1.871,1.871,0,0,0,.781-.173,1.831,1.831,0,0,0,1.072-1.677v-4.684a21.063,21.063,0,0,0,11.069-18.529,20.9,20.9,0,0,0-1-6.446Z" transform="translate(-5211.81 6139.1)" fill="#3c3c3b"/>
          <path id="Path_101536" data-name="Path 101536" d="M5231.641-6107.859a1.741,1.741,0,0,0,1.741,1.74,1.741,1.741,0,0,0,1.741-1.74,1.74,1.74,0,0,0-1.741-1.741A1.74,1.74,0,0,0,5231.641-6107.859Z" transform="translate(-5212.293 6138.381)" fill="#3c3c3b"/>
          <path id="Path_101537" data-name="Path 101537" d="M5235.875-6118.107a6.464,6.464,0,0,0,3.805-6.352,6.482,6.482,0,0,0-5.768-5.929,6.425,6.425,0,0,0-7.018,5.5,6.539,6.539,0,0,0-.062.9,1.052,1.052,0,0,0,1.052,1.053,1.053,1.053,0,0,0,1.053-1.053,4.382,4.382,0,0,1,.042-.6,4.323,4.323,0,0,1,4.727-3.7,4.356,4.356,0,0,1,3.875,3.986,4.352,4.352,0,0,1-2.561,4.276,4.7,4.7,0,0,0-2.808,4.27v2.03a1.052,1.052,0,0,0,1.053,1.052,1.053,1.053,0,0,0,1.053-1.052v-2.03a2.585,2.585,0,0,1,1.558-2.345Z" transform="translate(-5212.176 6138.888)" fill="#3c3c3b"/>
          <path id="Path_101538" data-name="Path 101538" d="M5262.027-6085.256a1.741,1.741,0,0,0,1.741,1.741,1.74,1.74,0,0,0,1.741-1.741,1.74,1.74,0,0,0-1.741-1.741A1.741,1.741,0,0,0,5262.027-6085.256Z" transform="translate(-5213.032 6137.831)" fill="#3c3c3b"/>
          <path id="Path_101539" data-name="Path 101539" d="M5266.261-6095.5a6.463,6.463,0,0,0,3.805-6.351,6.48,6.48,0,0,0-5.768-5.929,6.423,6.423,0,0,0-7.018,5.5,6.531,6.531,0,0,0-.063.9,1.052,1.052,0,0,0,1.053,1.052,1.052,1.052,0,0,0,1.053-1.052,4.426,4.426,0,0,1,.041-.6,4.324,4.324,0,0,1,4.729-3.7,4.353,4.353,0,0,1,3.873,3.985,4.351,4.351,0,0,1-2.561,4.277,4.692,4.692,0,0,0-2.807,4.269v2.03a1.053,1.053,0,0,0,1.053,1.053,1.053,1.053,0,0,0,1.053-1.053v-2.03a2.588,2.588,0,0,1,1.558-2.346Z" transform="translate(-5212.915 6138.337)" fill="#3c3c3b"/>
        </g>
      </g>
      <g id="Group_55546" data-name="Group 55546" transform="translate(407.406 385.933)">
        <g id="Group_55545" data-name="Group 55545">
          <path id="Path_101540" data-name="Path 101540" d="M5064.621-5875.211a.734.734,0,0,0-.924-.475.734.734,0,0,0-.474.924,13.129,13.129,0,0,1,.629,4.046,13.232,13.232,0,0,1-7.041,11.686,1.285,1.285,0,0,0-.683,1.138v2.988l-2.821-2.4a1.3,1.3,0,0,0-1-.3,13.368,13.368,0,0,1-1.7.109,13.261,13.261,0,0,1-13.247-13.246,13.37,13.37,0,0,1,.188-2.227,14.758,14.758,0,0,0,6.745-9.422,13.172,13.172,0,0,1,6.313-1.6h.1a13.207,13.207,0,0,1,11.137,6.258.734.734,0,0,0,1.012.233.733.733,0,0,0,.233-1.012,14.67,14.67,0,0,0-12.371-6.949,14.671,14.671,0,0,0-6.152,1.287q.065-.68.066-1.378a14.612,14.612,0,0,0-4.35-10.444,14.614,14.614,0,0,0-10.365-4.27h-.115a14.7,14.7,0,0,0-11.163,5.285.736.736,0,0,0,.091,1.035.734.734,0,0,0,1.035-.092,13.236,13.236,0,0,1,10.048-4.76h.1a13.156,13.156,0,0,1,9.33,3.844,13.152,13.152,0,0,1,3.915,9.4,13.261,13.261,0,0,1-13.246,13.246,13.282,13.282,0,0,1-1.7-.108,1.3,1.3,0,0,0-1,.3l-2.821,2.4v-2.988a1.284,1.284,0,0,0-.683-1.137,13.232,13.232,0,0,1-7.041-11.686,13.042,13.042,0,0,1,1.354-5.836.735.735,0,0,0-.335-.983.734.734,0,0,0-.983.334,14.514,14.514,0,0,0-1.505,6.488,14.7,14.7,0,0,0,7.724,12.929v3.269a1.278,1.278,0,0,0,.749,1.17,1.3,1.3,0,0,0,.545.121,1.282,1.282,0,0,0,.832-.309l3.056-2.6a14.667,14.667,0,0,0,1.81.112,14.639,14.639,0,0,0,6.038-1.3c-.043.458-.065.921-.065,1.387a14.731,14.731,0,0,0,14.715,14.714,14.9,14.9,0,0,0,1.81-.111l3.056,2.6a1.286,1.286,0,0,0,.832.309,1.3,1.3,0,0,0,.545-.121,1.278,1.278,0,0,0,.748-1.171v-3.268a14.7,14.7,0,0,0,7.725-12.929,14.61,14.61,0,0,0-.7-4.5Z" transform="translate(-5015.204 5900.255)" fill="#3c3c3b"/>
          <path id="Path_101541" data-name="Path 101541" d="M5029.041-5878.457a1.216,1.216,0,0,0,1.215,1.214,1.214,1.214,0,0,0,1.214-1.214,1.214,1.214,0,0,0-1.214-1.215A1.215,1.215,0,0,0,5029.041-5878.457Z" transform="translate(-5015.541 5899.754)" fill="#3c3c3b"/>
          <path id="Path_101542" data-name="Path 101542" d="M5032-5885.608a4.508,4.508,0,0,0,2.655-4.431,4.521,4.521,0,0,0-4.025-4.137,4.482,4.482,0,0,0-4.9,3.841,4.668,4.668,0,0,0-.042.624.735.735,0,0,0,.734.735.735.735,0,0,0,.734-.735,3.208,3.208,0,0,1,.029-.422,3.017,3.017,0,0,1,3.3-2.582,3.038,3.038,0,0,1,2.7,2.78,3.036,3.036,0,0,1-1.787,2.985,3.273,3.273,0,0,0-1.959,2.978v1.417a.734.734,0,0,0,.734.734.734.734,0,0,0,.735-.734v-1.417a1.805,1.805,0,0,1,1.086-1.637Z" transform="translate(-5015.459 5900.107)" fill="#3c3c3b"/>
          <path id="Path_101543" data-name="Path 101543" d="M5050.245-5862.685a1.214,1.214,0,0,0,1.214,1.214,1.215,1.215,0,0,0,1.215-1.214,1.215,1.215,0,0,0-1.215-1.215A1.214,1.214,0,0,0,5050.245-5862.685Z" transform="translate(-5016.057 5899.37)" fill="#3c3c3b"/>
          <path id="Path_101544" data-name="Path 101544" d="M5053.2-5869.836a4.511,4.511,0,0,0,2.655-4.431,4.522,4.522,0,0,0-4.025-4.138,4.482,4.482,0,0,0-4.9,3.842,4.512,4.512,0,0,0-.043.624.734.734,0,0,0,.733.734.734.734,0,0,0,.735-.734,3.021,3.021,0,0,1,.029-.422,3.017,3.017,0,0,1,3.3-2.582,3.038,3.038,0,0,1,2.7,2.78,3.036,3.036,0,0,1-1.787,2.984,3.276,3.276,0,0,0-1.959,2.979v1.416a.735.735,0,0,0,.735.735.734.734,0,0,0,.734-.735v-1.416a1.807,1.807,0,0,1,1.088-1.637Z" transform="translate(-5015.975 5899.724)" fill="#3c3c3b"/>
        </g>
      </g>
    </g>
  </g>
</svg>
