<svg xmlns="http://www.w3.org/2000/svg" xmlns:xlink="http://www.w3.org/1999/xlink" width="1228" height="744.604" viewBox="0 0 1228 744.604">
  <defs>
    <radialGradient id="radial-gradient" cx="0.5" cy="0.5" r="0.5" gradientTransform="translate(0)" gradientUnits="objectBoundingBox">
      <stop offset="0" stop-color="#c6c6c6"/>
      <stop offset="0.116" stop-color="#c5c5c5" stop-opacity="0.973"/>
      <stop offset="0.259" stop-color="#c3c3c3" stop-opacity="0.894"/>
      <stop offset="0.419" stop-color="#c1c1c1" stop-opacity="0.769"/>
      <stop offset="0.588" stop-color="#bdbdbd" stop-opacity="0.588"/>
      <stop offset="0.767" stop-color="#b9b9b9" stop-opacity="0.357"/>
      <stop offset="0.95" stop-color="#b3b3b3" stop-opacity="0.082"/>
      <stop offset="1" stop-color="#b2b2b2" stop-opacity="0"/>
    </radialGradient>
    <radialGradient id="radial-gradient-2" cx="0.5" cy="0.5" r="0.5" gradientTransform="translate(0)" gradientUnits="objectBoundingBox">
      <stop offset="0" stop-color="#8a2940"/>
      <stop offset="0.143" stop-color="#8c2941" stop-opacity="0.961"/>
      <stop offset="0.322" stop-color="#932b44" stop-opacity="0.851"/>
      <stop offset="0.519" stop-color="#a02f4a" stop-opacity="0.667"/>
      <stop offset="0.73" stop-color="#b03452" stop-opacity="0.412"/>
      <stop offset="0.949" stop-color="#c63b5d" stop-opacity="0.086"/>
      <stop offset="1" stop-color="#cc3d60" stop-opacity="0"/>
    </radialGradient>
    <radialGradient id="radial-gradient-3" cx="0.5" cy="0.5" r="0.5" gradientTransform="translate(0)" gradientUnits="objectBoundingBox">
      <stop offset="0" stop-color="#ad8929"/>
      <stop offset="0.125" stop-color="#af8a29" stop-opacity="0.969"/>
      <stop offset="0.281" stop-color="#b6902b" stop-opacity="0.878"/>
      <stop offset="0.454" stop-color="#c29a2e" stop-opacity="0.733"/>
      <stop offset="0.638" stop-color="#d3a731" stop-opacity="0.529"/>
      <stop offset="0.829" stop-color="#e8b736" stop-opacity="0.271"/>
      <stop offset="1" stop-color="#ffc93c" stop-opacity="0"/>
    </radialGradient>
    <radialGradient id="radial-gradient-4" cx="0.5" cy="0.5" r="0.5" gradientTransform="matrix(1, 0, 0, 1, 0, 0)" xlink:href="#radial-gradient-3"/>
    <radialGradient id="radial-gradient-5" cx="0.5" cy="0.5" r="0.5" gradientTransform="translate(0)" gradientUnits="objectBoundingBox">
      <stop offset="0" stop-color="#5e8c2f"/>
      <stop offset="0.142" stop-color="#5f8e2f" stop-opacity="0.961"/>
      <stop offset="0.319" stop-color="#639331" stop-opacity="0.851"/>
      <stop offset="0.515" stop-color="#699d34" stop-opacity="0.671"/>
      <stop offset="0.723" stop-color="#72aa38" stop-opacity="0.42"/>
      <stop offset="0.941" stop-color="#7dbb3e" stop-opacity="0.098"/>
      <stop offset="1" stop-color="#81c140" stop-opacity="0"/>
    </radialGradient>
    <radialGradient id="radial-gradient-6" cx="0.5" cy="0.5" r="0.5" xlink:href="#radial-gradient-5"/>
    <radialGradient id="radial-gradient-7" cx="0.5" cy="0.5" r="0.5" gradientTransform="translate(0)" gradientUnits="objectBoundingBox">
      <stop offset="0" stop-color="#6f9e95"/>
      <stop offset="0.132" stop-color="#70a097" stop-opacity="0.965"/>
      <stop offset="0.297" stop-color="#75a69d" stop-opacity="0.871"/>
      <stop offset="0.479" stop-color="#7cb0a7" stop-opacity="0.71"/>
      <stop offset="0.673" stop-color="#86bfb4" stop-opacity="0.486"/>
      <stop offset="0.875" stop-color="#93d2c6" stop-opacity="0.2"/>
      <stop offset="1" stop-color="#9ddfd3" stop-opacity="0"/>
    </radialGradient>
    <radialGradient id="radial-gradient-8" cx="0.5" cy="0.5" r="0.5" xlink:href="#radial-gradient-7"/>
    <radialGradient id="radial-gradient-9" cx="0.5" cy="0.5" r="0.5" xlink:href="#radial-gradient-2"/>
    <radialGradient id="radial-gradient-10" cx="0.5" cy="0.5" r="0.5" xlink:href="#radial-gradient-2"/>
    <linearGradient id="linear-gradient" x1="0.5" y1="1.036" x2="0.5" y2="0.039" gradientUnits="objectBoundingBox">
      <stop offset="0" stop-color="#dbf6e9"/>
      <stop offset="1" stop-color="#fff"/>
    </linearGradient>
    <linearGradient id="linear-gradient-2" x1="0.5" y1="-0.051" x2="0.5" y2="0.916" xlink:href="#linear-gradient"/>
  </defs>
  <g id="t2-i2" transform="translate(-1365.271 3575.484)">
    <rect id="Rectangle_5172" data-name="Rectangle 5172" width="1228" height="744.604" transform="translate(1365.271 -3575.484)" fill="none"/>
    <path id="Path_101720" data-name="Path 101720" d="M1989.868-3191.4c82.082,0,149.024-66.942,149.024-148.978,0-82.081-66.942-149.023-149.024-149.023-82.036,0-148.978,66.942-148.978,149.023,0,82.036,66.942,148.978,148.978,148.978Z" fill="#f4f4f4"/>
    <path id="Path_101721" data-name="Path 101721" d="M1973.034-3189.83c73.189,0,132.86-59.672,132.86-132.86,0-73.143-59.671-132.814-132.86-132.814-73.142,0-132.814,59.671-132.814,132.814,0,73.188,59.672,132.86,132.814,132.86Z" fill="url(#radial-gradient)"/>
    <g id="Group_55632" data-name="Group 55632">
      <g id="Group_55631" data-name="Group 55631">
        <g id="Group_55629" data-name="Group 55629">
          <text id="Preguntas:" transform="translate(1392.199 -3360.337) rotate(-0.293)" fill="#1d1d1b" font-size="18" font-family="Roboto-Bold, Roboto" font-weight="700"><tspan x="0" y="0">Preguntas:</tspan></text>
        </g>
        <g id="Group_55630" data-name="Group 55630">
          <text id="es_el_proceso_sistémico_que_realizan_los_estudiantes_para_establecer_los_objetivos_generales_y_específicos_que_ayudarán_a_dar_alcance_a_la_investigación." data-name="es el proceso sistémico que realizan los estudiantes para establecer los objetivos generales y específicos que ayudarán a dar alcance a la investigación." transform="translate(1392.171 -3355.419) rotate(-0.293)" fill="#1d1d1b" font-size="15" font-family="Roboto-Regular, Roboto"><tspan x="0" y="14">es el proceso sistémico que realizan </tspan><tspan x="0" y="32">los estudiantes para establecer los </tspan><tspan x="0" y="50">objetivos generales y específicos </tspan><tspan x="0" y="68">que ayudarán a dar alcance a la </tspan><tspan x="0" y="86">investigación.</tspan></text>
        </g>
      </g>
    </g>
    <g id="Group_55636" data-name="Group 55636">
      <g id="Group_55635" data-name="Group 55635">
        <g id="Group_55633" data-name="Group 55633">
          <text id="Hipótesis:" transform="translate(1433.137 -3195.951) rotate(-0.293)" fill="#1d1d1b" font-size="18" font-family="Roboto-Bold, Roboto" font-weight="700"><tspan x="0" y="0">Hipótesis:</tspan></text>
        </g>
        <g id="Group_55634" data-name="Group 55634">
          <text id="los_estudiantes_plantean_una_posible_explicación_al_fenómeno_que_están_investigando_esta_explicación_puede_ser_verdadera_o_falsa_y_en_desarrollo_de_la_investigación_se_devela_la_respuesta." data-name="los estudiantes plantean una posible explicación al fenómeno que están investigando, esta explicación puede ser verdadera o falsa y en desarrollo de la investigación se devela la respuesta." transform="translate(1433.101 -3191.027) rotate(-0.293)" fill="#1d1d1b" font-size="15" font-family="Roboto-Regular, Roboto"><tspan x="0" y="14">los estudiantes plantean una posible </tspan><tspan x="0" y="32">explicación al fenómeno que están </tspan><tspan x="0" y="50">investigando, esta explicación </tspan><tspan x="0" y="68">puede ser verdadera o falsa y en </tspan><tspan x="0" y="86">desarrollo de la investigación se </tspan><tspan x="0" y="104">devela la respuesta.</tspan></text>
        </g>
      </g>
    </g>
    <g id="Group_55640" data-name="Group 55640">
      <g id="Group_55639" data-name="Group 55639">
        <g id="Group_55637" data-name="Group 55637">
          <text id="Experimentación:" transform="translate(1593.017 -3026.064)" fill="#1d1d1b" font-size="18" font-family="Roboto-Bold, Roboto" font-weight="700"><tspan x="0" y="0">Experimentación:</tspan></text>
        </g>
        <g id="Group_55638" data-name="Group 55638">
          <text id="es_el_proceso_mediante_el_cual_los_estudiantes_reproducen_el_fenómeno_en_el_laboratorio_de_clase_o_aula_o_realizan_la_réplica_o_modelo_a_escala_para_poder_demostrarlo." data-name="es el proceso mediante el cual los estudiantes reproducen el fenómeno en el laboratorio de clase o aula o realizan la réplica o modelo a escala para poder demostrarlo." transform="translate(1593.016 -3021.172)" fill="#1d1d1b" font-size="15" font-family="Roboto-Regular, Roboto"><tspan x="0" y="14">es el proceso mediante el cual los </tspan><tspan x="0" y="32">estudiantes reproducen el fenómeno </tspan><tspan x="0" y="50">en el laboratorio de clase o aula o </tspan><tspan x="0" y="68">realizan la réplica o modelo a escala </tspan><tspan x="0" y="86">para poder demostrarlo.</tspan></text>
        </g>
      </g>
    </g>
    <g id="Group_55644" data-name="Group 55644">
      <g id="Group_55643" data-name="Group 55643">
        <g id="Group_55641" data-name="Group 55641">
          <text id="Conclusiones:" transform="translate(1924.693 -2950.598)" fill="#1d1d1b" font-size="18" font-family="Roboto-Bold, Roboto" font-weight="700"><tspan x="0" y="0">Conclusiones:</tspan></text>
        </g>
        <g id="Group_55642" data-name="Group 55642">
          <text id="los_estudiantes_piensan_de_manera_que_puedan_evidenciar_si_el_fenómeno_podría_ser_aplicado_en_otras_áreas_de_estudio_con_los_datos_obtenidos._" data-name="los estudiantes piensan de manera que puedan evidenciar si el fenómeno podría ser aplicado en otras áreas de estudio, con los datos obtenidos. " transform="translate(1924.692 -2945.706)" fill="#1d1d1b" font-size="15" font-family="Roboto-Regular, Roboto"><tspan x="0" y="14">los estudiantes piensan de manera </tspan><tspan x="0" y="32">que puedan evidenciar si el </tspan><tspan x="0" y="50">fenómeno podría ser aplicado en </tspan><tspan x="0" y="68">otras áreas de estudio, con los </tspan><tspan x="0" y="86">datos obtenidos. </tspan></text>
        </g>
      </g>
    </g>
    <g id="Group_55648" data-name="Group 55648">
      <g id="Group_55647" data-name="Group 55647">
        <g id="Group_55645" data-name="Group 55645">
          <text id="Documentación:" transform="translate(2205.86 -3069.824)" fill="#1d1d1b" font-size="18" font-family="Roboto-Bold, Roboto" font-weight="700"><tspan x="0" y="0">Documentación:</tspan></text>
        </g>
        <g id="Group_55646" data-name="Group 55646">
          <text id="los_equipos_de_estudiantes_investigadores_una_vez_concluye_su_proceso_de_investigación_realizan_una_generalización_y_comunicación_de_resultados_que_consiste_en_presentar_de_manera_formal_a_través_de_un_escrito_los_resultados_encontrados_a_la_comunidad_c" data-name="los equipos de estudiantes investigadores una vez concluye su proceso de investigación realizan una generalización y comunicación de resultados, que consiste en presentar de manera formal, a través de un escrito, los resultados encontrados a la comunidad c" transform="translate(2205.859 -3064.931)" fill="#1d1d1b" font-size="15" font-family="Roboto-Regular, Roboto"><tspan x="0" y="14">los equipos de estudiantes </tspan><tspan x="0" y="32">investigadores una vez concluye su </tspan><tspan x="0" y="50">proceso de investigación realizan </tspan><tspan x="0" y="68">una generalización y comunicación </tspan><tspan x="0" y="86">de resultados, que consiste en </tspan><tspan x="0" y="104">presentar de manera formal, a </tspan><tspan x="0" y="122">través de un escrito, los resultados </tspan><tspan x="0" y="140">encontrados a la comunidad </tspan><tspan x="0" y="158">científica.</tspan></text>
        </g>
      </g>
    </g>
    <g id="Group_55652" data-name="Group 55652">
      <g id="Group_55651" data-name="Group 55651">
        <g id="Group_55649" data-name="Group 55649">
          <text id="Descubrimientos:" transform="translate(2327.98 -3236.256)" fill="#1d1d1b" font-size="18" font-family="Roboto-Bold, Roboto" font-weight="700"><tspan x="0" y="0">Descubrimientos:</tspan></text>
        </g>
        <g id="Group_55650" data-name="Group 55650">
          <text id="con_la_investigación_realizada_surgen_nuevas_inquietudes_y_preguntas_alrededor_de_dudas_o_interrogantes_que_surgen_para_que_puedan_llevar_a_nuevas_investigaciones_y_descubrimientos." data-name="con la investigación realizada surgen nuevas inquietudes y preguntas alrededor de dudas o interrogantes que surgen para que puedan llevar a nuevas investigaciones y descubrimientos." transform="translate(2327.979 -3231.363)" fill="#1d1d1b" font-size="15" font-family="Roboto-Regular, Roboto"><tspan x="0" y="14">con la investigación realizada </tspan><tspan x="0" y="32">surgen nuevas inquietudes y </tspan><tspan x="0" y="50">preguntas alrededor de dudas o </tspan><tspan x="0" y="68">interrogantes que surgen para que </tspan><tspan x="0" y="86">puedan llevar a nuevas </tspan><tspan x="0" y="104">investigaciones y descubrimientos.</tspan></text>
        </g>
      </g>
    </g>
    <text id="Seguir_aprendiendo" data-name="Seguir aprendiendo" transform="translate(2315.767 -3491.813)" fill="#1d1d1b" font-size="18" font-family="Roboto-Bold, Roboto" font-weight="700"><tspan x="0" y="0">Seguir aprendiendo</tspan></text>
    <text id="Nuevas_preguntas" data-name="Nuevas preguntas" transform="translate(2355.159 -3360.299)" fill="#1d1d1b" font-size="18" font-family="Roboto-Bold, Roboto" font-weight="700"><tspan x="0" y="0">Nuevas preguntas</tspan></text>
    <g id="Group_55656" data-name="Group 55656">
      <g id="Group_55655" data-name="Group 55655">
        <g id="Group_55653" data-name="Group 55653">
          <text id="Observaciones:" transform="translate(1424.609 -3535.299)" fill="#1d1d1b" font-size="18" font-family="Roboto-Bold, Roboto" font-weight="700"><tspan x="0" y="0">Observaciones:</tspan></text>
        </g>
        <g id="Group_55654" data-name="Group 55654">
          <text id="es_la_acción_que_realizan_los_estudiantes_cuando_descubren_el_fenómeno_o_problema_que_existe_y_formulan_un_problema_para_iniciar_la_investigación_que_van_a_resolver" data-name="es la acción que realizan los estudiantes cuando descubren el fenómeno o problema que existe y formulan un problema para iniciar la investigación que van a resolver" transform="translate(1424.606 -3530.406)" fill="#1d1d1b" font-size="15" font-family="Roboto-Regular, Roboto"><tspan x="0" y="14">es la acción que realizan los </tspan><tspan x="0" y="32">estudiantes cuando descubren el </tspan><tspan x="0" y="50">fenómeno o problema que existe y </tspan><tspan x="0" y="68">formulan un problema para iniciar la </tspan><tspan x="0" y="86">investigación que van a resolver</tspan></text>
        </g>
      </g>
    </g>
    <g id="Group_55657" data-name="Group 55657">
      <path id="Path_101722" data-name="Path 101722" d="M1989.874-3154.258c-105.382,0-191.116-85.757-191.116-191.167a191.815,191.815,0,0,1,25.6-95.581,2.013,2.013,0,0,1,2.749-.739,2.012,2.012,0,0,1,.739,2.748,187.789,187.789,0,0,0-25.059,93.572c0,103.19,83.929,187.141,187.091,187.141,103.19,0,187.141-83.951,187.141-187.141A187.779,187.779,0,0,0,2151.956-3439a2.012,2.012,0,0,1,.739-2.748,2.013,2.013,0,0,1,2.749.739,191.817,191.817,0,0,1,25.6,95.581C2181.04-3240.015,2095.283-3154.258,1989.874-3154.258Z" fill="#c6c6c6"/>
    </g>
    <g id="Group_55658" data-name="Group 55658">
      <path id="Path_101723" data-name="Path 101723" d="M2153.853-3438.039a2.015,2.015,0,0,1-1.759-1.03,175.229,175.229,0,0,0-152.772-89.527,174,174,0,0,0-136.774,65.828,2.012,2.012,0,0,1-2.828.319,2.012,2.012,0,0,1-.319-2.828,179.756,179.756,0,0,1,62.28-49.644,180.183,180.183,0,0,1,77.641-17.7,179.26,179.26,0,0,1,156.285,91.586,2.013,2.013,0,0,1-.773,2.74A2.006,2.006,0,0,1,2153.853-3438.039Z" fill="#c6c6c6"/>
    </g>
    <g id="Group_55659" data-name="Group 55659">
      <path id="Path_101724" data-name="Path 101724" d="M1987.562-3191.144c-92.108,0-167.044-74.936-167.044-167.045a167.342,167.342,0,0,1,38.912-107.124,2.012,2.012,0,0,1,2.835-.253,2.011,2.011,0,0,1,.253,2.834,163.318,163.318,0,0,0-37.975,104.543c0,89.889,73.13,163.019,163.019,163.019,89.862,0,162.969-73.13,162.969-163.019a2.013,2.013,0,0,1,2.013-2.012,2.013,2.013,0,0,1,2.013,2.012C2154.557-3266.08,2079.643-3191.144,1987.562-3191.144Z" fill="#c6c6c6"/>
    </g>
    <g id="Group_55660" data-name="Group 55660">
      <path id="Path_101725" data-name="Path 101725" d="M2152.594-3354.166a2.012,2.012,0,0,1-2.012-2.013c0-81.77-66.548-148.3-148.346-148.3a2.012,2.012,0,0,1-2.012-2.012,2.013,2.013,0,0,1,2.012-2.013c84.018,0,152.371,68.33,152.371,152.32A2.012,2.012,0,0,1,2152.594-3354.166Z" fill="#c6c6c6"/>
    </g>
    <path id="Path_101726" data-name="Path 101726" d="M1826.1-3429.348A10.616,10.616,0,0,0,1836.7-3440a10.606,10.606,0,0,0-10.6-10.6,10.638,10.638,0,0,0-10.6,10.6,10.648,10.648,0,0,0,10.6,10.653Z" fill="#cc3d60" fill-rule="evenodd"/>
    <path id="Path_101727" data-name="Path 101727" d="M1826.1-3432.413a7.571,7.571,0,0,0,7.538-7.588,7.56,7.56,0,0,0-7.538-7.538,7.56,7.56,0,0,0-7.538,7.538,7.571,7.571,0,0,0,7.538,7.588Z" fill="#fefefe" fill-rule="evenodd"/>
    <path id="Path_101728" data-name="Path 101728" d="M1826.1-3436.132a3.871,3.871,0,0,0,3.87-3.869,3.861,3.861,0,0,0-3.87-3.82,3.861,3.861,0,0,0-3.869,3.82,3.871,3.871,0,0,0,3.869,3.869Z" fill="#cc3d60" fill-rule="evenodd"/>
    <path id="Path_101729" data-name="Path 101729" d="M1800.771-3334.771a10.648,10.648,0,0,0,10.6-10.654,10.638,10.638,0,0,0-10.6-10.6,10.606,10.606,0,0,0-10.6,10.6,10.617,10.617,0,0,0,10.6,10.654Z" fill="#ffc93c" fill-rule="evenodd"/>
    <path id="Path_101730" data-name="Path 101730" d="M1800.771-3337.887a7.528,7.528,0,0,0,7.538-7.538,7.528,7.528,0,0,0-7.538-7.538,7.528,7.528,0,0,0-7.538,7.538,7.528,7.528,0,0,0,7.538,7.538Z" fill="#fefefe" fill-rule="evenodd"/>
    <path id="Path_101731" data-name="Path 101731" d="M1800.771-3341.555a3.871,3.871,0,0,0,3.869-3.87,3.9,3.9,0,0,0-3.869-3.869,3.9,3.9,0,0,0-3.87,3.869,3.872,3.872,0,0,0,3.87,3.87Z" fill="#ffc93c" fill-rule="evenodd"/>
    <path id="Path_101732" data-name="Path 101732" d="M1826.651-3239.29a10.638,10.638,0,0,0,10.6-10.6,10.638,10.638,0,0,0-10.6-10.6,10.649,10.649,0,0,0-10.654,10.6,10.649,10.649,0,0,0,10.654,10.6Z" fill="#81c140" fill-rule="evenodd"/>
    <path id="Path_101733" data-name="Path 101733" d="M1826.651-3242.355a7.56,7.56,0,0,0,7.538-7.538,7.56,7.56,0,0,0-7.538-7.538,7.571,7.571,0,0,0-7.588,7.538,7.571,7.571,0,0,0,7.588,7.538Z" fill="#fefefe" fill-rule="evenodd"/>
    <path id="Path_101734" data-name="Path 101734" d="M1826.651-3246.023a3.861,3.861,0,0,0,3.819-3.87,3.86,3.86,0,0,0-3.819-3.869,3.87,3.87,0,0,0-3.869,3.869,3.871,3.871,0,0,0,3.869,3.87Z" fill="#81c140" fill-rule="evenodd"/>
    <path id="Path_101735" data-name="Path 101735" d="M1895.85-3170.644A10.659,10.659,0,0,0,1906.5-3181.3a10.649,10.649,0,0,0-10.654-10.6,10.638,10.638,0,0,0-10.6,10.6,10.648,10.648,0,0,0,10.6,10.653Z" fill="#9ddfd3" fill-rule="evenodd"/>
    <path id="Path_101736" data-name="Path 101736" d="M1895.85-3173.709a7.571,7.571,0,0,0,7.538-7.588,7.56,7.56,0,0,0-7.538-7.538,7.593,7.593,0,0,0-7.538,7.538,7.6,7.6,0,0,0,7.538,7.588Z" fill="#fefefe" fill-rule="evenodd"/>
    <path id="Path_101737" data-name="Path 101737" d="M1895.85-3177.428a3.839,3.839,0,0,0,3.87-3.869,3.872,3.872,0,0,0-3.87-3.87,3.9,3.9,0,0,0-3.869,3.87,3.87,3.87,0,0,0,3.869,3.869Z" fill="#9ddfd3" fill-rule="evenodd"/>
    <path id="Path_101738" data-name="Path 101738" d="M1989.874-3145.668a10.648,10.648,0,0,0,10.654-10.6,10.659,10.659,0,0,0-10.654-10.654,10.649,10.649,0,0,0-10.6,10.654,10.638,10.638,0,0,0,10.6,10.6Z" fill="#cc3d60" fill-rule="evenodd"/>
    <path id="Path_101739" data-name="Path 101739" d="M1989.874-3148.733a7.6,7.6,0,0,0,7.588-7.538,7.613,7.613,0,0,0-7.588-7.588,7.6,7.6,0,0,0-7.538,7.588,7.593,7.593,0,0,0,7.538,7.538Z" fill="#fefefe" fill-rule="evenodd"/>
    <path id="Path_101740" data-name="Path 101740" d="M1989.874-3152.4a3.872,3.872,0,0,0,3.87-3.87,3.84,3.84,0,0,0-3.87-3.87,3.829,3.829,0,0,0-3.819,3.87,3.86,3.86,0,0,0,3.819,3.87Z" fill="#cc3d60" fill-rule="evenodd"/>
    <path id="Path_101741" data-name="Path 101741" d="M2153.7-3429.348A10.648,10.648,0,0,0,2164.3-3440a10.638,10.638,0,0,0-10.6-10.6,10.649,10.649,0,0,0-10.654,10.6,10.659,10.659,0,0,0,10.654,10.653Z" fill="#cc3d60" fill-rule="evenodd"/>
    <path id="Path_101742" data-name="Path 101742" d="M2153.7-3432.413a7.571,7.571,0,0,0,7.538-7.588,7.56,7.56,0,0,0-7.538-7.538,7.56,7.56,0,0,0-7.538,7.538,7.571,7.571,0,0,0,7.538,7.588Z" fill="#fefefe" fill-rule="evenodd"/>
    <path id="Path_101743" data-name="Path 101743" d="M2153.7-3436.132a3.87,3.87,0,0,0,3.869-3.869,3.861,3.861,0,0,0-3.869-3.82,3.829,3.829,0,0,0-3.87,3.82,3.839,3.839,0,0,0,3.87,3.869Z" fill="#cc3d60" fill-rule="evenodd"/>
    <path id="Path_101744" data-name="Path 101744" d="M2179.028-3334.771a10.649,10.649,0,0,0,10.6-10.654,10.638,10.638,0,0,0-10.6-10.6,10.638,10.638,0,0,0-10.6,10.6,10.649,10.649,0,0,0,10.6,10.654Z" fill="#9ddfd3" fill-rule="evenodd"/>
    <path id="Path_101745" data-name="Path 101745" d="M2179.028-3337.887a7.528,7.528,0,0,0,7.538-7.538,7.528,7.528,0,0,0-7.538-7.538,7.528,7.528,0,0,0-7.538,7.538,7.528,7.528,0,0,0,7.538,7.538Z" fill="#fefefe" fill-rule="evenodd"/>
    <path id="Path_101746" data-name="Path 101746" d="M2179.028-3341.555a3.871,3.871,0,0,0,3.869-3.87,3.9,3.9,0,0,0-3.869-3.869,3.9,3.9,0,0,0-3.87,3.869,3.872,3.872,0,0,0,3.87,3.87Z" fill="#9ddfd3" fill-rule="evenodd"/>
    <path id="Path_101747" data-name="Path 101747" d="M2153.147-3239.29a10.648,10.648,0,0,0,10.654-10.6,10.649,10.649,0,0,0-10.654-10.6,10.638,10.638,0,0,0-10.6,10.6,10.638,10.638,0,0,0,10.6,10.6Z" fill="#81c140" fill-rule="evenodd"/>
    <path id="Path_101748" data-name="Path 101748" d="M2153.147-3242.355a7.571,7.571,0,0,0,7.588-7.538,7.571,7.571,0,0,0-7.588-7.538,7.56,7.56,0,0,0-7.538,7.538,7.56,7.56,0,0,0,7.538,7.538Z" fill="#fefefe" fill-rule="evenodd"/>
    <path id="Path_101749" data-name="Path 101749" d="M2153.147-3246.023a3.872,3.872,0,0,0,3.87-3.87,3.871,3.871,0,0,0-3.87-3.869,3.9,3.9,0,0,0-3.869,3.869,3.9,3.9,0,0,0,3.869,3.87Z" fill="#81c140" fill-rule="evenodd"/>
    <path id="Path_101750" data-name="Path 101750" d="M2083.948-3170.644a10.648,10.648,0,0,0,10.6-10.653,10.638,10.638,0,0,0-10.6-10.6,10.648,10.648,0,0,0-10.653,10.6,10.659,10.659,0,0,0,10.653,10.653Z" fill="#ffc93c" fill-rule="evenodd"/>
    <path id="Path_101751" data-name="Path 101751" d="M2083.948-3173.709a7.6,7.6,0,0,0,7.538-7.588,7.593,7.593,0,0,0-7.538-7.538,7.6,7.6,0,0,0-7.588,7.538,7.613,7.613,0,0,0,7.588,7.588Z" fill="#fefefe" fill-rule="evenodd"/>
    <path id="Path_101752" data-name="Path 101752" d="M2083.948-3177.428a3.871,3.871,0,0,0,3.87-3.869,3.9,3.9,0,0,0-3.87-3.87,3.871,3.871,0,0,0-3.869,3.87,3.838,3.838,0,0,0,3.869,3.869Z" fill="#ffc93c" fill-rule="evenodd"/>
    <g id="Group_55661" data-name="Group 55661">
      <path id="Path_101753" data-name="Path 101753" d="M1865.1-3399.193a2.014,2.014,0,0,1-.522-.069,2.013,2.013,0,0,1-1.423-2.465A144.206,144.206,0,0,1,2002.236-3508.5a2.013,2.013,0,0,1,2.013,2.013,2.012,2.012,0,0,1-2.013,2.012,140.174,140.174,0,0,0-135.2,103.789A2.013,2.013,0,0,1,1865.1-3399.193Z" fill="#c6c6c6"/>
    </g>
    <g id="Group_55664" data-name="Group 55664">
      <path id="Path_101754" data-name="Path 101754" d="M1745.794-3421.86a63.333,63.333,0,0,0,63.218-63.219,63.333,63.333,0,0,0-63.218-63.218,63.333,63.333,0,0,0-63.219,63.218,63.333,63.333,0,0,0,63.219,63.219Z" fill="none" stroke="#cc3d60" stroke-linecap="round" stroke-linejoin="round" stroke-width="1.25" stroke-dasharray="6 5"/>
      <path id="Path_101755" data-name="Path 101755" d="M1745.794-3428.192a57,57,0,0,0,56.886-56.887,56.962,56.962,0,0,0-56.886-56.886,56.962,56.962,0,0,0-56.887,56.886,57,57,0,0,0,56.887,56.887Z" fill="#cc3d60" fill-rule="evenodd"/>
      <path id="Path_101756" data-name="Path 101756" d="M1724.526-3421.86a47.49,47.49,0,0,0,47.4-47.346,47.535,47.535,0,0,0-47.4-47.4,47.49,47.49,0,0,0-47.347,47.4,47.444,47.444,0,0,0,47.347,47.346Z" fill-rule="evenodd" fill="url(#radial-gradient-2)"/>
      <path id="Path_101757" data-name="Path 101757" d="M1745.794-3440.454a44.761,44.761,0,0,0,44.675-44.625,44.8,44.8,0,0,0-44.675-44.675,44.76,44.76,0,0,0-44.625,44.675,44.717,44.717,0,0,0,44.625,44.625Z" fill="#f74a74" fill-rule="evenodd"/>
      <path id="Path_101758" data-name="Path 101758" d="M1745.794-3444.323a40.813,40.813,0,0,0,40.755-40.756,40.813,40.813,0,0,0-40.755-40.755,40.813,40.813,0,0,0-40.756,40.755,40.814,40.814,0,0,0,40.756,40.756Z" fill="#cc3d60" fill-rule="evenodd"/>
      <path id="Path_101759" data-name="Path 101759" d="M1745.794-3446.936a38.22,38.22,0,0,0,38.142-38.143,38.219,38.219,0,0,0-38.142-38.142,38.219,38.219,0,0,0-38.143,38.142,38.22,38.22,0,0,0,38.143,38.143Z" fill="#fefefe" fill-rule="evenodd"/>
      <g id="Group_55663" data-name="Group 55663">
        <g id="Group_55662" data-name="Group 55662">
          <path id="Path_101760" data-name="Path 101760" d="M1757.325-3492.757h-18.842a.74.74,0,0,0-.74.74.739.739,0,0,0,.74.739h18.842a.739.739,0,0,0,.74-.739A.74.74,0,0,0,1757.325-3492.757Z" fill="#cc3d60"/>
          <path id="Path_101761" data-name="Path 101761" d="M1757.325-3489.582h-18.842a.739.739,0,0,0-.74.739.74.74,0,0,0,.74.74h18.842a.74.74,0,0,0,.74-.74A.739.739,0,0,0,1757.325-3489.582Z" fill="#cc3d60"/>
          <path id="Path_101762" data-name="Path 101762" d="M1735.084-3499.2a.739.739,0,0,0,.739.739h11.343a1.479,1.479,0,0,0,1.477-1.477v-2.639a1.478,1.478,0,0,0-1.477-1.477h-17.213a1.479,1.479,0,0,0-1.477,1.477v2.639a1.479,1.479,0,0,0,1.477,1.477h2.411a.739.739,0,0,0,.739-.739.739.739,0,0,0-.739-.74l-2.409,0,0-2.638h17.212v2.637h-11.343a.739.739,0,0,0-.739.74Z" fill="#cc3d60"/>
          <path id="Path_101763" data-name="Path 101763" d="M1762.558-3477.482a.74.74,0,0,0-.74.74v11.678a3.749,3.749,0,0,1-3.745,3.745h-29.6a3.749,3.749,0,0,1-3.745-3.745v-40.029a3.749,3.749,0,0,1,3.745-3.745c23.828.02,22.509-.049,22.972.053v7.183a3.146,3.146,0,0,0,3.142,3.142h7.183a2.25,2.25,0,0,1,.053.479v6.323a.74.74,0,0,0,.74.74.739.739,0,0,0,.739-.74v-6.323a3.658,3.658,0,0,0-1.078-2.6l-8.655-8.655a3.658,3.658,0,0,0-2.6-1.078h-22.493a5.231,5.231,0,0,0-5.224,5.224v40.029a5.231,5.231,0,0,0,5.224,5.224h29.6a5.23,5.23,0,0,0,5.224-5.224v-11.678a.739.739,0,0,0-.739-.74Zm-1.785-22.457h-6.191a1.665,1.665,0,0,1-1.663-1.663v-6.191Z" fill="#cc3d60"/>
          <path id="Path_101764" data-name="Path 101764" d="M1734.833-3492.234a1.375,1.375,0,0,0-1.374-1.374h-3.608a1.376,1.376,0,0,0-1.375,1.374v3.608a1.376,1.376,0,0,0,1.375,1.374h3.608a1.375,1.375,0,0,0,1.374-1.374Zm-1.479,3.5h-3.4v-3.4h3.4Z" fill="#cc3d60"/>
          <path id="Path_101765" data-name="Path 101765" d="M1734.833-3483.033a1.375,1.375,0,0,0-1.374-1.374h-3.608a1.376,1.376,0,0,0-1.375,1.374v3.608a1.376,1.376,0,0,0,1.375,1.374h3.608a1.375,1.375,0,0,0,1.374-1.374Zm-1.479,3.5h-3.4v-3.4h3.4Z" fill="#cc3d60"/>
          <path id="Path_101766" data-name="Path 101766" d="M1733.459-3475.207h-3.608a1.377,1.377,0,0,0-1.375,1.375v3.608a1.377,1.377,0,0,0,1.375,1.374h3.608a1.376,1.376,0,0,0,1.374-1.374v-3.608A1.376,1.376,0,0,0,1733.459-3475.207Zm-.1,4.878h-3.4v-3.4h3.4Z" fill="#cc3d60"/>
          <path id="Path_101767" data-name="Path 101767" d="M1767.357-3489.025a3.375,3.375,0,0,0-4.767,0l-5.469,5.469h-18.638a.739.739,0,0,0-.74.74.739.739,0,0,0,.74.739h17.159l-1.695,1.7h-15.464a.739.739,0,0,0-.74.739.739.739,0,0,0,.74.739h13.985l-4.548,4.548h-9.437a.739.739,0,0,0-.74.739.74.74,0,0,0,.74.74h7.958l-1.7,1.7h-6.263a.739.739,0,0,0-.74.74.739.739,0,0,0,.74.739h4.8a5.868,5.868,0,0,0-1.06,1.754l-1.559,4.044a1.214,1.214,0,0,0,.274,1.293,1.211,1.211,0,0,0,1.293.274l4.045-1.558a5.963,5.963,0,0,0,2.043-1.329l4.478-4.478h4.523a.739.739,0,0,0,.74-.739.739.739,0,0,0-.74-.74h-3.044l1.695-1.7h1.349a.74.74,0,0,0,.74-.74.74.74,0,0,0-.62-.729l9.912-9.912a3.374,3.374,0,0,0,0-4.768Zm-21.608,23.75-3.484,1.342,1.343-3.484a4.337,4.337,0,0,1,.178-.4l2.364,2.365a4.382,4.382,0,0,1-.4.178Zm1.6-1.068-2.676-2.676,14.555-14.555,2.676,2.676Zm15.6-15.6-2.676-2.676,1.22-1.219,2.676,2.676Zm3.36-3.359-1.094,1.094-2.677-2.676,1.094-1.094a1.9,1.9,0,0,1,2.677,0,1.9,1.9,0,0,1,0,2.676Z" fill="#cc3d60"/>
        </g>
      </g>
    </g>
    <g id="Group_55667" data-name="Group 55667">
      <path id="Path_101768" data-name="Path 101768" d="M1708.707-3282.206a63.333,63.333,0,0,0,63.218-63.219,63.333,63.333,0,0,0-63.218-63.218,63.333,63.333,0,0,0-63.219,63.218,63.333,63.333,0,0,0,63.219,63.219Z" fill="none" stroke="#ffc93c" stroke-linecap="round" stroke-linejoin="round" stroke-width="1.25" stroke-dasharray="6 5"/>
      <path id="Path_101769" data-name="Path 101769" d="M1708.707-3288.538a57,57,0,0,0,56.886-56.887,56.962,56.962,0,0,0-56.886-56.886,56.963,56.963,0,0,0-56.887,56.886,57,57,0,0,0,56.887,56.887Z" fill="#ffc93c" fill-rule="evenodd"/>
      <path id="Path_101770" data-name="Path 101770" d="M1687.439-3282.206a47.49,47.49,0,0,0,47.4-47.346,47.535,47.535,0,0,0-47.4-47.4,47.49,47.49,0,0,0-47.347,47.4,47.444,47.444,0,0,0,47.347,47.346Z" fill-rule="evenodd" fill="url(#radial-gradient-3)"/>
      <path id="Path_101771" data-name="Path 101771" d="M1708.707-3300.8a44.761,44.761,0,0,0,44.675-44.626,44.8,44.8,0,0,0-44.675-44.675,44.761,44.761,0,0,0-44.625,44.675,44.718,44.718,0,0,0,44.625,44.626Z" fill="#ffd970" fill-rule="evenodd"/>
      <path id="Path_101772" data-name="Path 101772" d="M1708.707-3304.669a40.813,40.813,0,0,0,40.755-40.756,40.813,40.813,0,0,0-40.755-40.755,40.813,40.813,0,0,0-40.756,40.755,40.814,40.814,0,0,0,40.756,40.756Z" fill="#ffc93c" fill-rule="evenodd"/>
      <path id="Path_101773" data-name="Path 101773" d="M1708.707-3307.282a38.219,38.219,0,0,0,38.142-38.143,38.219,38.219,0,0,0-38.142-38.142,38.22,38.22,0,0,0-38.143,38.142,38.22,38.22,0,0,0,38.143,38.143Z" fill="#fefefe" fill-rule="evenodd"/>
      <g id="Group_55666" data-name="Group 55666">
        <g id="Group_55665" data-name="Group 55665">
          <path id="Path_101774" data-name="Path 101774" d="M1735.425-3343.748a.8.8,0,0,0-1.014-.52.806.806,0,0,0-.52,1.013,14.434,14.434,0,0,1,.691,4.439,14.516,14.516,0,0,1-7.724,12.818,1.409,1.409,0,0,0-.749,1.248v3.277l-3.094-2.63a1.422,1.422,0,0,0-1.1-.324,14.707,14.707,0,0,1-1.863.119,14.546,14.546,0,0,1-14.529-14.529,14.671,14.671,0,0,1,.205-2.443,16.189,16.189,0,0,0,7.4-10.335,14.448,14.448,0,0,1,6.925-1.752h.114a14.487,14.487,0,0,1,12.216,6.865.806.806,0,0,0,1.11.256.805.805,0,0,0,.256-1.111,16.09,16.09,0,0,0-13.569-7.621,16.067,16.067,0,0,0-6.748,1.411c.047-.5.072-1,.072-1.512a16.029,16.029,0,0,0-4.772-11.457,16.029,16.029,0,0,0-11.368-4.684h-.126a16.124,16.124,0,0,0-12.245,5.8.806.806,0,0,0,.1,1.135.806.806,0,0,0,1.135-.1,14.511,14.511,0,0,1,11.022-5.221h.114a14.427,14.427,0,0,1,10.233,4.216,14.428,14.428,0,0,1,4.3,10.313,14.545,14.545,0,0,1-14.529,14.529,14.726,14.726,0,0,1-1.863-.119,1.422,1.422,0,0,0-1.1.325l-3.094,2.629v-3.277a1.411,1.411,0,0,0-.749-1.248,14.516,14.516,0,0,1-7.724-12.818,14.317,14.317,0,0,1,1.486-6.4.807.807,0,0,0-.367-1.079.807.807,0,0,0-1.079.367,15.924,15.924,0,0,0-1.651,7.117,16.122,16.122,0,0,0,8.473,14.181v3.585a1.4,1.4,0,0,0,.821,1.284,1.422,1.422,0,0,0,.6.133,1.407,1.407,0,0,0,.912-.339l3.352-2.849a16.289,16.289,0,0,0,1.986.122,16.055,16.055,0,0,0,6.622-1.422q-.07.754-.071,1.522a16.159,16.159,0,0,0,16.14,16.141,16.5,16.5,0,0,0,1.986-.122l3.352,2.849a1.408,1.408,0,0,0,.912.339,1.43,1.43,0,0,0,.6-.133,1.4,1.4,0,0,0,.82-1.284v-3.585a16.123,16.123,0,0,0,8.473-14.182,16.031,16.031,0,0,0-.768-4.934Z" fill="#ffc93c"/>
          <path id="Path_101775" data-name="Path 101775" d="M1696.029-3347.858a1.332,1.332,0,0,0,1.332,1.333,1.332,1.332,0,0,0,1.332-1.333,1.331,1.331,0,0,0-1.332-1.332A1.331,1.331,0,0,0,1696.029-3347.858Z" fill="#ffc93c"/>
          <path id="Path_101776" data-name="Path 101776" d="M1699.359-3355.314a4.946,4.946,0,0,0,2.912-4.861,4.96,4.96,0,0,0-4.414-4.538,4.918,4.918,0,0,0-5.372,4.214,5.043,5.043,0,0,0-.047.685.805.805,0,0,0,.805.806.806.806,0,0,0,.806-.806,3.4,3.4,0,0,1,.032-.463,3.308,3.308,0,0,1,3.618-2.832,3.332,3.332,0,0,1,2.965,3.05,3.33,3.33,0,0,1-1.96,3.273,3.593,3.593,0,0,0-2.149,3.267v1.554a.806.806,0,0,0,.806.806.805.805,0,0,0,.805-.806v-1.554a1.984,1.984,0,0,1,1.193-1.795Z" fill="#ffc93c"/>
          <path id="Path_101777" data-name="Path 101777" d="M1718.72-3330.979a1.332,1.332,0,0,0,1.332,1.333,1.333,1.333,0,0,0,1.333-1.333,1.333,1.333,0,0,0-1.333-1.332A1.332,1.332,0,0,0,1718.72-3330.979Z" fill="#ffc93c"/>
          <path id="Path_101778" data-name="Path 101778" d="M1722.05-3338.434a4.948,4.948,0,0,0,2.913-4.861,4.959,4.959,0,0,0-4.415-4.538,4.917,4.917,0,0,0-5.372,4.213,5.054,5.054,0,0,0-.047.685.806.806,0,0,0,.806.806.805.805,0,0,0,.8-.806,3.405,3.405,0,0,1,.032-.463,3.309,3.309,0,0,1,3.618-2.832,3.332,3.332,0,0,1,2.965,3.05,3.331,3.331,0,0,1-1.96,3.274,3.592,3.592,0,0,0-2.148,3.267v1.554a.8.8,0,0,0,.805.8.805.805,0,0,0,.806-.8v-1.554a1.979,1.979,0,0,1,1.192-1.8Z" fill="#ffc93c"/>
        </g>
      </g>
    </g>
    <g id="Group_55670" data-name="Group 55670">
      <path id="Path_101779" data-name="Path 101779" d="M2129.98-3038.326a63.334,63.334,0,0,0,63.219-63.219,63.333,63.333,0,0,0-63.219-63.219,63.333,63.333,0,0,0-63.218,63.219,63.334,63.334,0,0,0,63.218,63.219Z" fill="none" stroke="#ffc93c" stroke-linecap="round" stroke-linejoin="round" stroke-width="1.25" stroke-dasharray="6 5"/>
      <path id="Path_101780" data-name="Path 101780" d="M2129.98-3044.658a57,57,0,0,0,56.887-56.887,56.964,56.964,0,0,0-56.887-56.887,56.963,56.963,0,0,0-56.886,56.887,57,57,0,0,0,56.886,56.887Z" fill="#ffc93c" fill-rule="evenodd"/>
      <path id="Path_101781" data-name="Path 101781" d="M2108.713-3038.326a47.49,47.49,0,0,0,47.4-47.347,47.535,47.535,0,0,0-47.4-47.4,47.49,47.49,0,0,0-47.347,47.4,47.445,47.445,0,0,0,47.347,47.347Z" fill-rule="evenodd" fill="url(#radial-gradient-4)"/>
      <path id="Path_101782" data-name="Path 101782" d="M2129.98-3056.92a44.761,44.761,0,0,0,44.676-44.625,44.8,44.8,0,0,0-44.676-44.675,44.76,44.76,0,0,0-44.625,44.675,44.717,44.717,0,0,0,44.625,44.625Z" fill="#ffd970" fill-rule="evenodd"/>
      <path id="Path_101783" data-name="Path 101783" d="M2129.98-3060.79a40.813,40.813,0,0,0,40.756-40.755,40.814,40.814,0,0,0-40.756-40.756,40.814,40.814,0,0,0-40.755,40.756,40.813,40.813,0,0,0,40.755,40.755Z" fill="#ffc93c" fill-rule="evenodd"/>
      <path id="Path_101784" data-name="Path 101784" d="M2129.98-3063.4a38.219,38.219,0,0,0,38.143-38.142,38.219,38.219,0,0,0-38.143-38.142,38.218,38.218,0,0,0-38.142,38.142,38.218,38.218,0,0,0,38.142,38.142Z" fill="#fefefe" fill-rule="evenodd"/>
      <g id="Group_55669" data-name="Group 55669">
        <g id="Group_55668" data-name="Group 55668">
          <path id="Path_101785" data-name="Path 101785" d="M2147.511-3117.061a59.51,59.51,0,0,0-14.47.69.72.72,0,0,0-.576.84.72.72,0,0,0,.707.588,57.5,57.5,0,0,1,14.249-.68.719.719,0,0,0,.764-.674A.721.721,0,0,0,2147.511-3117.061Z" fill="#ffc93c"/>
          <path id="Path_101786" data-name="Path 101786" d="M2147.511-3111.75a59.51,59.51,0,0,0-14.47.69.72.72,0,0,0-.576.84.72.72,0,0,0,.707.588,57.486,57.486,0,0,1,14.249-.68.719.719,0,0,0,.764-.674.721.721,0,0,0-.674-.764Z" fill="#ffc93c"/>
          <path id="Path_101787" data-name="Path 101787" d="M2132.465-3099.6a.72.72,0,0,0,.707.589c.274,0,1.763-.388,5.055-.644a.719.719,0,0,0,.662-.774.72.72,0,0,0-.773-.662,48.448,48.448,0,0,0-5.075.652.72.72,0,0,0-.576.839Z" fill="#ffc93c"/>
          <path id="Path_101788" data-name="Path 101788" d="M2115.8-3115.755h.013a54.6,54.6,0,0,1,10.839.8.751.751,0,0,0,.133.012.72.72,0,0,0,.707-.588.72.72,0,0,0-.576-.84,56.113,56.113,0,0,0-11.128-.824.721.721,0,0,0-.708.733A.72.72,0,0,0,2115.8-3115.755Z" fill="#ffc93c"/>
          <path id="Path_101789" data-name="Path 101789" d="M2112.539-3110.312a58.062,58.062,0,0,1,14.117.668.72.72,0,0,0,.84-.576.72.72,0,0,0-.576-.84,59.513,59.513,0,0,0-14.47-.69.721.721,0,0,0-.674.764.721.721,0,0,0,.763.674Z" fill="#ffc93c"/>
          <path id="Path_101790" data-name="Path 101790" d="M2112.539-3105a58.065,58.065,0,0,1,14.117.668.719.719,0,0,0,.84-.576.72.72,0,0,0-.576-.84,59.526,59.526,0,0,0-14.47-.689.719.719,0,0,0-.674.763.72.72,0,0,0,.763.674Z" fill="#ffc93c"/>
          <path id="Path_101791" data-name="Path 101791" d="M2112.539-3099.69a68.854,68.854,0,0,1,7.068-.088,49.81,49.81,0,0,1,7.049.757.721.721,0,0,0,.84-.577.72.72,0,0,0-.576-.839,51.357,51.357,0,0,0-7.254-.78,70.353,70.353,0,0,0-7.216.09.72.72,0,0,0-.674.763.72.72,0,0,0,.763.674Z" fill="#ffc93c"/>
          <path id="Path_101792" data-name="Path 101792" d="M2151.487-3122.225v-.842a2.252,2.252,0,0,0-2.045-2.23c-10.809-.929-17.413.691-19.179,1.21a1.006,1.006,0,0,1-.565,0c-1.767-.519-8.37-2.139-19.179-1.21a2.252,2.252,0,0,0-2.045,2.23v.842a4.017,4.017,0,0,0-3.07,4.028v24.993c0,2.7,2.082,4.444,5.3,4.444.579,0,9.406-.962,16.785.8a10.663,10.663,0,0,0,4.524.1,7.279,7.279,0,0,0,.572,2.37c1.475,3.5,1.412,3.318,1.5,3.574a1.754,1.754,0,0,0-.987,1.574v1.082a1.755,1.755,0,0,0,1.753,1.753h10.777a1.754,1.754,0,0,0,1.753-1.753v-1.082a1.751,1.751,0,0,0-.829-1.486,5.867,5.867,0,0,1,.586-.963,11.09,11.09,0,0,0,2.179-5.966c3.181-.026,5.233-1.764,5.233-4.443V-3118.2a4.016,4.016,0,0,0-3.07-4.028Zm-19.49,32.9a9.29,9.29,0,0,1-4.168-.03c-7.573-1.809-16.628-.84-17.12-.84-.906,0-3.865-.217-3.865-3V-3118.2a2.5,2.5,0,0,1,1.63-2.494v4.924a.719.719,0,0,0,.72.72.719.719,0,0,0,.72-.72v-7.3a.8.8,0,0,1,.728-.8c10.5-.9,16.868.637,18.618,1.147v30.231a6.262,6.262,0,0,1-.718-.127,57.391,57.391,0,0,0-17.765-.927.8.8,0,0,1-.863-.795V-3112.4a.72.72,0,0,0-.72-.72.719.719,0,0,0-.72.72v18.068a2.24,2.24,0,0,0,2.422,2.231,55.872,55.872,0,0,1,17.311.892,7.765,7.765,0,0,0,3.79-.057v1.937Zm13.951,10.066a.314.314,0,0,1-.313.313h-10.777a.314.314,0,0,1-.313-.313v-1.082a.313.313,0,0,1,.313-.312h10.777a.313.313,0,0,1,.313.312Zm1.957-10.137a9.636,9.636,0,0,1-1.913,5.743,7.306,7.306,0,0,0-.892,1.56h-9.553c-.17-.577-.225-.6-1.632-3.96a5.861,5.861,0,0,1-.478-2.324v-5.45a.958.958,0,0,1,.9-.969.931.931,0,0,1,.966.93.72.72,0,0,0,.72.72.72.72,0,0,0,.72-.72v-.948a.93.93,0,0,1,.929-.936c.74.015.932.369.932,1.719a.72.72,0,0,0,.72.72.72.72,0,0,0,.72-.72v-1.59a.96.96,0,0,1,.9-.97.929.929,0,0,1,.965.93.72.72,0,0,0,.72.72.72.72,0,0,0,.72-.72v-9.559a.932.932,0,0,1,.931-.931.932.932,0,0,1,.931.931v11.614a.719.719,0,0,0,.413.651.72.72,0,0,0,.766-.1.939.939,0,0,1,1.523.757v2.9Zm5.212-3.8c0,2.7-2.771,2.987-3.772,3v-1.9a2.235,2.235,0,0,0,2.142-2.234v-6.489a.72.72,0,0,0-.72-.72.719.719,0,0,0-.72.72v6.489a.8.8,0,0,1-.863.8l-.186-.015a2.359,2.359,0,0,0-2.355-1.136v-10.357c.256.013.516.028.778.044a.718.718,0,0,0,.764-.674.719.719,0,0,0-.674-.763c-.423-.027-.837-.049-1.245-.067a2.37,2.37,0,0,0-1.994-1.091,2.371,2.371,0,0,0-1.945,1.017,53.779,53.779,0,0,0-9.286.831.719.719,0,0,0-.576.839.72.72,0,0,0,.707.589,52.742,52.742,0,0,1,8.729-.813v7.285a2.37,2.37,0,0,0-1.016-.187,2.354,2.354,0,0,0-1.949,1.165,2.452,2.452,0,0,0-1.239-.324,2.346,2.346,0,0,0-2.129,1.277,2.352,2.352,0,0,0-1.286-.323,2.382,2.382,0,0,0-2.285,2.409v1.088c-.2.043-.391.087-.578.132a6.038,6.038,0,0,1-.719.127v-30.231c1.75-.51,8.122-2.05,18.619-1.147a.8.8,0,0,1,.728.8v18.879a.72.72,0,0,0,.72.72.721.721,0,0,0,.72-.72v-16.5a2.5,2.5,0,0,1,1.63,2.494Z" fill="#ffc93c"/>
        </g>
      </g>
    </g>
    <g id="Group_55673" data-name="Group 55673">
      <path id="Path_101793" data-name="Path 101793" d="M1746.9-3140.642a63.333,63.333,0,0,0,63.219-63.219,63.333,63.333,0,0,0-63.219-63.219,63.334,63.334,0,0,0-63.219,63.219,63.334,63.334,0,0,0,63.219,63.219Z" fill="none" stroke="#81c140" stroke-linecap="round" stroke-linejoin="round" stroke-width="1.25" stroke-dasharray="6 5"/>
      <path id="Path_101794" data-name="Path 101794" d="M1746.9-3146.974a57,57,0,0,0,56.887-56.887,56.964,56.964,0,0,0-56.887-56.887,56.964,56.964,0,0,0-56.887,56.887,57,57,0,0,0,56.887,56.887Z" fill="#81c140" fill-rule="evenodd"/>
      <path id="Path_101795" data-name="Path 101795" d="M1725.631-3140.642a47.49,47.49,0,0,0,47.4-47.347,47.535,47.535,0,0,0-47.4-47.4,47.49,47.49,0,0,0-47.346,47.4,47.444,47.444,0,0,0,47.346,47.347Z" fill-rule="evenodd" fill="url(#radial-gradient-5)"/>
      <path id="Path_101796" data-name="Path 101796" d="M1746.9-3159.236a44.76,44.76,0,0,0,44.675-44.625,44.8,44.8,0,0,0-44.675-44.675,44.76,44.76,0,0,0-44.625,44.675,44.717,44.717,0,0,0,44.625,44.625Z" fill="#97e34b" fill-rule="evenodd"/>
      <path id="Path_101797" data-name="Path 101797" d="M1746.9-3163.106a40.814,40.814,0,0,0,40.756-40.755,40.814,40.814,0,0,0-40.756-40.755,40.813,40.813,0,0,0-40.755,40.755,40.813,40.813,0,0,0,40.755,40.755Z" fill="#81c140" fill-rule="evenodd"/>
      <path id="Path_101798" data-name="Path 101798" d="M1746.9-3165.719a38.218,38.218,0,0,0,38.142-38.142A38.218,38.218,0,0,0,1746.9-3242a38.218,38.218,0,0,0-38.142,38.142,38.218,38.218,0,0,0,38.142,38.142Z" fill="#fefefe" fill-rule="evenodd"/>
      <g id="Group_55672" data-name="Group 55672">
        <g id="Group_55671" data-name="Group 55671">
          <path id="Path_101799" data-name="Path 101799" d="M1731.862-3211.614a.791.791,0,0,0,.791.791h28.492a.791.791,0,0,0,.791-.791.791.791,0,0,0-.791-.791h-28.492A.791.791,0,0,0,1731.862-3211.614Z" fill="#81c140"/>
          <path id="Path_101800" data-name="Path 101800" d="M1732.653-3205.522h28.492a.791.791,0,0,0,.791-.791.791.791,0,0,0-.791-.791h-28.492a.791.791,0,0,0-.791.791A.791.791,0,0,0,1732.653-3205.522Z" fill="#81c140"/>
          <path id="Path_101801" data-name="Path 101801" d="M1732.653-3200.221h28.492a.791.791,0,0,0,.791-.791.791.791,0,0,0-.791-.791h-28.492a.791.791,0,0,0-.791.791A.791.791,0,0,0,1732.653-3200.221Z" fill="#81c140"/>
          <path id="Path_101802" data-name="Path 101802" d="M1732.653-3194.921h9.5a.791.791,0,0,0,.791-.791.791.791,0,0,0-.791-.791h-9.5a.791.791,0,0,0-.791.791A.791.791,0,0,0,1732.653-3194.921Z" fill="#81c140"/>
          <path id="Path_101803" data-name="Path 101803" d="M1732.653-3189.62h9.5a.791.791,0,0,0,.791-.791.791.791,0,0,0-.791-.791h-9.5a.791.791,0,0,0-.791.791A.791.791,0,0,0,1732.653-3189.62Z" fill="#81c140"/>
          <path id="Path_101804" data-name="Path 101804" d="M1761.145-3221.651a.792.792,0,0,0,.791-.791.791.791,0,0,0-.791-.791h-15.453a.791.791,0,0,0-.791.791.792.792,0,0,0,.791.791Z" fill="#81c140"/>
          <path id="Path_101805" data-name="Path 101805" d="M1754.436-3194.391l-.009-.022a.952.952,0,0,0-.884-.592h0a.954.954,0,0,0-.885.594l-.007.018-2.746,7.211a.79.79,0,0,0,.457,1.021.792.792,0,0,0,1.021-.458l.49-1.286h3.321l.485,1.284a.79.79,0,0,0,1.019.461.79.79,0,0,0,.46-1.019Zm-1.962,4.9,1.066-2.8,1.056,2.8Z" fill="#81c140"/>
          <path id="Path_101806" data-name="Path 101806" d="M1767.53-3189.352a.791.791,0,0,0-.791.791v6.108a4.011,4.011,0,0,1-4.007,4.007h-31.666a4.012,4.012,0,0,1-4.007-4.007v-24.961a.791.791,0,0,0-.79-.791.791.791,0,0,0-.791.791v24.961a5.594,5.594,0,0,0,5.588,5.589h31.666a5.6,5.6,0,0,0,5.589-5.589v-6.108a.791.791,0,0,0-.791-.791Z" fill="#81c140"/>
          <path id="Path_101807" data-name="Path 101807" d="M1762.732-3230.858h-22.417a6.119,6.119,0,0,0-4.355,1.8l-8.679,8.679a6.119,6.119,0,0,0-1.8,4.355v4.919a.791.791,0,0,0,.791.791.792.792,0,0,0,.791-.791v-4.919a4.613,4.613,0,0,1,.228-1.433h8.727a2.871,2.871,0,0,0,2.868-2.868v-8.726a4.579,4.579,0,0,1,1.432-.229h22.417a4.011,4.011,0,0,1,4.007,4.007v33.008a.791.791,0,0,0,.791.791.791.791,0,0,0,.791-.791v-33.008a5.6,5.6,0,0,0-5.589-5.589Zm-25.431,10.537a1.287,1.287,0,0,1-1.286,1.286h-7.821c.066-.075.134-.15.206-.221,9.217-9.211,8.655-8.67,8.9-8.886Z" fill="#81c140"/>
          <path id="Path_101808" data-name="Path 101808" d="M1753.53-3198.478a8.416,8.416,0,0,0-8.406,8.406,8.416,8.416,0,0,0,8.406,8.406,8.416,8.416,0,0,0,8.406-8.406A8.416,8.416,0,0,0,1753.53-3198.478Zm0,15.23a6.831,6.831,0,0,1-6.824-6.824,6.831,6.831,0,0,1,6.824-6.824,6.831,6.831,0,0,1,6.824,6.824A6.831,6.831,0,0,1,1753.53-3183.248Z" fill="#81c140"/>
        </g>
      </g>
    </g>
    <g id="Group_55677" data-name="Group 55677">
      <path id="Path_101809" data-name="Path 101809" d="M2232.9-3140.642a63.333,63.333,0,0,0,63.219-63.219,63.333,63.333,0,0,0-63.219-63.219,63.334,63.334,0,0,0-63.219,63.219,63.334,63.334,0,0,0,63.219,63.219Z" fill="none" stroke="#81c140" stroke-linecap="round" stroke-linejoin="round" stroke-width="1.25" stroke-dasharray="6 5"/>
      <path id="Path_101810" data-name="Path 101810" d="M2232.9-3146.974a57,57,0,0,0,56.887-56.887,56.964,56.964,0,0,0-56.887-56.887,56.964,56.964,0,0,0-56.887,56.887,57,57,0,0,0,56.887,56.887Z" fill="#81c140" fill-rule="evenodd"/>
      <path id="Path_101811" data-name="Path 101811" d="M2211.631-3140.642a47.49,47.49,0,0,0,47.4-47.347,47.535,47.535,0,0,0-47.4-47.4,47.49,47.49,0,0,0-47.346,47.4,47.445,47.445,0,0,0,47.346,47.347Z" fill-rule="evenodd" fill="url(#radial-gradient-6)"/>
      <path id="Path_101812" data-name="Path 101812" d="M2232.9-3159.236a44.76,44.76,0,0,0,44.675-44.625,44.8,44.8,0,0,0-44.675-44.675,44.76,44.76,0,0,0-44.625,44.675,44.717,44.717,0,0,0,44.625,44.625Z" fill="#97e34b" fill-rule="evenodd"/>
      <path id="Path_101813" data-name="Path 101813" d="M2232.9-3163.106a40.814,40.814,0,0,0,40.756-40.755,40.814,40.814,0,0,0-40.756-40.755,40.813,40.813,0,0,0-40.755,40.755,40.813,40.813,0,0,0,40.755,40.755Z" fill="#81c140" fill-rule="evenodd"/>
      <path id="Path_101814" data-name="Path 101814" d="M2232.9-3165.719a38.218,38.218,0,0,0,38.142-38.142A38.218,38.218,0,0,0,2232.9-3242a38.218,38.218,0,0,0-38.142,38.142,38.218,38.218,0,0,0,38.142,38.142Z" fill="#fefefe" fill-rule="evenodd"/>
      <g id="Group_55676" data-name="Group 55676">
        <g id="Group_55675" data-name="Group 55675">
          <g id="Group_55674" data-name="Group 55674">
            <path id="Path_101815" data-name="Path 101815" d="M2237.834-3218.5h11.5a.662.662,0,0,0,.661-.662.661.661,0,0,0-.661-.661h-11.5a.661.661,0,0,0-.661.661A.662.662,0,0,0,2237.834-3218.5Z" fill="#81c140"/>
            <path id="Path_101816" data-name="Path 101816" d="M2237.834-3214.93h11.5a.661.661,0,0,0,.661-.661.661.661,0,0,0-.661-.661h-11.5a.661.661,0,0,0-.661.661A.661.661,0,0,0,2237.834-3214.93Z" fill="#81c140"/>
            <path id="Path_101817" data-name="Path 101817" d="M2237.834-3211.362h4a.662.662,0,0,0,.662-.662.662.662,0,0,0-.662-.661h-4a.661.661,0,0,0-.661.661A.661.661,0,0,0,2237.834-3211.362Z" fill="#81c140"/>
            <path id="Path_101818" data-name="Path 101818" d="M2253.918-3226.411h-29.99a1.555,1.555,0,0,0-1.553,1.554v.857a1.555,1.555,0,0,0,1.553,1.554h.183v4a.661.661,0,0,0,.661.661.661.661,0,0,0,.662-.661v-4h26.979v15.92a.318.318,0,0,1-.318.318h-10.178l1.338-3.532a.661.661,0,0,0-.385-.852.66.66,0,0,0-.852.384l-1.515,4h-6.48a.661.661,0,0,0-.661.661.661.661,0,0,0,.661.662H2240l-1.215,3.211a1.687,1.687,0,0,0-1.012.454l-1.208,1.131-.016.015a2.312,2.312,0,0,0-.659,1.333,16.643,16.643,0,0,1-.719,2.232,1.342,1.342,0,0,0-.544.7l-.794,2.365a9.223,9.223,0,0,0-3.982-2.735,4.457,4.457,0,0,0,2.267-2.013,4.5,4.5,0,0,0,.156-4.072l-.023-.049c-.946-2.039-.574-3.782-.66-5.472a8.358,8.358,0,0,0-.8-3.578h2.7a1.486,1.486,0,0,0,1.484-1.484v-5.49a1.486,1.486,0,0,0-1.484-1.484h-3.947a1.486,1.486,0,0,0-1.484,1.484v3.708a8.349,8.349,0,0,0-4.863-1.555,8.409,8.409,0,0,0-8.4,8.4v2.414a7.476,7.476,0,0,1-.681,3.105,4.5,4.5,0,0,0,.155,4.074,4.464,4.464,0,0,0,2.27,2.014,9.278,9.278,0,0,0-6.212,8.771v3.835a2.263,2.263,0,0,0,2.26,2.26h21.772a3.036,3.036,0,0,0,3-2.512l1.9-10.751a1.348,1.348,0,0,0-.06-.691l.071-.4a2.059,2.059,0,0,1,.577-1.106l.008-.008.007-.007.5-.517a2.674,2.674,0,0,0-.306-3.96l1.371-3.62h10.678a1.642,1.642,0,0,0,1.64-1.641v-15.92h.183a1.556,1.556,0,0,0,1.554-1.554v-.857a1.555,1.555,0,0,0-1.554-1.554Zm-22.865,24.654.019.042a3.186,3.186,0,0,1-.111,2.887,3.136,3.136,0,0,1-2.314,1.611l-2.329-1.161v-1.337a6.013,6.013,0,0,0,1.064-.835,5.947,5.947,0,0,0,1.449-2.295,2.657,2.657,0,0,0,1.686-.455A8.312,8.312,0,0,0,2231.053-3201.757Zm-3.261,8.527c.237.293.372.341.331.484-.3,1.086-1.708,2.812-3.067,4.281a26.7,26.7,0,0,0,1.383-3.935,10.483,10.483,0,0,0,.208-4.336l1.44.718a.155.155,0,0,1,.085.1.16.16,0,0,1,.006.055v.008a.162.162,0,0,1-.026.069l-.49.741a1.487,1.487,0,0,0,.131,1.811Zm-9.065-1.812-.49-.74a.161.161,0,0,1-.026-.069v-.01a.143.143,0,0,1,.005-.053.155.155,0,0,1,.049-.081l0,0a.251.251,0,0,1,.032-.021l1.44-.717a10.477,10.477,0,0,0,.208,4.335,26.671,26.671,0,0,0,1.383,3.936c-1.359-1.469-2.762-3.195-3.067-4.281-.04-.143.1-.193.331-.485a1.486,1.486,0,0,0,.131-1.811Zm2.6-2.719a2.743,2.743,0,0,0,.061-.589v-.76a5.981,5.981,0,0,0,3.6,0v.76a2.836,2.836,0,0,0,.062.589,9.275,9.275,0,0,1,.335,3.808,6.6,6.6,0,0,1-2.2.375,6.6,6.6,0,0,1-2.2-.375A9.292,9.292,0,0,1,2221.332-3197.761Zm-2.779-6.961v-2.167a.532.532,0,0,1,.556-.53,7.5,7.5,0,0,0,5.557-2.142,1.252,1.252,0,0,1,1.912.2,12.236,12.236,0,0,0,1.117,1.392.527.527,0,0,1,.14.359v2.889a4.66,4.66,0,0,1-4.641,4.567,4.661,4.661,0,0,1-4.641-4.567Zm2.743,12.237a7.924,7.924,0,0,0,1.9.229,7.92,7.92,0,0,0,1.9-.229,28.562,28.562,0,0,1-1.589,4.267c-.1.239-.209.473-.309.706-.1-.233-.2-.468-.309-.706A28.671,28.671,0,0,1,2221.3-3192.485Zm8.976-12.877a1.2,1.2,0,0,1-1.147,1.192c.059-.567.022-.8.033-2.394a1.2,1.2,0,0,1,1.113,1.187v.015Zm-.892-12.974a.161.161,0,0,1,.16-.161h3.948a.161.161,0,0,1,.161.161v5.49a.161.161,0,0,1-.161.161h-3.477a8.662,8.662,0,0,0-.631-.774v-4.877Zm-13.262,10.552a7.084,7.084,0,0,1,7.076-7.076,7.085,7.085,0,0,1,7.077,7.077v.2a2.508,2.508,0,0,0-1.136-.3,1.836,1.836,0,0,0-.471-.981h0a10.942,10.942,0,0,1-1-1.24,2.576,2.576,0,0,0-3.928-.4,6.183,6.183,0,0,1-4.583,1.766,1.845,1.845,0,0,0-1.636.857,2.677,2.677,0,0,0-1.4.3Zm1.144,3.6a1.187,1.187,0,0,1-1.144-1.188,1.19,1.19,0,0,1,1.112-1.185c.011,1.618-.025,1.814.032,2.373Zm-1.835,5.356c-.991-1.8.069-2.914.446-4.482a2.668,2.668,0,0,0,1.679.451,5.951,5.951,0,0,0,1.454,2.309,6,6,0,0,0,1.064.835v1.337l-2.329,1.161A3.138,3.138,0,0,1,2215.427-3198.828Zm20.624,14.775a1.717,1.717,0,0,1-1.693,1.42h-18.351v-2.872a.662.662,0,0,0-.661-.662.662.662,0,0,0-.661.662v2.872h-2.1a.939.939,0,0,1-.937-.938v-3.835a7.958,7.958,0,0,1,5.523-7.589l.453.684a.163.163,0,0,1-.015.2,1.764,1.764,0,0,0-.619,1.724c.6,2.139,4.233,5.844,5.76,7.225a.662.662,0,0,0,.892,0c.515-.477,5.054-4.728,5.754-7.22a1.745,1.745,0,0,0-.619-1.724.164.164,0,0,1-.014-.2l.452-.684a7.934,7.934,0,0,1,4.112,3.063l-1.928,5.744a.661.661,0,0,0,.416.838.661.661,0,0,0,.837-.417l3.23-9.62a.02.02,0,0,1,.025-.013l2.026.573a.02.02,0,0,1,.015.023Zm3.347-14.168-.491.511a3.368,3.368,0,0,0-.884,1.533l-1.43-.4a11.871,11.871,0,0,0,.61-1.983,1,1,0,0,1,.277-.568l1.2-1.123a.375.375,0,0,1,.52,0l.168.163A1.328,1.328,0,0,1,2239.4-3198.221ZM2254.149-3224a.23.23,0,0,1-.231.231h-29.99a.231.231,0,0,1-.231-.231v-.857a.232.232,0,0,1,.231-.232h29.99a.231.231,0,0,1,.231.232Z" fill="#81c140"/>
          </g>
        </g>
      </g>
    </g>
    <g id="Group_55680" data-name="Group 55680">
      <path id="Path_101819" data-name="Path 101819" d="M1849.818-3038.326a63.334,63.334,0,0,0,63.219-63.219,63.333,63.333,0,0,0-63.219-63.219,63.333,63.333,0,0,0-63.219,63.219,63.334,63.334,0,0,0,63.219,63.219Z" fill="none" stroke="#9ddfd3" stroke-linecap="round" stroke-linejoin="round" stroke-width="1.25" stroke-dasharray="6 5"/>
      <path id="Path_101820" data-name="Path 101820" d="M1849.818-3044.658a57,57,0,0,0,56.887-56.887,56.964,56.964,0,0,0-56.887-56.887,56.964,56.964,0,0,0-56.887,56.887,57,57,0,0,0,56.887,56.887Z" fill="#9ddfd3" fill-rule="evenodd"/>
      <path id="Path_101821" data-name="Path 101821" d="M1828.55-3038.326a47.49,47.49,0,0,0,47.4-47.347,47.535,47.535,0,0,0-47.4-47.4,47.49,47.49,0,0,0-47.346,47.4,47.445,47.445,0,0,0,47.346,47.347Z" fill-rule="evenodd" fill="url(#radial-gradient-7)"/>
      <path id="Path_101822" data-name="Path 101822" d="M1849.818-3056.92a44.76,44.76,0,0,0,44.675-44.625,44.8,44.8,0,0,0-44.675-44.675,44.76,44.76,0,0,0-44.625,44.675,44.717,44.717,0,0,0,44.625,44.625Z" fill="#bffff3" fill-rule="evenodd"/>
      <path id="Path_101823" data-name="Path 101823" d="M1849.818-3060.79a40.813,40.813,0,0,0,40.755-40.755,40.814,40.814,0,0,0-40.755-40.756,40.814,40.814,0,0,0-40.755,40.756,40.813,40.813,0,0,0,40.755,40.755Z" fill="#9ddfd3" fill-rule="evenodd"/>
      <path id="Path_101824" data-name="Path 101824" d="M1849.818-3063.4a38.218,38.218,0,0,0,38.142-38.142,38.218,38.218,0,0,0-38.142-38.142,38.218,38.218,0,0,0-38.142,38.142,38.218,38.218,0,0,0,38.142,38.142Z" fill="#fefefe" fill-rule="evenodd"/>
      <g id="Group_55679" data-name="Group 55679">
        <g id="Group_55678" data-name="Group 55678">
          <path id="Path_101825" data-name="Path 101825" d="M1843.965-3112.925h11.886a.672.672,0,0,0,.672-.673.672.672,0,0,0-.672-.672h-11.886a.672.672,0,0,0-.673.672A.673.673,0,0,0,1843.965-3112.925Z" fill="#9ddfd3"/>
          <path id="Path_101826" data-name="Path 101826" d="M1843.965-3109.859h11.886a.672.672,0,0,0,.672-.673.672.672,0,0,0-.672-.672h-11.886a.672.672,0,0,0-.673.672A.673.673,0,0,0,1843.965-3109.859Z" fill="#9ddfd3"/>
          <path id="Path_101827" data-name="Path 101827" d="M1840.218-3111.057a.673.673,0,0,0-.673.673v2.306a1.818,1.818,0,0,0,1.816,1.816h17.093a1.818,1.818,0,0,0,1.816-1.816v-7.757a1.818,1.818,0,0,0-1.816-1.816h-17.093a1.818,1.818,0,0,0-1.816,1.816v2.306a.673.673,0,0,0,.673.673.673.673,0,0,0,.673-.673v-2.306a.471.471,0,0,1,.47-.471h17.093a.472.472,0,0,1,.471.471v7.757a.473.473,0,0,1-.471.471h-17.093a.472.472,0,0,1-.47-.471v-2.306a.673.673,0,0,0-.673-.673Z" fill="#9ddfd3"/>
          <path id="Path_101828" data-name="Path 101828" d="M1848.562-3079.931h-11.926v-43.228h24.923a1.869,1.869,0,0,1,1.867,1.867v14.6a.672.672,0,0,0,.673.672.672.672,0,0,0,.672-.672v-14.6a3.216,3.216,0,0,0-3.212-3.212h-28.672a3.216,3.216,0,0,0-3.212,3.212v2.059h-.351a2.342,2.342,0,0,0-2.339,2.339,2.342,2.342,0,0,0,2.339,2.339h.351v3h-.351a2.342,2.342,0,0,0-2.339,2.339,2.342,2.342,0,0,0,2.339,2.338h.351v3h-.351a2.342,2.342,0,0,0-2.339,2.339,2.342,2.342,0,0,0,2.339,2.339h.351v3h-.351a2.343,2.343,0,0,0-2.339,2.339,2.342,2.342,0,0,0,2.339,2.339h.351v3h-.351a2.342,2.342,0,0,0-2.339,2.339,2.343,2.343,0,0,0,2.339,2.339h.351v2.059a3.216,3.216,0,0,0,3.212,3.212h15.675a.672.672,0,0,0,.672-.673.672.672,0,0,0-.672-.672Zm-19.238-35.969a.994.994,0,0,1-.993-.994.994.994,0,0,1,.993-.994h2.047a1,1,0,0,1,.994.994,1,1,0,0,1-.994.994Zm0,7.674a.994.994,0,0,1-.993-.994.994.994,0,0,1,.993-.993h2.047a1,1,0,0,1,.994.993,1,1,0,0,1-.994.994Zm0,7.674a.994.994,0,0,1-.993-.993.994.994,0,0,1,.993-.994h2.047a1,1,0,0,1,.994.994.994.994,0,0,1-.994.993Zm0,7.675a.994.994,0,0,1-.993-.994.994.994,0,0,1,.993-.993h2.047a.994.994,0,0,1,.994.993,1,1,0,0,1-.994.994Zm0,7.674a.994.994,0,0,1-.993-.993.994.994,0,0,1,.993-.994h2.047a1,1,0,0,1,.994.994,1,1,0,0,1-.994.993Zm5.966,5.272h-2.4a1.87,1.87,0,0,1-1.867-1.867v-2.059h.351a2.342,2.342,0,0,0,2.339-2.339,2.341,2.341,0,0,0-2.339-2.339h-.351v-3h.351a2.341,2.341,0,0,0,2.339-2.339,2.342,2.342,0,0,0-2.339-2.339h-.351v-3h.351a2.342,2.342,0,0,0,2.339-2.339,2.341,2.341,0,0,0-2.339-2.339h-.351v-3h.351a2.341,2.341,0,0,0,2.339-2.339,2.342,2.342,0,0,0-2.339-2.339h-.351v-3h.351a2.341,2.341,0,0,0,2.339-2.339,2.341,2.341,0,0,0-2.339-2.339h-.351v-2.059a1.87,1.87,0,0,1,1.867-1.867h2.4Z" fill="#9ddfd3"/>
          <path id="Path_101829" data-name="Path 101829" d="M1872.249-3083.458l-7.346-13.594a1.017,1.017,0,0,1-.12-.477v-1.742a2.49,2.49,0,0,0,2.119-2.459,2.49,2.49,0,0,0-2.487-2.487h-6.483a2.489,2.489,0,0,0-2.486,2.487,2.49,2.49,0,0,0,2.118,2.459v1.742a1,1,0,0,1-.12.477l-7.346,13.594a3.3,3.3,0,0,0,2.906,4.872h16.34a3.3,3.3,0,0,0,2.905-4.872Zm-15.458-18.272a1.143,1.143,0,0,1,1.141-1.142h6.483a1.143,1.143,0,0,1,1.141,1.142,1.142,1.142,0,0,1-1.141,1.141h-6.483A1.142,1.142,0,0,1,1856.791-3101.73Zm1.836,5.318a2.353,2.353,0,0,0,.283-1.117v-1.715h4.527v1.715a2.354,2.354,0,0,0,.283,1.117l3.371,6.238a2.82,2.82,0,0,0-.967-.158,2.822,2.822,0,0,0-1.911.719,1.534,1.534,0,0,1-1.09.439,1.53,1.53,0,0,1-1.089-.439,2.822,2.822,0,0,0-1.911-.719,2.823,2.823,0,0,0-1.912.719,1.531,1.531,0,0,1-1.089.439,1.535,1.535,0,0,1-1.091-.439,3.638,3.638,0,0,0-.805-.506Zm10.717,16.481H1853a1.957,1.957,0,0,1-1.722-2.888l3.3-6.1a2,2,0,0,1,.629.377,2.827,2.827,0,0,0,1.912.718,2.822,2.822,0,0,0,1.911-.719,1.532,1.532,0,0,1,1.09-.438,1.532,1.532,0,0,1,1.089.438,2.822,2.822,0,0,0,1.911.719,2.823,2.823,0,0,0,1.912-.719,1.532,1.532,0,0,1,1.089-.439,1.533,1.533,0,0,1,1.09.439,3.17,3.17,0,0,0,1.083.6l2.768,5.124a1.957,1.957,0,0,1-1.721,2.888Z" fill="#9ddfd3"/>
        </g>
      </g>
    </g>
    <g id="Group_55683" data-name="Group 55683">
      <path id="Path_101830" data-name="Path 101830" d="M2271.092-3282.206a63.333,63.333,0,0,0,63.218-63.219,63.333,63.333,0,0,0-63.218-63.218,63.333,63.333,0,0,0-63.219,63.218,63.333,63.333,0,0,0,63.219,63.219Z" fill="none" stroke="#9ddfd3" stroke-linecap="round" stroke-linejoin="round" stroke-width="1.25" stroke-dasharray="6 5"/>
      <path id="Path_101831" data-name="Path 101831" d="M2271.092-3288.538a57,57,0,0,0,56.886-56.887,56.962,56.962,0,0,0-56.886-56.886,56.963,56.963,0,0,0-56.887,56.886,57,57,0,0,0,56.887,56.887Z" fill="#9ddfd3" fill-rule="evenodd"/>
      <path id="Path_101832" data-name="Path 101832" d="M2249.824-3282.206a47.49,47.49,0,0,0,47.4-47.346,47.535,47.535,0,0,0-47.4-47.4,47.489,47.489,0,0,0-47.346,47.4,47.444,47.444,0,0,0,47.346,47.346Z" fill-rule="evenodd" fill="url(#radial-gradient-8)"/>
      <path id="Path_101833" data-name="Path 101833" d="M2271.092-3300.8a44.761,44.761,0,0,0,44.675-44.626,44.8,44.8,0,0,0-44.675-44.675,44.761,44.761,0,0,0-44.625,44.675,44.718,44.718,0,0,0,44.625,44.626Z" fill="#bffff3" fill-rule="evenodd"/>
      <path id="Path_101834" data-name="Path 101834" d="M2271.092-3304.669a40.813,40.813,0,0,0,40.755-40.756,40.813,40.813,0,0,0-40.755-40.755,40.813,40.813,0,0,0-40.756,40.755,40.814,40.814,0,0,0,40.756,40.756Z" fill="#9ddfd3" fill-rule="evenodd"/>
      <path id="Path_101835" data-name="Path 101835" d="M2271.092-3307.282a38.219,38.219,0,0,0,38.142-38.143,38.219,38.219,0,0,0-38.142-38.142,38.22,38.22,0,0,0-38.143,38.142,38.22,38.22,0,0,0,38.143,38.143Z" fill="#fefefe" fill-rule="evenodd"/>
      <g id="Group_55682" data-name="Group 55682">
        <g id="Group_55681" data-name="Group 55681">
          <path id="Path_101836" data-name="Path 101836" d="M2296.057-3343.858a.751.751,0,0,0-.947-.486.752.752,0,0,0-.486.947,13.473,13.473,0,0,1,.645,4.147,13.56,13.56,0,0,1-7.217,11.977,1.319,1.319,0,0,0-.7,1.166v3.063l-2.891-2.458a1.324,1.324,0,0,0-1.027-.3,13.929,13.929,0,0,1-1.741.111,13.591,13.591,0,0,1-13.576-13.576,13.677,13.677,0,0,1,.191-2.282,15.129,15.129,0,0,0,6.913-9.658,13.5,13.5,0,0,1,6.471-1.637h.107a13.535,13.535,0,0,1,11.414,6.414.753.753,0,0,0,1.037.24.754.754,0,0,0,.24-1.038,15.038,15.038,0,0,0-12.68-7.122,15.019,15.019,0,0,0-6.305,1.32q.066-.7.067-1.414a14.976,14.976,0,0,0-4.458-10.7,14.977,14.977,0,0,0-10.622-4.376h-.119a15.066,15.066,0,0,0-11.441,5.417.754.754,0,0,0,.093,1.061.753.753,0,0,0,1.061-.094,13.561,13.561,0,0,1,10.3-4.878h.106a13.481,13.481,0,0,1,9.562,3.94,13.481,13.481,0,0,1,4.014,9.636,13.593,13.593,0,0,1-13.577,13.577,13.73,13.73,0,0,1-1.741-.112,1.329,1.329,0,0,0-1.027.3l-2.891,2.458v-3.063a1.316,1.316,0,0,0-.7-1.166,13.562,13.562,0,0,1-7.217-11.977,13.372,13.372,0,0,1,1.388-5.982.752.752,0,0,0-.342-1.008.754.754,0,0,0-1.009.343,14.859,14.859,0,0,0-1.542,6.649,15.066,15.066,0,0,0,7.916,13.252v3.349a1.31,1.31,0,0,0,.767,1.2,1.338,1.338,0,0,0,.559.124,1.312,1.312,0,0,0,.852-.317l3.132-2.662a15.122,15.122,0,0,0,1.855.114,15,15,0,0,0,6.188-1.328q-.066.7-.067,1.422a15.1,15.1,0,0,0,15.082,15.081,15.222,15.222,0,0,0,1.856-.114l3.132,2.663a1.314,1.314,0,0,0,.852.316,1.317,1.317,0,0,0,.558-.124,1.309,1.309,0,0,0,.767-1.2V-3326a15.065,15.065,0,0,0,7.917-13.251,14.982,14.982,0,0,0-.718-4.611Z" fill="#9ddfd3"/>
          <path id="Path_101837" data-name="Path 101837" d="M2259.245-3347.7a1.246,1.246,0,0,0,1.245,1.245,1.245,1.245,0,0,0,1.245-1.245,1.245,1.245,0,0,0-1.245-1.245A1.245,1.245,0,0,0,2259.245-3347.7Z" fill="#9ddfd3"/>
          <path id="Path_101838" data-name="Path 101838" d="M2262.357-3354.665a4.623,4.623,0,0,0,2.722-4.542,4.635,4.635,0,0,0-4.125-4.24,4.594,4.594,0,0,0-5.02,3.937,4.7,4.7,0,0,0-.044.64.753.753,0,0,0,.753.753.753.753,0,0,0,.753-.753,3.286,3.286,0,0,1,.029-.433,3.092,3.092,0,0,1,3.381-2.646,3.114,3.114,0,0,1,2.771,2.85,3.112,3.112,0,0,1-1.832,3.059,3.357,3.357,0,0,0-2.008,3.052v1.453a.753.753,0,0,0,.753.752.753.753,0,0,0,.753-.752v-1.453a1.851,1.851,0,0,1,1.114-1.677Z" fill="#9ddfd3"/>
          <path id="Path_101839" data-name="Path 101839" d="M2280.448-3331.926a1.245,1.245,0,0,0,1.245,1.245,1.245,1.245,0,0,0,1.245-1.245,1.244,1.244,0,0,0-1.245-1.245A1.244,1.244,0,0,0,2280.448-3331.926Z" fill="#9ddfd3"/>
          <path id="Path_101840" data-name="Path 101840" d="M2283.56-3338.893a4.621,4.621,0,0,0,2.721-4.542,4.634,4.634,0,0,0-4.125-4.24,4.594,4.594,0,0,0-5.019,3.937,4.705,4.705,0,0,0-.044.64.753.753,0,0,0,.753.753.752.752,0,0,0,.752-.753,3.128,3.128,0,0,1,.03-.433,3.092,3.092,0,0,1,3.381-2.646,3.114,3.114,0,0,1,2.77,2.85,3.111,3.111,0,0,1-1.831,3.059,3.355,3.355,0,0,0-2.008,3.052v1.452a.753.753,0,0,0,.753.753.753.753,0,0,0,.753-.753v-1.452a1.849,1.849,0,0,1,1.114-1.677Z" fill="#9ddfd3"/>
        </g>
      </g>
    </g>
    <g id="Group_55686" data-name="Group 55686">
      <path id="Path_101841" data-name="Path 101841" d="M1989.874-3000.988a63.333,63.333,0,0,0,63.219-63.219,63.334,63.334,0,0,0-63.219-63.219,63.334,63.334,0,0,0-63.219,63.219,63.333,63.333,0,0,0,63.219,63.219Z" fill="none" stroke="#cc3d60" stroke-linecap="round" stroke-linejoin="round" stroke-width="1.25" stroke-dasharray="6 5"/>
      <path id="Path_101842" data-name="Path 101842" d="M1989.874-3007.32a57,57,0,0,0,56.887-56.887,56.964,56.964,0,0,0-56.887-56.887,56.964,56.964,0,0,0-56.887,56.887,57,57,0,0,0,56.887,56.887Z" fill="#cc3d60" fill-rule="evenodd"/>
      <path id="Path_101843" data-name="Path 101843" d="M1968.606-3000.988a47.49,47.49,0,0,0,47.4-47.346,47.535,47.535,0,0,0-47.4-47.4,47.49,47.49,0,0,0-47.346,47.4,47.444,47.444,0,0,0,47.346,47.346Z" fill-rule="evenodd" fill="url(#radial-gradient-9)"/>
      <path id="Path_101844" data-name="Path 101844" d="M1989.874-3019.582a44.76,44.76,0,0,0,44.675-44.625,44.8,44.8,0,0,0-44.675-44.675,44.76,44.76,0,0,0-44.625,44.675,44.717,44.717,0,0,0,44.625,44.625Z" fill="#f74a74" fill-rule="evenodd"/>
      <path id="Path_101845" data-name="Path 101845" d="M1989.874-3023.451a40.814,40.814,0,0,0,40.755-40.756,40.813,40.813,0,0,0-40.755-40.755,40.813,40.813,0,0,0-40.755,40.755,40.814,40.814,0,0,0,40.755,40.756Z" fill="#cc3d60" fill-rule="evenodd"/>
      <path id="Path_101846" data-name="Path 101846" d="M1989.874-3026.065a38.218,38.218,0,0,0,38.142-38.142,38.218,38.218,0,0,0-38.142-38.142,38.218,38.218,0,0,0-38.142,38.142,38.218,38.218,0,0,0,38.142,38.142Z" fill="#fefefe" fill-rule="evenodd"/>
      <g id="Group_55685" data-name="Group 55685">
        <g id="Group_55684" data-name="Group 55684">
          <path id="Path_101847" data-name="Path 101847" d="M1993.826-3077.654h1.05a.7.7,0,0,0,.7-.7.7.7,0,0,0-.7-.7h-1.05a.7.7,0,0,0-.7.7A.7.7,0,0,0,1993.826-3077.654Z" fill="#cc3d60"/>
          <path id="Path_101848" data-name="Path 101848" d="M2012.173-3079.062h-1.05a.7.7,0,0,0-.7.7.7.7,0,0,0,.7.7h1.05a.7.7,0,0,0,.7-.7A.7.7,0,0,0,2012.173-3079.062Z" fill="#cc3d60"/>
          <path id="Path_101849" data-name="Path 101849" d="M1996.757-3083.6a.7.7,0,0,0,1,0,.7.7,0,0,0,0-1l-.743-.742a.7.7,0,0,0-.995,0,.7.7,0,0,0,0,1Z" fill="#cc3d60"/>
          <path id="Path_101850" data-name="Path 101850" d="M2009.241-3073.112a.706.706,0,0,0-1,0,.706.706,0,0,0,0,1l.743.742a.7.7,0,0,0,1,0,.7.7,0,0,0,0-.995Z" fill="#cc3d60"/>
          <path id="Path_101851" data-name="Path 101851" d="M1997.01-3071.373l.743-.743a.7.7,0,0,0,0-1,.7.7,0,0,0-1,0l-.742.742a.7.7,0,0,0,0,1A.705.705,0,0,0,1997.01-3071.373Z" fill="#cc3d60"/>
          <path id="Path_101852" data-name="Path 101852" d="M2009.241-3083.6l.742-.743a.7.7,0,0,0,0-1,.7.7,0,0,0-1,0l-.742.742a.705.705,0,0,0,0,1A.7.7,0,0,0,2009.241-3083.6Z" fill="#cc3d60"/>
          <path id="Path_101853" data-name="Path 101853" d="M2003-3085.777a.7.7,0,0,0,.7-.7v-1.05a.7.7,0,0,0-.7-.7.7.7,0,0,0-.7.7v1.05A.7.7,0,0,0,2003-3085.777Z" fill="#cc3d60"/>
          <path id="Path_101854" data-name="Path 101854" d="M1998.771-3051.295a.7.7,0,0,0-.292.952,10.634,10.634,0,0,1,1.235,4.969v2.087a1.7,1.7,0,0,1-1.7,1.7h-2.985v-4.6a.7.7,0,0,0-.7-.7.7.7,0,0,0-.7.7v4.6h-19.247v-4.6a.7.7,0,0,0-.7-.7.7.7,0,0,0-.7.7v4.6h-2.985a1.7,1.7,0,0,1-1.7-1.7v-2.087a10.624,10.624,0,0,1,8.33-10.359c.022.2-.009-.023.757,4.28a2.216,2.216,0,0,0,2.731,1.755l3.895-1,3.894,1a2.215,2.215,0,0,0,2.731-1.755c.768-4.315.736-4.074.758-4.283a10.55,10.55,0,0,1,5.274,2.9.7.7,0,0,0,.5.209.7.7,0,0,0,.495-.2.7.7,0,0,0,.006-1,12.588,12.588,0,0,0-6.521-3.4,5.65,5.65,0,0,0-2.768-2.314v-1.122a6.669,6.669,0,0,0,3.054-4.444h.727a2.274,2.274,0,0,0,2.271-2.271v-1.737a2.273,2.273,0,0,0-1.571-2.16v-3.673a5.943,5.943,0,0,0-5.936-5.936h-5.82a5.921,5.921,0,0,0-5.648,4.1.7.7,0,0,0,.452.887.7.7,0,0,0,.887-.452,4.516,4.516,0,0,1,4.309-3.129h5.82a4.533,4.533,0,0,1,4.528,4.528v3.561h-1.528a.654.654,0,0,1-.672-.628v-2.72a2.079,2.079,0,0,0-2.085-2.076h0a8.144,8.144,0,0,0-1.728.193,6.569,6.569,0,0,1-2.843,0,8.136,8.136,0,0,0-1.728-.193h0a2.078,2.078,0,0,0-2.084,2.076c0,2.289,0,2.732,0,2.777a.66.66,0,0,1-.67.571h-1.528v-1.884a.7.7,0,0,0-.7-.7.7.7,0,0,0-.7.7v1.989a2.275,2.275,0,0,0-1.591,2.167v1.737a2.274,2.274,0,0,0,2.272,2.271h.745a6.622,6.622,0,0,0,3.055,4.445v1.117a5.653,5.653,0,0,0-2.778,2.32l-.235.045a12.034,12.034,0,0,0-9.746,11.8v2.087a3.111,3.111,0,0,0,3.108,3.108h28.033a3.112,3.112,0,0,0,3.109-3.108v-2.087a12.041,12.041,0,0,0-1.4-5.629.7.7,0,0,0-.951-.292Zm-7.171-18.679h.543a.865.865,0,0,1,.863.864v1.737a.865.865,0,0,1-.863.864h-.552c.02-.43,0,.394.009-3.465Zm-15.769,3.465a.865.865,0,0,1-.864-.864v-1.737a.865.865,0,0,1,.864-.864h.564c.009,3.713-.009,2.988.012,3.465Zm4.872,9.424a.753.753,0,0,1-.1-.722l.384-.991a4.612,4.612,0,0,0,.048-1.12,7.807,7.807,0,0,0,5.915,0c-.009.906-.026.95.036,1.115l0,0,.384.991a.754.754,0,0,1-.1.722l-3.288,4.476Zm7.712.834a2.157,2.157,0,0,0,.417-1.417,5.131,5.131,0,0,1,.761.651,1.429,1.429,0,0,1,.369,1.23l-.731,4.087a.8.8,0,0,1-.994.638l-3.057-.787Zm-10.61-10.509,0-3.214h.283a2.067,2.067,0,0,0,2.074-1.868c.012-.16,0-.1.007-2.888a.671.671,0,0,1,.677-.668h0a6.764,6.764,0,0,1,1.428.16,7.954,7.954,0,0,0,3.447,0,6.772,6.772,0,0,1,1.428-.16h0a.672.672,0,0,1,.677.668v2.72a2.059,2.059,0,0,0,2.08,2.036h.286c-.046,2.729.082,2.205-.07,4.112-.972,7.062-12.146,6.816-12.318-.9Zm.586,9.744a5.071,5.071,0,0,1,.76-.652,2.158,2.158,0,0,0,.417,1.417l3.235,4.4-3.056.787a.805.805,0,0,1-.995-.638l-.73-4.087a1.42,1.42,0,0,1,.369-1.229Z" fill="#cc3d60"/>
          <path id="Path_101855" data-name="Path 101855" d="M2002.824-3084.058a6.183,6.183,0,0,0-6,6.115c-.03,3.38,1.982,3.724,2.443,6.211a1.39,1.39,0,0,0,.606.908v1.313a2.13,2.13,0,0,0,2.128,2.128h1.99a2.131,2.131,0,0,0,2.129-2.128v-1.313a1.389,1.389,0,0,0,.6-.908c.463-2.49,2.444-2.806,2.444-6.155a6.169,6.169,0,0,0-6.348-6.171Zm1.891,14.547a.722.722,0,0,1-.721.72H2002a.721.721,0,0,1-.72-.72v-1.084h3.431Zm.632-2.492H2003.7v-1.428a3.161,3.161,0,0,0,1.185-.551.7.7,0,0,0,.138-.986.7.7,0,0,0-.986-.139,1.761,1.761,0,0,1-2.114,0,.705.705,0,0,0-.986.139.7.7,0,0,0,.139.986,3.141,3.141,0,0,0,1.216.557V-3072h-1.643c-.547-2.912-2.443-3.1-2.418-5.927a4.777,4.777,0,0,1,4.629-4.72,4.763,4.763,0,0,1,4.9,4.763c0,2.806-1.87,2.972-2.417,5.884Z" fill="#cc3d60"/>
        </g>
      </g>
    </g>
    <g id="Group_55689" data-name="Group 55689">
      <path id="Path_101856" data-name="Path 101856" d="M2234-3421.86a63.333,63.333,0,0,0,63.218-63.219A63.333,63.333,0,0,0,2234-3548.3a63.333,63.333,0,0,0-63.219,63.218A63.333,63.333,0,0,0,2234-3421.86Z" fill="none" stroke="#cc3d60" stroke-linecap="round" stroke-linejoin="round" stroke-width="1.25" stroke-dasharray="6 5"/>
      <path id="Path_101857" data-name="Path 101857" d="M2234-3428.192a57,57,0,0,0,56.887-56.887A56.963,56.963,0,0,0,2234-3541.965a56.963,56.963,0,0,0-56.887,56.886A57,57,0,0,0,2234-3428.192Z" fill="#cc3d60" fill-rule="evenodd"/>
      <path id="Path_101858" data-name="Path 101858" d="M2212.737-3421.86a47.49,47.49,0,0,0,47.4-47.346,47.535,47.535,0,0,0-47.4-47.4,47.489,47.489,0,0,0-47.346,47.4,47.444,47.444,0,0,0,47.346,47.346Z" fill-rule="evenodd" fill="url(#radial-gradient-10)"/>
      <path id="Path_101859" data-name="Path 101859" d="M2234-3440.454a44.76,44.76,0,0,0,44.675-44.625A44.8,44.8,0,0,0,2234-3529.754a44.76,44.76,0,0,0-44.625,44.675A44.717,44.717,0,0,0,2234-3440.454Z" fill="#f74a74" fill-rule="evenodd"/>
      <path id="Path_101860" data-name="Path 101860" d="M2234-3444.323a40.813,40.813,0,0,0,40.755-40.756A40.813,40.813,0,0,0,2234-3525.834a40.814,40.814,0,0,0-40.756,40.755A40.814,40.814,0,0,0,2234-3444.323Z" fill="#cc3d60" fill-rule="evenodd"/>
      <path id="Path_101861" data-name="Path 101861" d="M2234-3446.936a38.219,38.219,0,0,0,38.142-38.143A38.218,38.218,0,0,0,2234-3523.221a38.219,38.219,0,0,0-38.143,38.142A38.22,38.22,0,0,0,2234-3446.936Z" fill="#fefefe" fill-rule="evenodd"/>
      <g id="Group_55688" data-name="Group 55688">
        <g id="Group_55687" data-name="Group 55687">
          <path id="Path_101862" data-name="Path 101862" d="M2239-3475.987a.818.818,0,0,0-.52,1.033.819.819,0,0,0,.776.561.824.824,0,0,0,.257-.042,30.462,30.462,0,0,1,8.019-1.333.819.819,0,0,0,.783-.851.816.816,0,0,0-.85-.782,32.151,32.151,0,0,0-8.465,1.414Z" fill="#cc3d60"/>
          <path id="Path_101863" data-name="Path 101863" d="M2251.9-3475.67v-1.029a.817.817,0,0,0-.817-.817.818.818,0,0,0-.817.817v2.9a.213.213,0,0,1-.211.183h-.677a2.684,2.684,0,0,0-2.68,2.681v2.427a1.984,1.984,0,0,0,1.981,1.981h1.587v4.257a.127.127,0,0,1-.131.129c-2.529-.083-8.6,0-13.47,2.286v-19.809c4.51-2.414,10.636-2.55,13.113-2.493a.538.538,0,0,1,.09.011l.011,0a.5.5,0,0,1,.387.487v1.125a.817.817,0,0,0,.817.817.817.817,0,0,0,.817-.817v-1.125a2.122,2.122,0,0,0-1.068-1.853v-1.025a2.041,2.041,0,0,0-2-2.052c-.7-.016-1.673-.016-2.806.045a12.336,12.336,0,0,0-4.7-1.963,7.851,7.851,0,0,1-1.7-.4h0a2.215,2.215,0,0,1-1.316-2.022v-.023a8.949,8.949,0,0,0,1.377-1,7.44,7.44,0,0,0,2.435-4.745,2.109,2.109,0,0,0,1.81-2.1l-.006-2.76a2.105,2.105,0,0,0-.112-.668,2.076,2.076,0,0,0,.113-.674v-4.866a2.529,2.529,0,0,0-2.478-2.518.191.191,0,0,1-.188-.188,2.559,2.559,0,0,0-2.548-2.51h-7.683a6.422,6.422,0,0,0-6.259,5.077.818.818,0,0,0,.632.967.817.817,0,0,0,.968-.632,4.778,4.778,0,0,1,4.659-3.777h7.683a.918.918,0,0,1,.914.9,1.819,1.819,0,0,0,1.8,1.8.888.888,0,0,1,.87.884v4.866a.457.457,0,0,1-.3.43.839.839,0,0,1-1.024-.417,1.7,1.7,0,0,0-1.936-.9c-3.177.768-5.526-1.212-6.643-2.461a2.616,2.616,0,0,0-2.835-.721,2.515,2.515,0,0,0-1.705,2.282c-.007.135,0-.025,0,2.654l-1.269-.442a.456.456,0,0,1-.3-.43v-1.023a.817.817,0,0,0-.818-.817.817.817,0,0,0-.817.817v1.023a2.035,2.035,0,0,0,.025.315,2.648,2.648,0,0,0-.57,1.645l0,1.669a2.661,2.661,0,0,0,2.372,2.64,7.444,7.444,0,0,0,2.474,4.724,9.17,9.17,0,0,0,.775.6v.376a2.2,2.2,0,0,1-1.052,1.882h0a5.249,5.249,0,0,1-1.969.537,12.333,12.333,0,0,0-4.7,1.963c-1.133-.06-2.1-.061-2.806-.045a2.04,2.04,0,0,0-2,2.052v1.025a2.122,2.122,0,0,0-1.068,1.853v5.984c-.374.331-2.606,1.047-2.606,3.447v2.2a3.505,3.505,0,0,0,2.606,3.383v4.373a1.761,1.761,0,0,0,1.818,1.762c7.824-.255,12.274,1.807,13.824,2.7h0l0,0,.02.011a4.456,4.456,0,0,0,4.462,0l.022-.013h0c1.552-.9,6-2.959,13.823-2.7a1.76,1.76,0,0,0,1.818-1.762v-4.372a3.5,3.5,0,0,0,2.609-3.384v-2.2c0-2.4-2.246-3.128-2.609-3.448Zm-23.868-21.772a.817.817,0,0,0-.817-.8h-.473a1.024,1.024,0,0,1-1.023-1.022c0-1.763-.008-1.674.006-1.79a1.988,1.988,0,0,0,.306.135l1.374.478a1.557,1.557,0,0,0,1.413-.2,1.561,1.561,0,0,0,.654-1.27c0-3.025,0-2.623,0-2.683a.909.909,0,0,1,.619-.821.978.978,0,0,1,1.071.271c1.361,1.521,4.241,3.928,8.245,2.96a.076.076,0,0,1,.09.036,2.478,2.478,0,0,0,2.792,1.3l0,2.066a.47.47,0,0,1-.46.48l-.484,0a.818.818,0,0,0-.814.8,5.876,5.876,0,0,1-1.932,4.327,6.367,6.367,0,0,1-8.6.036,5.87,5.87,0,0,1-1.968-4.31Zm8.7,7.206a3.844,3.844,0,0,0,1.146,2.112,6.623,6.623,0,0,1-7.519-.232,3.812,3.812,0,0,0,.948-2.07A7.825,7.825,0,0,0,2236.732-3490.236Zm-9.74,3.339a9.379,9.379,0,0,0,1.969-.468,8.289,8.289,0,0,0,10.482.14c.245.072,1.328.281,1.572.328a10.845,10.845,0,0,1,2.109.633,20.56,20.56,0,0,0-8.592,2.933.939.939,0,0,1-1.057,0,20.564,20.564,0,0,0-8.592-2.933A10.822,10.822,0,0,1,2226.992-3486.9Zm-7.775,1.948c.724-.017,1.752-.015,2.948.056l.018,0c3.1.187,7.329.851,10.376,2.913a2.564,2.564,0,0,0,2.889,0c4.23-2.863,10.739-3.031,13.342-2.971a.415.415,0,0,1,.407.418v.736c-4.65-.029-10.345.756-14.268,3.25a1.711,1.711,0,0,1-1.852,0c-3.914-2.489-9.607-3.278-14.267-3.25v-.736a.415.415,0,0,1,.407-.418Zm-4.081,14.927v-2.2a1.783,1.783,0,0,1,.972-1.531,1.851,1.851,0,0,0,1.847,1.776h.677a1.047,1.047,0,0,1,1.046,1.046v2.427a.346.346,0,0,1-.347.346H2217a1.866,1.866,0,0,1-1.864-1.864Zm2.737,7.885a.128.128,0,0,1-.131-.129v-4.257h1.589a1.984,1.984,0,0,0,1.982-1.981v-2.427a2.684,2.684,0,0,0-2.681-2.681h-.677a.214.214,0,0,1-.213-.208v-7.833a.5.5,0,0,1,.386-.487l.012,0a.542.542,0,0,1,.089-.011c2.477-.058,8.6.079,13.114,2.493v19.809C2226.477-3462.134,2220.4-3462.219,2217.873-3462.137Zm17.157,3.122a2.821,2.821,0,0,1-2.053,0V-3478.8a3.394,3.394,0,0,0,2.053,0Zm17.843-11.007a1.866,1.866,0,0,1-1.864,1.864h-2.331a.347.347,0,0,1-.347-.347v-2.427a1.048,1.048,0,0,1,1.046-1.046h.677a1.853,1.853,0,0,0,1.847-1.775l.176.108a1.679,1.679,0,0,1,.8,1.423v2.2Z" fill="#cc3d60"/>
        </g>
      </g>
    </g>
    <path id="Path_101864" data-name="Path 101864" d="M1989.869-3216.615c70.742,0,128.419-57.677,128.419-128.419,0-70.7-57.677-128.375-128.419-128.375-70.7,0-128.375,57.677-128.375,128.375,0,70.742,57.677,128.419,128.375,128.419Z" fill="url(#linear-gradient)"/>
    <path id="Path_101865" data-name="Path 101865" d="M1989.869-3222.513c67.509,0,122.564-55.012,122.564-122.521,0-67.464-55.055-122.52-122.564-122.52-67.465,0-122.52,55.056-122.52,122.52,0,67.509,55.055,122.521,122.52,122.521Z" fill="url(#linear-gradient-2)"/>
    <text id="Método_científico" data-name="Método
científico" transform="translate(1989.892 -3342.486)" fill="#1d1d1b" font-size="21.475" font-family="Roboto-Bold, Roboto" font-weight="700"><tspan x="-36.873" y="0">Método</tspan><tspan x="-45.036" y="25.77">científico</tspan></text>
  </g>
</svg>
