<svg xmlns="http://www.w3.org/2000/svg" xmlns:xlink="http://www.w3.org/1999/xlink" width="1228" height="390.265" viewBox="0 0 1228 390.265">
  <defs>
    <radialGradient id="radial-gradient" cx="0.5" cy="0.5" r="0.914" gradientTransform="translate(0.228 0.242) scale(0.544 0.516)" gradientUnits="objectBoundingBox">
      <stop offset="0" stop-color="#4d4d4d"/>
      <stop offset="0.033" stop-color="#575757"/>
      <stop offset="0.211" stop-color="#8a8a8a"/>
      <stop offset="0.387" stop-color="#b4b4b4"/>
      <stop offset="0.556" stop-color="#d4d4d4"/>
      <stop offset="0.718" stop-color="#ececec"/>
      <stop offset="0.87" stop-color="#fafafa"/>
      <stop offset="1" stop-color="#fff"/>
    </radialGradient>
    <radialGradient id="radial-gradient-2" cx="0.5" cy="0.5" r="0.914" xlink:href="#radial-gradient"/>
    <radialGradient id="radial-gradient-3" cx="0.5" cy="0.5" r="0.914" xlink:href="#radial-gradient"/>
    <radialGradient id="radial-gradient-4" cx="0.5" cy="0.5" r="0.914" xlink:href="#radial-gradient"/>
    <radialGradient id="radial-gradient-5" cx="0.5" cy="0.5" r="0.914" xlink:href="#radial-gradient"/>
    <radialGradient id="radial-gradient-6" cx="0.5" cy="0.5" r="0.914" xlink:href="#radial-gradient"/>
    <radialGradient id="radial-gradient-7" cx="0.5" cy="0.5" r="0.914" xlink:href="#radial-gradient"/>
    <radialGradient id="radial-gradient-8" cx="0.5" cy="0.5" r="0.914" xlink:href="#radial-gradient"/>
    <radialGradient id="radial-gradient-9" cx="0.5" cy="0.5" r="0.914" xlink:href="#radial-gradient"/>
    <radialGradient id="radial-gradient-10" cx="0.5" cy="0.5" r="0.914" xlink:href="#radial-gradient"/>
  </defs>
  <g id="t4-i7" transform="translate(-6926.539 5943.251)">
    <rect id="Rectangle_5148" data-name="Rectangle 5148" width="1228" height="390.265" transform="translate(6926.539 -5943.251)" fill="none"/>
    <path id="Rectangle_5149" data-name="Rectangle 5149" d="M18.724,0h132.14a18.724,18.724,0,0,1,18.724,18.724V73.585A18.724,18.724,0,0,1,150.864,92.31H18.725A18.725,18.725,0,0,1,0,73.585V18.724A18.724,18.724,0,0,1,18.724,0Z" transform="translate(7033.937 -5810.506)" fill="url(#radial-gradient)"/>
    <path id="Rectangle_5150" data-name="Rectangle 5150" d="M18.724,0h132.14a18.724,18.724,0,0,1,18.724,18.724V73.585A18.724,18.724,0,0,1,150.864,92.31H18.725A18.725,18.725,0,0,1,0,73.585V18.724A18.724,18.724,0,0,1,18.724,0Z" transform="translate(7010.646 -5661.434)" fill="url(#radial-gradient-2)"/>
    <path id="Rectangle_5151" data-name="Rectangle 5151" d="M18.724,0h132.14a18.724,18.724,0,0,1,18.724,18.724V73.585A18.724,18.724,0,0,1,150.864,92.31H18.725A18.725,18.725,0,0,1,0,73.585V18.724A18.724,18.724,0,0,1,18.724,0Z" transform="translate(7258.358 -5661.434)" fill="url(#radial-gradient-3)"/>
    <path id="Rectangle_5152" data-name="Rectangle 5152" d="M18.724,0h132.14a18.724,18.724,0,0,1,18.724,18.724V73.585A18.724,18.724,0,0,1,150.864,92.31H18.725A18.725,18.725,0,0,1,0,73.585V18.724A18.724,18.724,0,0,1,18.724,0Z" transform="translate(7496.883 -5661.434)" fill="url(#radial-gradient-4)"/>
    <path id="Rectangle_5153" data-name="Rectangle 5153" d="M18.724,0h132.14a18.724,18.724,0,0,1,18.724,18.724V73.585A18.724,18.724,0,0,1,150.864,92.31H18.725A18.725,18.725,0,0,1,0,73.585V18.724A18.724,18.724,0,0,1,18.724,0Z" transform="translate(7747.769 -5661.434)" fill="url(#radial-gradient-5)"/>
    <path id="Rectangle_5154" data-name="Rectangle 5154" d="M18.724,0h132.14a18.724,18.724,0,0,1,18.724,18.724V73.585A18.724,18.724,0,0,1,150.864,92.31H18.725A18.725,18.725,0,0,1,0,73.585V18.724A18.724,18.724,0,0,1,18.724,0Z" transform="translate(7984.95 -5656.934)" fill="url(#radial-gradient-6)"/>
    <path id="Rectangle_5155" data-name="Rectangle 5155" d="M18.724,0h132.14a18.724,18.724,0,0,1,18.724,18.724V73.585A18.724,18.724,0,0,1,150.864,92.31H18.725A18.725,18.725,0,0,1,0,73.585V18.724A18.724,18.724,0,0,1,18.724,0Z" transform="translate(7343.152 -5810.506)" fill="url(#radial-gradient-7)"/>
    <path id="Rectangle_5156" data-name="Rectangle 5156" d="M18.724,0h132.14a18.724,18.724,0,0,1,18.724,18.724V73.585A18.724,18.724,0,0,1,150.864,92.31H18.725A18.725,18.725,0,0,1,0,73.585V18.724A18.724,18.724,0,0,1,18.724,0Z" transform="translate(7650.227 -5810.506)" fill="url(#radial-gradient-8)"/>
    <rect id="Rectangle_5157" data-name="Rectangle 5157" width="128.04" height="69.694" rx="14.137" transform="translate(7555.001 -5917.742)" fill="url(#radial-gradient-9)"/>
    <path id="Rectangle_5158" data-name="Rectangle 5158" d="M18.724,0h132.14a18.724,18.724,0,0,1,18.724,18.724V73.585A18.724,18.724,0,0,1,150.864,92.31H18.725A18.725,18.725,0,0,1,0,73.585V18.724A18.724,18.724,0,0,1,18.724,0Z" transform="translate(7954.282 -5810.506)" fill="url(#radial-gradient-10)"/>
    <g id="Group_55404" data-name="Group 55404" transform="translate(7924.876 -5688.301)">
      <g id="Group_55397" data-name="Group 55397">
        <g id="Group_55393" data-name="Group 55393" transform="translate(33.374)">
          <path id="Path_101366" data-name="Path 101366" d="M7984.716-5681.942h.976a.732.732,0,0,1,.731.732.731.731,0,0,1-.731.731h-.976a.731.731,0,0,1-.731-.731A.732.732,0,0,1,7984.716-5681.942Z" transform="translate(-7983.985 5681.942)" fill="#81c140"/>
        </g>
        <g id="Group_55394" data-name="Group 55394">
          <path id="Path_101367" data-name="Path 101367" d="M7961.633-5681.942h1.57a.732.732,0,0,1,.732.732.731.731,0,0,1-.732.731l-1.86,0a.726.726,0,0,1-.752-.71.735.735,0,0,1,.712-.752Zm5.331,0h1.879a.732.732,0,0,1,.731.732.731.731,0,0,1-.731.731h-1.879a.731.731,0,0,1-.732-.731A.732.732,0,0,1,7966.964-5681.942Zm5.64,0h1.88a.732.732,0,0,1,.731.732.731.731,0,0,1-.731.731h-1.88a.731.731,0,0,1-.732-.731A.732.732,0,0,1,7972.6-5681.942Zm5.641,0h1.879a.732.732,0,0,1,.732.732.731.731,0,0,1-.732.731h-1.879a.731.731,0,0,1-.732-.731A.732.732,0,0,1,7978.245-5681.942Zm-20.592.736a.734.734,0,0,1,.683.469.733.733,0,0,1-.42.946,10.464,10.464,0,0,0-1.58.766.73.73,0,0,1-1-.255.73.73,0,0,1,.254-1,11.92,11.92,0,0,1,1.8-.874A.743.743,0,0,1,7957.653-5681.206Zm-4.541,3.245a.731.731,0,0,1,.472.171.731.731,0,0,1,.09,1.03,10.681,10.681,0,0,0-1.013,1.435.733.733,0,0,1-1,.26.732.732,0,0,1-.259-1,12.075,12.075,0,0,1,1.153-1.634A.73.73,0,0,1,7953.112-5677.961Zm-2.4,5.034a.76.76,0,0,1,.14.014.732.732,0,0,1,.581.856,10.248,10.248,0,0,0-.183,1.744.747.747,0,0,1-.746.717.732.732,0,0,1-.718-.746,11.909,11.909,0,0,1,.21-1.99A.73.73,0,0,1,7950.71-5672.927Zm-.2,5.627a.732.732,0,0,1,.732.732v1.88a.732.732,0,0,1-.732.731.732.732,0,0,1-.731-.731v-1.88A.732.732,0,0,1,7950.511-5667.3Zm0,5.641a.732.732,0,0,1,.732.732v1.88a.731.731,0,0,1-.732.731.731.731,0,0,1-.731-.731v-1.88A.732.732,0,0,1,7950.511-5661.659Zm0,5.641a.731.731,0,0,1,.732.731v1.88a.732.732,0,0,1-.732.732.732.732,0,0,1-.731-.732v-1.88A.731.731,0,0,1,7950.511-5656.018Zm0,5.641a.732.732,0,0,1,.732.731v1.88a.732.732,0,0,1-.732.732.732.732,0,0,1-.731-.732v-1.88A.732.732,0,0,1,7950.511-5650.377Z" transform="translate(-7949.779 5681.942)" fill="#81c140"/>
        </g>
        <g id="Group_55395" data-name="Group 55395" transform="translate(0 37.216)">
          <path id="Path_101368" data-name="Path 101368" d="M7950.511-5643.8a.732.732,0,0,1,.732.732v.976a.732.732,0,0,1-.732.731.732.732,0,0,1-.731-.731v-.976A.732.732,0,0,1,7950.511-5643.8Z" transform="translate(-7949.779 5643.798)" fill="#81c140"/>
        </g>
        <g id="Group_55396" data-name="Group 55396" transform="translate(0 43.248)">
          <path id="Path_101369" data-name="Path 101369" d="M7950.511-5637.615a.731.731,0,0,1,.732.731v45.213a.731.731,0,0,1-.732.731.731.731,0,0,1-.731-.731v-45.213A.732.732,0,0,1,7950.511-5637.615Z" transform="translate(-7949.779 5637.615)" fill="#81c140"/>
        </g>
      </g>
      <g id="Group_55398" data-name="Group 55398" transform="translate(37.694)">
        <path id="Path_101370" data-name="Path 101370" d="M7989.145-5681.942h163.446a11.867,11.867,0,0,1,11.854,11.854v65.357a.732.732,0,0,1-.732.731.732.732,0,0,1-.732-.731v-65.357a10.4,10.4,0,0,0-10.39-10.39H7989.145a.732.732,0,0,1-.732-.731A.732.732,0,0,1,7989.145-5681.942Z" transform="translate(-7988.413 5681.942)" fill="#81c140"/>
      </g>
      <g id="Group_55402" data-name="Group 55402" transform="translate(175.035 78.988)">
        <g id="Group_55399" data-name="Group 55399" transform="translate(0 20.838)">
          <path id="Path_101371" data-name="Path 101371" d="M8129.912-5579.626h.976a.732.732,0,0,1,.731.731.732.732,0,0,1-.731.732h-.976a.732.732,0,0,1-.732-.732A.732.732,0,0,1,8129.912-5579.626Z" transform="translate(-8129.18 5579.626)" fill="#81c140"/>
        </g>
        <g id="Group_55400" data-name="Group 55400" transform="translate(4.924 4.935)">
          <path id="Path_101372" data-name="Path 101372" d="M8167.261-5595.926a.732.732,0,0,1,.732.732v1.975a.732.732,0,0,1-.732.731.732.732,0,0,1-.732-.731v-1.975A.732.732,0,0,1,8167.261-5595.926Zm-.06,5.92a.62.62,0,0,1,.074,0,.731.731,0,0,1,.655.8,11.641,11.641,0,0,1-.4,2.065.731.731,0,0,1-.906.5.732.732,0,0,1-.5-.905,10.206,10.206,0,0,0,.348-1.806A.732.732,0,0,1,8167.2-5590.005Zm-2.111,5.456a.73.73,0,0,1,.434.143.732.732,0,0,1,.155,1.024,12.167,12.167,0,0,1-1.392,1.573.731.731,0,0,1-1.034-.028.731.731,0,0,1,.028-1.034,10.573,10.573,0,0,0,1.221-1.38A.73.73,0,0,1,8165.09-5584.55Zm-4.587,3.635a.731.731,0,0,1,.672.444.732.732,0,0,1-.385.961,11.815,11.815,0,0,1-2,.651.732.732,0,0,1-.877-.549.733.733,0,0,1,.549-.877,10.251,10.251,0,0,0,1.751-.571A.734.734,0,0,1,8160.5-5580.915Zm-25.544.892h1.975a.732.732,0,0,1,.732.731.732.732,0,0,1-.732.732h-1.975a.732.732,0,0,1-.732-.732A.732.732,0,0,1,8134.959-5580.022Zm5.923,0h1.974a.732.732,0,0,1,.731.731.732.732,0,0,1-.731.732h-1.974a.732.732,0,0,1-.732-.732A.732.732,0,0,1,8140.882-5580.022Zm5.922,0h1.974a.732.732,0,0,1,.732.731.732.732,0,0,1-.732.732H8146.8a.732.732,0,0,1-.732-.732A.732.732,0,0,1,8146.8-5580.022Zm5.922,0h1.976a.732.732,0,0,1,.731.731.732.732,0,0,1-.731.732h-1.976a.732.732,0,0,1-.731-.732A.732.732,0,0,1,8152.727-5580.022Z" transform="translate(-8134.227 5595.926)" fill="#81c140"/>
        </g>
        <g id="Group_55401" data-name="Group 55401" transform="translate(37.226)">
          <path id="Path_101373" data-name="Path 101373" d="M8168.067-5600.984a.732.732,0,0,1,.732.732v.976a.732.732,0,0,1-.732.731.732.732,0,0,1-.732-.731v-.976A.732.732,0,0,1,8168.067-5600.984Z" transform="translate(-8167.335 5600.984)" fill="#81c140"/>
        </g>
      </g>
      <g id="Group_55403" data-name="Group 55403" transform="translate(0 88.704)">
        <path id="Path_101374" data-name="Path 101374" d="M7950.511-5591.025a.732.732,0,0,1,.732.731,10.4,10.4,0,0,0,10.39,10.39h160.986a.732.732,0,0,1,.732.731.732.732,0,0,1-.732.732H7961.633a11.868,11.868,0,0,1-11.854-11.854A.732.732,0,0,1,7950.511-5591.025Z" transform="translate(-7949.779 5591.025)" fill="#81c140"/>
      </g>
      <rect id="Rectangle_5159" data-name="Rectangle 5159" width="201.525" height="89.09" rx="7.898" transform="translate(6.1 6.1)" fill="#fff"/>
      <path id="Path_101375" data-name="Path 101375" d="M7963.712-5587.6a6.731,6.731,0,0,1-6.73-6.73v-73.679a6.73,6.73,0,0,1,6.73-6.73h186.114a6.73,6.73,0,0,1,6.73,6.73v73.679a6.731,6.731,0,0,1-6.73,6.73H7963.712m0,1.951h186.114a8.692,8.692,0,0,0,8.681-8.681v-73.679a8.692,8.692,0,0,0-8.681-8.682H7963.712a8.692,8.692,0,0,0-8.682,8.682v73.679a8.692,8.692,0,0,0,8.682,8.681Z" transform="translate(-7949.907 5681.814)" fill="#81c140"/>
    </g>
    <g id="Group_55416" data-name="Group 55416" transform="translate(7679.277 -5688.301)">
      <g id="Group_55409" data-name="Group 55409">
        <g id="Group_55405" data-name="Group 55405" transform="translate(33.373)">
          <path id="Path_101376" data-name="Path 101376" d="M7732.991-5681.942h.976a.732.732,0,0,1,.732.732.731.731,0,0,1-.732.731h-.976a.731.731,0,0,1-.732-.731A.732.732,0,0,1,7732.991-5681.942Z" transform="translate(-7732.259 5681.942)" fill="#81c140"/>
        </g>
        <g id="Group_55406" data-name="Group 55406">
          <path id="Path_101377" data-name="Path 101377" d="M7709.906-5681.942h1.57a.732.732,0,0,1,.732.732.731.731,0,0,1-.732.731l-1.86,0a.725.725,0,0,1-.752-.71.734.734,0,0,1,.712-.752Zm5.33,0h1.88a.732.732,0,0,1,.732.732.731.731,0,0,1-.732.731h-1.88a.731.731,0,0,1-.731-.731A.732.732,0,0,1,7715.236-5681.942Zm5.641,0h1.88a.732.732,0,0,1,.732.732.731.731,0,0,1-.732.731h-1.88a.732.732,0,0,1-.732-.731A.732.732,0,0,1,7720.877-5681.942Zm5.641,0h1.88a.732.732,0,0,1,.731.732.731.731,0,0,1-.731.731h-1.88a.731.731,0,0,1-.732-.731A.732.732,0,0,1,7726.518-5681.942Zm-20.591.736a.735.735,0,0,1,.683.469.733.733,0,0,1-.421.946,10.419,10.419,0,0,0-1.58.766.73.73,0,0,1-1-.255.731.731,0,0,1,.254-1,11.943,11.943,0,0,1,1.8-.874A.748.748,0,0,1,7705.927-5681.206Zm-4.541,3.245a.731.731,0,0,1,.471.171.73.73,0,0,1,.088,1.03,10.857,10.857,0,0,0-1.013,1.435.732.732,0,0,1-1,.26.734.734,0,0,1-.26-1,12.082,12.082,0,0,1,1.154-1.634A.728.728,0,0,1,7701.386-5677.961Zm-2.4,5.034a.752.752,0,0,1,.14.014.732.732,0,0,1,.581.856,10.2,10.2,0,0,0-.184,1.744.746.746,0,0,1-.747.717.731.731,0,0,1-.717-.746,11.908,11.908,0,0,1,.209-1.99A.731.731,0,0,1,7698.983-5672.927Zm-.2,5.627a.732.732,0,0,1,.731.732v1.88a.732.732,0,0,1-.731.731.732.732,0,0,1-.732-.731v-1.88A.732.732,0,0,1,7698.785-5667.3Zm0,5.641a.732.732,0,0,1,.731.732v1.88a.731.731,0,0,1-.731.731.731.731,0,0,1-.732-.731v-1.88A.732.732,0,0,1,7698.785-5661.659Zm0,5.641a.731.731,0,0,1,.731.731v1.88a.732.732,0,0,1-.731.732.732.732,0,0,1-.732-.732v-1.88A.731.731,0,0,1,7698.785-5656.018Zm0,5.641a.732.732,0,0,1,.731.731v1.88a.732.732,0,0,1-.731.732.732.732,0,0,1-.732-.732v-1.88A.732.732,0,0,1,7698.785-5650.377Z" transform="translate(-7698.053 5681.942)" fill="#81c140"/>
        </g>
        <g id="Group_55407" data-name="Group 55407" transform="translate(0 37.216)">
          <path id="Path_101378" data-name="Path 101378" d="M7698.785-5643.8a.732.732,0,0,1,.731.732v.976a.732.732,0,0,1-.731.731.732.732,0,0,1-.732-.731v-.976A.732.732,0,0,1,7698.785-5643.8Z" transform="translate(-7698.053 5643.798)" fill="#81c140"/>
        </g>
        <g id="Group_55408" data-name="Group 55408" transform="translate(0 43.248)">
          <path id="Path_101379" data-name="Path 101379" d="M7698.785-5637.615a.732.732,0,0,1,.731.731v45.213a.731.731,0,0,1-.731.731.731.731,0,0,1-.732-.731v-45.213A.731.731,0,0,1,7698.785-5637.615Z" transform="translate(-7698.053 5637.615)" fill="#81c140"/>
        </g>
      </g>
      <g id="Group_55410" data-name="Group 55410" transform="translate(37.694)">
        <path id="Path_101380" data-name="Path 101380" d="M7737.419-5681.942h163.446a11.867,11.867,0,0,1,11.854,11.854v65.357a.732.732,0,0,1-.732.731.731.731,0,0,1-.731-.731v-65.357a10.4,10.4,0,0,0-10.39-10.39H7737.419a.732.732,0,0,1-.732-.731A.732.732,0,0,1,7737.419-5681.942Z" transform="translate(-7736.687 5681.942)" fill="#81c140"/>
      </g>
      <g id="Group_55414" data-name="Group 55414" transform="translate(175.035 78.988)">
        <g id="Group_55411" data-name="Group 55411" transform="translate(0 20.838)">
          <path id="Path_101381" data-name="Path 101381" d="M7878.186-5579.626h.976a.732.732,0,0,1,.732.731.732.732,0,0,1-.732.732h-.976a.732.732,0,0,1-.732-.732A.732.732,0,0,1,7878.186-5579.626Z" transform="translate(-7877.454 5579.626)" fill="#81c140"/>
        </g>
        <g id="Group_55412" data-name="Group 55412" transform="translate(4.924 4.935)">
          <path id="Path_101382" data-name="Path 101382" d="M7915.535-5595.926a.732.732,0,0,1,.732.732v1.975a.732.732,0,0,1-.732.731.731.731,0,0,1-.731-.731v-1.975A.731.731,0,0,1,7915.535-5595.926Zm-.06,5.92a.633.633,0,0,1,.075,0,.731.731,0,0,1,.654.8,11.6,11.6,0,0,1-.4,2.065.731.731,0,0,1-.906.5.733.733,0,0,1-.5-.905,10.167,10.167,0,0,0,.35-1.806A.731.731,0,0,1,7915.475-5590.005Zm-2.111,5.456a.73.73,0,0,1,.434.143.731.731,0,0,1,.154,1.024,12.087,12.087,0,0,1-1.391,1.573.731.731,0,0,1-1.034-.028.732.732,0,0,1,.027-1.034,10.605,10.605,0,0,0,1.22-1.38A.733.733,0,0,1,7913.364-5584.55Zm-4.587,3.635a.731.731,0,0,1,.672.444.732.732,0,0,1-.384.961,11.829,11.829,0,0,1-2,.651.733.733,0,0,1-.878-.549.734.734,0,0,1,.55-.877,10.279,10.279,0,0,0,1.751-.571A.733.733,0,0,1,7908.777-5580.915Zm-25.544.892h1.975a.732.732,0,0,1,.731.731.732.732,0,0,1-.731.732h-1.975a.732.732,0,0,1-.731-.732A.732.732,0,0,1,7883.232-5580.022Zm5.922,0h1.975a.732.732,0,0,1,.732.731.732.732,0,0,1-.732.732h-1.975a.732.732,0,0,1-.732-.732A.732.732,0,0,1,7889.155-5580.022Zm5.923,0h1.974a.732.732,0,0,1,.731.731.732.732,0,0,1-.731.732h-1.974a.732.732,0,0,1-.731-.732A.732.732,0,0,1,7895.078-5580.022Zm5.922,0h1.975a.731.731,0,0,1,.732.731.732.732,0,0,1-.732.732H7901a.732.732,0,0,1-.732-.732A.732.732,0,0,1,7901-5580.022Z" transform="translate(-7882.501 5595.926)" fill="#81c140"/>
        </g>
        <g id="Group_55413" data-name="Group 55413" transform="translate(37.226)">
          <path id="Path_101383" data-name="Path 101383" d="M7916.341-5600.984a.731.731,0,0,1,.731.732v.976a.731.731,0,0,1-.731.731.731.731,0,0,1-.731-.731v-.976A.731.731,0,0,1,7916.341-5600.984Z" transform="translate(-7915.609 5600.984)" fill="#81c140"/>
        </g>
      </g>
      <g id="Group_55415" data-name="Group 55415" transform="translate(0 88.704)">
        <path id="Path_101384" data-name="Path 101384" d="M7698.785-5591.025a.732.732,0,0,1,.731.731,10.4,10.4,0,0,0,10.39,10.39h160.987a.732.732,0,0,1,.731.731.732.732,0,0,1-.731.732H7709.906a11.867,11.867,0,0,1-11.853-11.854A.732.732,0,0,1,7698.785-5591.025Z" transform="translate(-7698.053 5591.025)" fill="#81c140"/>
      </g>
      <rect id="Rectangle_5160" data-name="Rectangle 5160" width="201.525" height="89.09" rx="7.898" transform="translate(6.099 6.1)" fill="#fff"/>
      <path id="Path_101385" data-name="Path 101385" d="M7711.987-5587.6a6.73,6.73,0,0,1-6.73-6.73v-73.679a6.729,6.729,0,0,1,6.73-6.73H7898.1a6.73,6.73,0,0,1,6.73,6.73v73.679a6.731,6.731,0,0,1-6.73,6.73H7711.987m0,1.951H7898.1a8.692,8.692,0,0,0,8.682-8.681v-73.679a8.691,8.691,0,0,0-8.682-8.682H7711.987a8.691,8.691,0,0,0-8.682,8.682v73.679a8.692,8.692,0,0,0,8.682,8.681Z" transform="translate(-7698.181 5681.814)" fill="#81c140"/>
    </g>
    <g id="Group_55428" data-name="Group 55428" transform="translate(7433.677 -5688.301)">
      <g id="Group_55421" data-name="Group 55421">
        <g id="Group_55417" data-name="Group 55417" transform="translate(33.374)">
          <path id="Path_101386" data-name="Path 101386" d="M7481.265-5681.942h.976a.732.732,0,0,1,.732.732.731.731,0,0,1-.732.731h-.976a.731.731,0,0,1-.731-.731A.732.732,0,0,1,7481.265-5681.942Z" transform="translate(-7480.534 5681.942)" fill="#81c140"/>
        </g>
        <g id="Group_55418" data-name="Group 55418">
          <path id="Path_101387" data-name="Path 101387" d="M7458.18-5681.942h1.571a.732.732,0,0,1,.731.732.731.731,0,0,1-.731.731l-1.859,0a.725.725,0,0,1-.752-.71.733.733,0,0,1,.712-.752Zm5.331,0h1.88a.732.732,0,0,1,.731.732.731.731,0,0,1-.731.731h-1.88a.731.731,0,0,1-.732-.731A.732.732,0,0,1,7463.511-5681.942Zm5.641,0h1.879a.732.732,0,0,1,.732.732.731.731,0,0,1-.732.731h-1.879a.731.731,0,0,1-.731-.731A.732.732,0,0,1,7469.152-5681.942Zm5.64,0h1.88a.732.732,0,0,1,.732.732.731.731,0,0,1-.732.731h-1.88a.731.731,0,0,1-.731-.731A.732.732,0,0,1,7474.792-5681.942Zm-20.592.736a.735.735,0,0,1,.684.469.733.733,0,0,1-.42.946,10.4,10.4,0,0,0-1.58.766.73.73,0,0,1-1-.255.731.731,0,0,1,.255-1,11.92,11.92,0,0,1,1.8-.874A.744.744,0,0,1,7454.2-5681.206Zm-4.54,3.245a.726.726,0,0,1,.47.171.73.73,0,0,1,.09,1.03,10.77,10.77,0,0,0-1.013,1.435.732.732,0,0,1-1,.26.732.732,0,0,1-.259-1,12.038,12.038,0,0,1,1.154-1.634A.727.727,0,0,1,7449.66-5677.961Zm-2.4,5.034a.756.756,0,0,1,.14.014.731.731,0,0,1,.58.856,10.4,10.4,0,0,0-.183,1.744.746.746,0,0,1-.746.717.732.732,0,0,1-.717-.746,12.012,12.012,0,0,1,.209-1.99A.731.731,0,0,1,7447.258-5672.927Zm-.2,5.627a.732.732,0,0,1,.732.732v1.88a.732.732,0,0,1-.732.731.732.732,0,0,1-.732-.731v-1.88A.732.732,0,0,1,7447.059-5667.3Zm0,5.641a.732.732,0,0,1,.732.732v1.88a.731.731,0,0,1-.732.731.731.731,0,0,1-.732-.731v-1.88A.732.732,0,0,1,7447.059-5661.659Zm0,5.641a.731.731,0,0,1,.732.731v1.88a.732.732,0,0,1-.732.732.732.732,0,0,1-.732-.732v-1.88A.731.731,0,0,1,7447.059-5656.018Zm0,5.641a.732.732,0,0,1,.732.731v1.88a.732.732,0,0,1-.732.732.732.732,0,0,1-.732-.732v-1.88A.732.732,0,0,1,7447.059-5650.377Z" transform="translate(-7446.327 5681.942)" fill="#81c140"/>
        </g>
        <g id="Group_55419" data-name="Group 55419" transform="translate(0 37.216)">
          <path id="Path_101388" data-name="Path 101388" d="M7447.059-5643.8a.732.732,0,0,1,.732.732v.976a.732.732,0,0,1-.732.731.732.732,0,0,1-.732-.731v-.976A.732.732,0,0,1,7447.059-5643.8Z" transform="translate(-7446.327 5643.798)" fill="#81c140"/>
        </g>
        <g id="Group_55420" data-name="Group 55420" transform="translate(0 43.248)">
          <path id="Path_101389" data-name="Path 101389" d="M7447.059-5637.615a.732.732,0,0,1,.732.731v45.213a.731.731,0,0,1-.732.731.731.731,0,0,1-.732-.731v-45.213A.732.732,0,0,1,7447.059-5637.615Z" transform="translate(-7446.327 5637.615)" fill="#81c140"/>
        </g>
      </g>
      <g id="Group_55422" data-name="Group 55422" transform="translate(37.694)">
        <path id="Path_101390" data-name="Path 101390" d="M7485.692-5681.942h163.446a11.866,11.866,0,0,1,11.852,11.854v65.357a.732.732,0,0,1-.731.731.732.732,0,0,1-.732-.731v-65.357a10.4,10.4,0,0,0-10.389-10.39H7485.692a.732.732,0,0,1-.731-.731A.732.732,0,0,1,7485.692-5681.942Z" transform="translate(-7484.961 5681.942)" fill="#81c140"/>
      </g>
      <g id="Group_55426" data-name="Group 55426" transform="translate(175.035 78.988)">
        <g id="Group_55423" data-name="Group 55423" transform="translate(0 20.838)">
          <path id="Path_101391" data-name="Path 101391" d="M7626.459-5579.626h.976a.732.732,0,0,1,.731.731.732.732,0,0,1-.731.732h-.976a.732.732,0,0,1-.731-.732A.732.732,0,0,1,7626.459-5579.626Z" transform="translate(-7625.728 5579.626)" fill="#81c140"/>
        </g>
        <g id="Group_55424" data-name="Group 55424" transform="translate(4.924 4.935)">
          <path id="Path_101392" data-name="Path 101392" d="M7663.808-5595.926a.732.732,0,0,1,.731.732v1.975a.732.732,0,0,1-.731.731.732.732,0,0,1-.732-.731v-1.975A.732.732,0,0,1,7663.808-5595.926Zm-.059,5.92a.624.624,0,0,1,.074,0,.732.732,0,0,1,.655.8,11.684,11.684,0,0,1-.4,2.065.733.733,0,0,1-.907.5.731.731,0,0,1-.5-.905,10.253,10.253,0,0,0,.349-1.806A.731.731,0,0,1,7663.75-5590.005Zm-2.111,5.456a.729.729,0,0,1,.433.143.732.732,0,0,1,.154,1.024,12.087,12.087,0,0,1-1.391,1.573.731.731,0,0,1-1.034-.028.731.731,0,0,1,.027-1.034,10.649,10.649,0,0,0,1.221-1.38A.731.731,0,0,1,7661.639-5584.55Zm-4.588,3.635a.731.731,0,0,1,.672.444.733.733,0,0,1-.385.961,11.844,11.844,0,0,1-2,.651.733.733,0,0,1-.878-.549.733.733,0,0,1,.551-.877,10.279,10.279,0,0,0,1.751-.571A.727.727,0,0,1,7657.051-5580.915Zm-25.544.892h1.974a.732.732,0,0,1,.732.731.732.732,0,0,1-.732.732h-1.974a.732.732,0,0,1-.732-.732A.732.732,0,0,1,7631.507-5580.022Zm5.922,0h1.975a.732.732,0,0,1,.732.731.732.732,0,0,1-.732.732h-1.975a.732.732,0,0,1-.731-.732A.732.732,0,0,1,7637.429-5580.022Zm5.923,0h1.974a.732.732,0,0,1,.732.731.732.732,0,0,1-.732.732h-1.974a.731.731,0,0,1-.732-.732A.731.731,0,0,1,7643.353-5580.022Zm5.922,0h1.975a.732.732,0,0,1,.732.731.732.732,0,0,1-.732.732h-1.975a.732.732,0,0,1-.731-.732A.732.732,0,0,1,7649.274-5580.022Z" transform="translate(-7630.775 5595.926)" fill="#81c140"/>
        </g>
        <g id="Group_55425" data-name="Group 55425" transform="translate(37.225)">
          <path id="Path_101393" data-name="Path 101393" d="M7664.614-5600.984a.732.732,0,0,1,.731.732v.976a.732.732,0,0,1-.731.731.732.732,0,0,1-.732-.731v-.976A.732.732,0,0,1,7664.614-5600.984Z" transform="translate(-7663.882 5600.984)" fill="#81c140"/>
        </g>
      </g>
      <g id="Group_55427" data-name="Group 55427" transform="translate(0 88.704)">
        <path id="Path_101394" data-name="Path 101394" d="M7447.059-5591.025a.732.732,0,0,1,.732.731,10.4,10.4,0,0,0,10.389,10.39h160.987a.732.732,0,0,1,.732.731.732.732,0,0,1-.732.732H7458.18a11.867,11.867,0,0,1-11.853-11.854A.732.732,0,0,1,7447.059-5591.025Z" transform="translate(-7446.327 5591.025)" fill="#81c140"/>
      </g>
      <rect id="Rectangle_5161" data-name="Rectangle 5161" width="201.525" height="89.09" rx="7.898" transform="translate(6.099 6.1)" fill="#fff"/>
      <path id="Path_101395" data-name="Path 101395" d="M7460.261-5587.6a6.73,6.73,0,0,1-6.73-6.73v-73.679a6.729,6.729,0,0,1,6.73-6.73h186.113a6.729,6.729,0,0,1,6.73,6.73v73.679a6.73,6.73,0,0,1-6.73,6.73H7460.261m0,1.951h186.113a8.691,8.691,0,0,0,8.681-8.681v-73.679a8.691,8.691,0,0,0-8.681-8.682H7460.261a8.691,8.691,0,0,0-8.681,8.682v73.679a8.692,8.692,0,0,0,8.681,8.681Z" transform="translate(-7446.456 5681.814)" fill="#81c140"/>
    </g>
    <g id="Group_55440" data-name="Group 55440" transform="translate(7188.077 -5688.301)">
      <g id="Group_55433" data-name="Group 55433">
        <g id="Group_55429" data-name="Group 55429" transform="translate(33.374)">
          <path id="Path_101396" data-name="Path 101396" d="M7229.539-5681.942h.976a.732.732,0,0,1,.731.732.731.731,0,0,1-.731.731h-.976a.731.731,0,0,1-.732-.731A.732.732,0,0,1,7229.539-5681.942Z" transform="translate(-7228.807 5681.942)" fill="#81c140"/>
        </g>
        <g id="Group_55430" data-name="Group 55430">
          <path id="Path_101397" data-name="Path 101397" d="M7206.453-5681.942h1.571a.732.732,0,0,1,.732.732.731.731,0,0,1-.732.731l-1.86,0a.725.725,0,0,1-.751-.71.733.733,0,0,1,.711-.752Zm5.331,0h1.88a.732.732,0,0,1,.732.732.731.731,0,0,1-.732.731h-1.88a.731.731,0,0,1-.732-.731A.732.732,0,0,1,7211.784-5681.942Zm5.641,0h1.88a.732.732,0,0,1,.731.732.731.731,0,0,1-.731.731h-1.88a.731.731,0,0,1-.732-.731A.732.732,0,0,1,7217.425-5681.942Zm5.641,0h1.879a.732.732,0,0,1,.731.732.731.731,0,0,1-.731.731h-1.879a.731.731,0,0,1-.732-.731A.732.732,0,0,1,7223.066-5681.942Zm-20.592.736a.733.733,0,0,1,.683.469.733.733,0,0,1-.42.946,10.375,10.375,0,0,0-1.58.766.731.731,0,0,1-1-.255.732.732,0,0,1,.256-1,11.938,11.938,0,0,1,1.8-.874A.744.744,0,0,1,7202.474-5681.206Zm-4.54,3.245a.728.728,0,0,1,.47.171.73.73,0,0,1,.089,1.03,10.675,10.675,0,0,0-1.012,1.435.733.733,0,0,1-1,.26.733.733,0,0,1-.26-1,12.082,12.082,0,0,1,1.154-1.634A.729.729,0,0,1,7197.934-5677.961Zm-2.4,5.034a.76.76,0,0,1,.14.014.732.732,0,0,1,.58.856,10.3,10.3,0,0,0-.183,1.744.746.746,0,0,1-.747.717.731.731,0,0,1-.717-.746,11.807,11.807,0,0,1,.209-1.99A.73.73,0,0,1,7195.532-5672.927Zm-.2,5.627a.732.732,0,0,1,.732.732v1.88a.732.732,0,0,1-.732.731.732.732,0,0,1-.731-.731v-1.88A.732.732,0,0,1,7195.333-5667.3Zm0,5.641a.732.732,0,0,1,.732.732v1.88a.731.731,0,0,1-.732.731.731.731,0,0,1-.731-.731v-1.88A.732.732,0,0,1,7195.333-5661.659Zm0,5.641a.731.731,0,0,1,.732.731v1.88a.732.732,0,0,1-.732.732.732.732,0,0,1-.731-.732v-1.88A.731.731,0,0,1,7195.333-5656.018Zm0,5.641a.732.732,0,0,1,.732.731v1.88a.732.732,0,0,1-.732.732.732.732,0,0,1-.731-.732v-1.88A.732.732,0,0,1,7195.333-5650.377Z" transform="translate(-7194.601 5681.942)" fill="#81c140"/>
        </g>
        <g id="Group_55431" data-name="Group 55431" transform="translate(0 37.216)">
          <path id="Path_101398" data-name="Path 101398" d="M7195.333-5643.8a.732.732,0,0,1,.732.732v.976a.732.732,0,0,1-.732.731.732.732,0,0,1-.731-.731v-.976A.732.732,0,0,1,7195.333-5643.8Z" transform="translate(-7194.601 5643.798)" fill="#81c140"/>
        </g>
        <g id="Group_55432" data-name="Group 55432" transform="translate(0 43.248)">
          <path id="Path_101399" data-name="Path 101399" d="M7195.333-5637.615a.731.731,0,0,1,.732.731v45.213a.731.731,0,0,1-.732.731.731.731,0,0,1-.731-.731v-45.213A.731.731,0,0,1,7195.333-5637.615Z" transform="translate(-7194.601 5637.615)" fill="#81c140"/>
        </g>
      </g>
      <g id="Group_55434" data-name="Group 55434" transform="translate(37.694)">
        <path id="Path_101400" data-name="Path 101400" d="M7233.967-5681.942h163.446a11.866,11.866,0,0,1,11.853,11.854v65.357a.732.732,0,0,1-.732.731.732.732,0,0,1-.731-.731v-65.357a10.4,10.4,0,0,0-10.389-10.39H7233.967a.732.732,0,0,1-.732-.731A.732.732,0,0,1,7233.967-5681.942Z" transform="translate(-7233.235 5681.942)" fill="#81c140"/>
      </g>
      <g id="Group_55438" data-name="Group 55438" transform="translate(175.035 78.988)">
        <g id="Group_55435" data-name="Group 55435" transform="translate(0 20.838)">
          <path id="Path_101401" data-name="Path 101401" d="M7374.734-5579.626h.976a.732.732,0,0,1,.732.731.732.732,0,0,1-.732.732h-.976a.732.732,0,0,1-.732-.732A.732.732,0,0,1,7374.734-5579.626Z" transform="translate(-7374.002 5579.626)" fill="#81c140"/>
        </g>
        <g id="Group_55436" data-name="Group 55436" transform="translate(4.924 4.935)">
          <path id="Path_101402" data-name="Path 101402" d="M7412.082-5595.926a.732.732,0,0,1,.732.732v1.975a.732.732,0,0,1-.732.731.732.732,0,0,1-.731-.731v-1.975A.732.732,0,0,1,7412.082-5595.926Zm-.058,5.92a.626.626,0,0,1,.074,0,.731.731,0,0,1,.655.8,11.642,11.642,0,0,1-.4,2.065.731.731,0,0,1-.905.5.732.732,0,0,1-.5-.905,10.253,10.253,0,0,0,.349-1.806A.731.731,0,0,1,7412.024-5590.005Zm-2.111,5.456a.73.73,0,0,1,.433.143.732.732,0,0,1,.154,1.024,12.135,12.135,0,0,1-1.393,1.573.73.73,0,0,1-1.033-.028.731.731,0,0,1,.028-1.034,10.605,10.605,0,0,0,1.22-1.38A.733.733,0,0,1,7409.913-5584.55Zm-4.589,3.635a.732.732,0,0,1,.673.444.732.732,0,0,1-.385.961,11.819,11.819,0,0,1-2,.651.732.732,0,0,1-.878-.549.732.732,0,0,1,.55-.877,10.278,10.278,0,0,0,1.75-.571A.734.734,0,0,1,7405.324-5580.915Zm-25.543.892h1.974a.732.732,0,0,1,.732.731.732.732,0,0,1-.732.732h-1.974a.732.732,0,0,1-.731-.732A.732.732,0,0,1,7379.781-5580.022Zm5.923,0h1.974a.731.731,0,0,1,.732.731.732.732,0,0,1-.732.732H7385.7a.732.732,0,0,1-.732-.732A.732.732,0,0,1,7385.7-5580.022Zm5.922,0h1.975a.732.732,0,0,1,.732.731.732.732,0,0,1-.732.732h-1.975a.732.732,0,0,1-.731-.732A.732.732,0,0,1,7391.625-5580.022Zm5.923,0h1.975a.732.732,0,0,1,.731.731.732.732,0,0,1-.731.732h-1.975a.732.732,0,0,1-.732-.732A.732.732,0,0,1,7397.549-5580.022Z" transform="translate(-7379.049 5595.926)" fill="#81c140"/>
        </g>
        <g id="Group_55437" data-name="Group 55437" transform="translate(37.225)">
          <path id="Path_101403" data-name="Path 101403" d="M7412.888-5600.984a.732.732,0,0,1,.732.732v.976a.732.732,0,0,1-.732.731.732.732,0,0,1-.731-.731v-.976A.732.732,0,0,1,7412.888-5600.984Z" transform="translate(-7412.156 5600.984)" fill="#81c140"/>
        </g>
      </g>
      <g id="Group_55439" data-name="Group 55439" transform="translate(0 88.704)">
        <path id="Path_101404" data-name="Path 101404" d="M7195.333-5591.025a.732.732,0,0,1,.732.731,10.4,10.4,0,0,0,10.389,10.39H7367.44a.732.732,0,0,1,.732.731.732.732,0,0,1-.732.732H7206.453a11.867,11.867,0,0,1-11.852-11.854A.732.732,0,0,1,7195.333-5591.025Z" transform="translate(-7194.601 5591.025)" fill="#81c140"/>
      </g>
      <rect id="Rectangle_5162" data-name="Rectangle 5162" width="201.525" height="89.09" rx="7.898" transform="translate(6.099 6.1)" fill="#fff"/>
      <path id="Path_101405" data-name="Path 101405" d="M7208.535-5587.6a6.73,6.73,0,0,1-6.73-6.73v-73.679a6.73,6.73,0,0,1,6.73-6.73h186.112a6.729,6.729,0,0,1,6.73,6.73v73.679a6.73,6.73,0,0,1-6.73,6.73H7208.535m0,1.951h186.112a8.691,8.691,0,0,0,8.682-8.681v-73.679a8.691,8.691,0,0,0-8.682-8.682H7208.535a8.692,8.692,0,0,0-8.682,8.682v73.679a8.692,8.692,0,0,0,8.682,8.681Z" transform="translate(-7194.729 5681.814)" fill="#81c140"/>
    </g>
    <g id="Group_55452" data-name="Group 55452" transform="translate(6942.477 -5688.301)">
      <g id="Group_55445" data-name="Group 55445">
        <g id="Group_55441" data-name="Group 55441" transform="translate(33.374)">
          <path id="Path_101406" data-name="Path 101406" d="M6977.812-5681.942h.976a.732.732,0,0,1,.732.732.731.731,0,0,1-.732.731h-.976a.731.731,0,0,1-.732-.731A.732.732,0,0,1,6977.812-5681.942Z" transform="translate(-6977.08 5681.942)" fill="#81c140"/>
        </g>
        <g id="Group_55442" data-name="Group 55442">
          <path id="Path_101407" data-name="Path 101407" d="M6954.728-5681.942h1.57a.732.732,0,0,1,.731.732.731.731,0,0,1-.731.731l-1.859,0a.725.725,0,0,1-.752-.71.734.734,0,0,1,.712-.752Zm5.331,0h1.879a.731.731,0,0,1,.732.732.731.731,0,0,1-.732.731h-1.879a.731.731,0,0,1-.731-.731A.732.732,0,0,1,6960.058-5681.942Zm5.641,0h1.88a.732.732,0,0,1,.732.732.731.731,0,0,1-.732.731h-1.88a.731.731,0,0,1-.731-.731A.732.732,0,0,1,6965.7-5681.942Zm5.64,0h1.88a.732.732,0,0,1,.732.732.731.731,0,0,1-.732.731h-1.88a.731.731,0,0,1-.732-.731A.732.732,0,0,1,6971.339-5681.942Zm-20.591.736a.733.733,0,0,1,.683.469.733.733,0,0,1-.42.946,10.442,10.442,0,0,0-1.58.766.731.731,0,0,1-1-.255.731.731,0,0,1,.255-1,11.938,11.938,0,0,1,1.8-.874A.75.75,0,0,1,6950.748-5681.206Zm-4.541,3.245a.731.731,0,0,1,.471.171.732.732,0,0,1,.09,1.03,10.591,10.591,0,0,0-1.013,1.435.734.734,0,0,1-1,.26.733.733,0,0,1-.258-1,11.989,11.989,0,0,1,1.153-1.634A.731.731,0,0,1,6946.207-5677.961Zm-2.4,5.034a.768.768,0,0,1,.14.014.732.732,0,0,1,.58.856,10.5,10.5,0,0,0-.184,1.744.746.746,0,0,1-.746.717.733.733,0,0,1-.718-.746,11.96,11.96,0,0,1,.209-1.99A.732.732,0,0,1,6943.805-5672.927Zm-.2,5.627a.732.732,0,0,1,.731.732v1.88a.732.732,0,0,1-.731.731.732.732,0,0,1-.732-.731v-1.88A.732.732,0,0,1,6943.606-5667.3Zm0,5.641a.732.732,0,0,1,.731.732v1.88a.731.731,0,0,1-.731.731.731.731,0,0,1-.732-.731v-1.88A.732.732,0,0,1,6943.606-5661.659Zm0,5.641a.731.731,0,0,1,.731.731v1.88a.732.732,0,0,1-.731.732.732.732,0,0,1-.732-.732v-1.88A.731.731,0,0,1,6943.606-5656.018Zm0,5.641a.732.732,0,0,1,.731.731v1.88a.732.732,0,0,1-.731.732.732.732,0,0,1-.732-.732v-1.88A.732.732,0,0,1,6943.606-5650.377Z" transform="translate(-6942.874 5681.942)" fill="#81c140"/>
        </g>
        <g id="Group_55443" data-name="Group 55443" transform="translate(0 37.216)">
          <path id="Path_101408" data-name="Path 101408" d="M6943.606-5643.8a.732.732,0,0,1,.731.732v.976a.732.732,0,0,1-.731.731.732.732,0,0,1-.732-.731v-.976A.732.732,0,0,1,6943.606-5643.8Z" transform="translate(-6942.874 5643.798)" fill="#81c140"/>
        </g>
        <g id="Group_55444" data-name="Group 55444" transform="translate(0 43.248)">
          <path id="Path_101409" data-name="Path 101409" d="M6943.606-5637.615a.731.731,0,0,1,.731.731v45.213a.731.731,0,0,1-.731.731.731.731,0,0,1-.732-.731v-45.213A.731.731,0,0,1,6943.606-5637.615Z" transform="translate(-6942.874 5637.615)" fill="#81c140"/>
        </g>
      </g>
      <g id="Group_55446" data-name="Group 55446" transform="translate(37.694)">
        <path id="Path_101410" data-name="Path 101410" d="M6982.24-5681.942h163.446a11.867,11.867,0,0,1,11.854,11.854v65.357a.732.732,0,0,1-.731.731.732.732,0,0,1-.732-.731v-65.357a10.4,10.4,0,0,0-10.39-10.39H6982.24a.732.732,0,0,1-.731-.731A.732.732,0,0,1,6982.24-5681.942Z" transform="translate(-6981.508 5681.942)" fill="#81c140"/>
      </g>
      <g id="Group_55450" data-name="Group 55450" transform="translate(175.035 78.988)">
        <g id="Group_55447" data-name="Group 55447" transform="translate(0 20.838)">
          <path id="Path_101411" data-name="Path 101411" d="M7123.007-5579.626h.976a.732.732,0,0,1,.732.731.732.732,0,0,1-.732.732h-.976a.732.732,0,0,1-.731-.732A.732.732,0,0,1,7123.007-5579.626Z" transform="translate(-7122.275 5579.626)" fill="#81c140"/>
        </g>
        <g id="Group_55448" data-name="Group 55448" transform="translate(4.924 4.935)">
          <path id="Path_101412" data-name="Path 101412" d="M7160.356-5595.926a.732.732,0,0,1,.731.732v1.975a.732.732,0,0,1-.731.731.732.732,0,0,1-.732-.731v-1.975A.732.732,0,0,1,7160.356-5595.926Zm-.06,5.92a.616.616,0,0,1,.074,0,.731.731,0,0,1,.655.8,11.64,11.64,0,0,1-.4,2.065.732.732,0,0,1-.907.5.731.731,0,0,1-.5-.905,10.251,10.251,0,0,0,.348-1.806A.731.731,0,0,1,7160.3-5590.005Zm-2.112,5.456a.726.726,0,0,1,.433.143.732.732,0,0,1,.155,1.024,12.167,12.167,0,0,1-1.392,1.573.732.732,0,0,1-1.035-.028.731.731,0,0,1,.029-1.034,10.645,10.645,0,0,0,1.221-1.38A.729.729,0,0,1,7158.185-5584.55Zm-4.587,3.635a.73.73,0,0,1,.672.444.731.731,0,0,1-.384.961,11.815,11.815,0,0,1-2,.651.731.731,0,0,1-.877-.549.732.732,0,0,1,.549-.877,10.288,10.288,0,0,0,1.751-.571A.736.736,0,0,1,7153.6-5580.915Zm-25.544.892h1.975a.732.732,0,0,1,.731.731.732.732,0,0,1-.731.732h-1.975a.732.732,0,0,1-.732-.732A.732.732,0,0,1,7128.054-5580.022Zm5.923,0h1.974a.732.732,0,0,1,.732.731.732.732,0,0,1-.732.732h-1.974a.732.732,0,0,1-.732-.732A.732.732,0,0,1,7133.977-5580.022Zm5.922,0h1.974a.732.732,0,0,1,.731.731.732.732,0,0,1-.731.732H7139.9a.732.732,0,0,1-.732-.732A.732.732,0,0,1,7139.9-5580.022Zm5.922,0h1.976a.732.732,0,0,1,.732.731.732.732,0,0,1-.732.732h-1.976a.732.732,0,0,1-.732-.732A.732.732,0,0,1,7145.822-5580.022Z" transform="translate(-7127.322 5595.926)" fill="#81c140"/>
        </g>
        <g id="Group_55449" data-name="Group 55449" transform="translate(37.227)">
          <path id="Path_101413" data-name="Path 101413" d="M7161.162-5600.984a.732.732,0,0,1,.731.732v.976a.732.732,0,0,1-.731.731.732.732,0,0,1-.732-.731v-.976A.732.732,0,0,1,7161.162-5600.984Z" transform="translate(-7160.43 5600.984)" fill="#81c140"/>
        </g>
      </g>
      <g id="Group_55451" data-name="Group 55451" transform="translate(0 88.704)">
        <path id="Path_101414" data-name="Path 101414" d="M6943.606-5591.025a.732.732,0,0,1,.731.731,10.4,10.4,0,0,0,10.39,10.39h160.986a.732.732,0,0,1,.731.731.732.732,0,0,1-.731.732H6954.728a11.868,11.868,0,0,1-11.854-11.854A.732.732,0,0,1,6943.606-5591.025Z" transform="translate(-6942.874 5591.025)" fill="#81c140"/>
      </g>
      <rect id="Rectangle_5163" data-name="Rectangle 5163" width="201.525" height="89.09" rx="7.898" transform="translate(6.1 6.1)" fill="#fff"/>
      <path id="Path_101415" data-name="Path 101415" d="M6956.808-5587.6a6.731,6.731,0,0,1-6.73-6.73v-73.679a6.73,6.73,0,0,1,6.73-6.73h186.113a6.731,6.731,0,0,1,6.731,6.73v73.679a6.731,6.731,0,0,1-6.731,6.73H6956.808m0,1.951h186.113a8.692,8.692,0,0,0,8.682-8.681v-73.679a8.692,8.692,0,0,0-8.682-8.682H6956.808a8.692,8.692,0,0,0-8.682,8.682v73.679a8.692,8.692,0,0,0,8.682,8.681Z" transform="translate(-6943.002 5681.814)" fill="#81c140"/>
    </g>
    <g id="Group_55464" data-name="Group 55464" transform="translate(7419.033 -5920.651)">
      <g id="Group_55456" data-name="Group 55456" transform="translate(207.2 17.702)">
        <g id="Group_55453" data-name="Group 55453" transform="translate(0 38.19)">
          <path id="Path_101416" data-name="Path 101416" d="M7645.394-5861.336h-.976a.732.732,0,0,1-.731-.732.732.732,0,0,1,.731-.731h.976a.732.732,0,0,1,.731.731A.732.732,0,0,1,7645.394-5861.336Z" transform="translate(-7643.686 5862.8)" fill="#31326f"/>
        </g>
        <g id="Group_55454" data-name="Group 55454" transform="translate(4.736 4.746)">
          <path id="Path_101417" data-name="Path 101417" d="M7667.764-5862.17h-1.57a.732.732,0,0,1-.732-.732.733.733,0,0,1,.732-.732l1.86,0a.727.727,0,0,1,.752.711.735.735,0,0,1-.712.752Zm-5.332,0h-1.879a.731.731,0,0,1-.731-.732.732.732,0,0,1,.731-.732h1.879a.732.732,0,0,1,.732.732A.731.731,0,0,1,7662.432-5862.17Zm-5.64,0h-1.88a.732.732,0,0,1-.731-.732.732.732,0,0,1,.731-.732h1.88a.732.732,0,0,1,.732.732A.732.732,0,0,1,7656.792-5862.17Zm-5.641,0h-1.88a.731.731,0,0,1-.731-.732.732.732,0,0,1,.731-.732h1.88a.732.732,0,0,1,.732.732A.732.732,0,0,1,7651.151-5862.17Zm20.592-.736a.733.733,0,0,1-.683-.469.732.732,0,0,1,.421-.945,10.483,10.483,0,0,0,1.579-.766.729.729,0,0,1,1,.255.731.731,0,0,1-.255,1,11.923,11.923,0,0,1-1.8.875A.733.733,0,0,1,7671.743-5862.907Zm4.541-3.244a.73.73,0,0,1-.471-.172.731.731,0,0,1-.089-1.031,10.663,10.663,0,0,0,1.013-1.434.73.73,0,0,1,1-.26.733.733,0,0,1,.26,1,12.1,12.1,0,0,1-1.154,1.633A.728.728,0,0,1,7676.284-5866.15Zm2.4-5.036a.758.758,0,0,1-.14-.013.731.731,0,0,1-.58-.856,10.348,10.348,0,0,0,.183-1.743.746.746,0,0,1,.746-.718.732.732,0,0,1,.717.746,11.882,11.882,0,0,1-.21,1.99A.73.73,0,0,1,7678.686-5871.186Zm.2-5.626a.732.732,0,0,1-.732-.732v-1.881a.732.732,0,0,1,.732-.732.732.732,0,0,1,.731.732v1.881A.732.732,0,0,1,7678.885-5876.812Zm0-5.641a.732.732,0,0,1-.732-.732v-1.88a.732.732,0,0,1,.732-.731.732.732,0,0,1,.731.731v1.88A.732.732,0,0,1,7678.885-5882.454Zm0-5.641a.732.732,0,0,1-.732-.732v-1.88a.732.732,0,0,1,.732-.731.732.732,0,0,1,.731.731v1.88A.732.732,0,0,1,7678.885-5888.094Zm0-5.64a.732.732,0,0,1-.732-.732v-1.88a.732.732,0,0,1,.732-.731.732.732,0,0,1,.731.731v1.88A.732.732,0,0,1,7678.885-5893.734Z" transform="translate(-7648.54 5897.078)" fill="#31326f"/>
        </g>
        <g id="Group_55455" data-name="Group 55455" transform="translate(34.349)">
          <path id="Path_101418" data-name="Path 101418" d="M7679.624-5899.5a.732.732,0,0,1-.732-.732v-.976a.732.732,0,0,1,.732-.732.732.732,0,0,1,.731.732v.976A.732.732,0,0,1,7679.624-5899.5Z" transform="translate(-7678.892 5901.943)" fill="#31326f"/>
        </g>
      </g>
      <g id="Group_55457" data-name="Group 55457" transform="translate(0 23.346)">
        <path id="Path_101419" data-name="Path 101419" d="M7635.9-5862.148H7443.17A11.867,11.867,0,0,1,7431.318-5874v-21.425a.732.732,0,0,1,.732-.732.732.732,0,0,1,.732.732V-5874a10.4,10.4,0,0,0,10.389,10.389H7635.9a.732.732,0,0,1,.732.732A.732.732,0,0,1,7635.9-5862.148Z" transform="translate(-7431.318 5896.158)" fill="#31326f"/>
      </g>
      <g id="Group_55461" data-name="Group 55461">
        <g id="Group_55458" data-name="Group 55458" transform="translate(36.25)">
          <path id="Path_101420" data-name="Path 101420" d="M7470.18-5918.624h-.976a.732.732,0,0,1-.731-.732.732.732,0,0,1,.731-.731h.976a.732.732,0,0,1,.732.731A.732.732,0,0,1,7470.18-5918.624Z" transform="translate(-7468.473 5920.087)" fill="#31326f"/>
        </g>
        <g id="Group_55459" data-name="Group 55459">
          <path id="Path_101421" data-name="Path 101421" d="M7432.05-5902.721a.732.732,0,0,1-.732-.731v-1.975a.732.732,0,0,1,.732-.732.732.732,0,0,1,.732.732v1.975A.732.732,0,0,1,7432.05-5902.721Zm.059-5.92a.635.635,0,0,1-.074,0,.731.731,0,0,1-.655-.8,11.7,11.7,0,0,1,.4-2.064.732.732,0,0,1,.906-.5.733.733,0,0,1,.5.906,10.256,10.256,0,0,0-.349,1.806A.732.732,0,0,1,7432.108-5908.641Zm2.111-5.456a.728.728,0,0,1-.433-.144.732.732,0,0,1-.154-1.023,12.027,12.027,0,0,1,1.392-1.572.73.73,0,0,1,1.034.028.731.731,0,0,1-.027,1.034,10.577,10.577,0,0,0-1.221,1.381A.732.732,0,0,1,7434.22-5914.1Zm4.588-3.636a.729.729,0,0,1-.672-.444.732.732,0,0,1,.385-.961,11.824,11.824,0,0,1,2-.651.733.733,0,0,1,.878.549.735.735,0,0,1-.55.877,10.279,10.279,0,0,0-1.751.571A.73.73,0,0,1,7438.808-5917.732Zm25.543-.892h-1.974a.732.732,0,0,1-.732-.732.731.731,0,0,1,.732-.731h1.974a.732.732,0,0,1,.732.731A.732.732,0,0,1,7464.351-5918.624Zm-5.922,0h-1.975a.732.732,0,0,1-.731-.732.732.732,0,0,1,.731-.731h1.975a.732.732,0,0,1,.731.731A.732.732,0,0,1,7458.429-5918.624Zm-5.923,0h-1.974a.732.732,0,0,1-.732-.732.732.732,0,0,1,.732-.731h1.974a.732.732,0,0,1,.732.731A.732.732,0,0,1,7452.506-5918.624Zm-5.922,0h-1.975a.732.732,0,0,1-.732-.732.732.732,0,0,1,.732-.731h1.975a.732.732,0,0,1,.731.731A.732.732,0,0,1,7446.583-5918.624Z" transform="translate(-7431.318 5920.087)" fill="#31326f"/>
        </g>
        <g id="Group_55460" data-name="Group 55460" transform="translate(0 19.862)">
          <path id="Path_101422" data-name="Path 101422" d="M7432.05-5897.29a.732.732,0,0,1-.732-.731V-5899a.732.732,0,0,1,.732-.732.732.732,0,0,1,.732.732v.976A.732.732,0,0,1,7432.05-5897.29Z" transform="translate(-7431.318 5899.729)" fill="#31326f"/>
        </g>
      </g>
      <g id="Group_55462" data-name="Group 55462" transform="translate(40.153)">
        <path id="Path_101423" data-name="Path 101423" d="M7674.6-5907.5a.732.732,0,0,1-.732-.732,10.4,10.4,0,0,0-10.39-10.39H7473.2a.732.732,0,0,1-.732-.732.732.732,0,0,1,.732-.731h190.275a11.866,11.866,0,0,1,11.853,11.853A.732.732,0,0,1,7674.6-5907.5Z" transform="translate(-7472.472 5920.087)" fill="#31326f"/>
      </g>
      <g id="Group_55463" data-name="Group 55463" transform="translate(5.124 5.123)">
        <rect id="Rectangle_5164" data-name="Rectangle 5164" width="230.814" height="45.158" rx="7.898" transform="translate(0.975 0.976)" fill="#31326f"/>
        <path id="Path_101424" data-name="Path 101424" d="M7660.653-5912.885a6.73,6.73,0,0,1,6.729,6.73v29.747a6.73,6.73,0,0,1-6.729,6.73h-215.4a6.73,6.73,0,0,1-6.729-6.73v-29.747a6.73,6.73,0,0,1,6.729-6.73h215.4m0-1.951h-215.4a8.69,8.69,0,0,0-8.68,8.681v29.747a8.691,8.691,0,0,0,8.68,8.682h215.4a8.692,8.692,0,0,0,8.681-8.682v-29.747a8.691,8.691,0,0,0-8.681-8.681Z" transform="translate(-7436.57 5914.836)" fill="#31326f"/>
      </g>
      <text id="Comité_directivo" data-name="Comité directivo" transform="translate(119.405 33.297)" fill="#fff" font-size="20" font-family="Roboto-Bold, Roboto" font-weight="700"><tspan x="-73.906" y="0">Comité directivo</tspan></text>
    </g>
    <g id="Group_55476" data-name="Group 55476" transform="translate(6973.177 -5816.847)">
      <g id="Group_55469" data-name="Group 55469" transform="translate(177.912 11.364)">
        <g id="Group_55465" data-name="Group 55465" transform="translate(0 68.934)">
          <path id="Path_101425" data-name="Path 101425" d="M7158.4-5729.929h-.976a.732.732,0,0,1-.732-.732.732.732,0,0,1,.732-.731h.976a.732.732,0,0,1,.732.731A.732.732,0,0,1,7158.4-5729.929Z" transform="translate(-7156.69 5731.392)" fill="#9ddfd3"/>
        </g>
        <g id="Group_55466" data-name="Group 55466" transform="translate(4.736 35.491)">
          <path id="Path_101426" data-name="Path 101426" d="M7180.768-5730.763H7179.2a.731.731,0,0,1-.732-.732.732.732,0,0,1,.732-.731l1.859,0a.726.726,0,0,1,.752.711.734.734,0,0,1-.712.752Zm-5.331,0h-1.879a.731.731,0,0,1-.732-.732.732.732,0,0,1,.732-.731h1.879a.731.731,0,0,1,.731.731A.731.731,0,0,1,7175.437-5730.763Zm-5.641,0h-1.88a.732.732,0,0,1-.732-.732.732.732,0,0,1,.732-.731h1.88a.732.732,0,0,1,.731.731A.731.731,0,0,1,7169.8-5730.763Zm-5.64,0h-1.88a.732.732,0,0,1-.732-.732.732.732,0,0,1,.732-.731h1.88a.732.732,0,0,1,.732.731A.732.732,0,0,1,7164.156-5730.763Zm20.591-.735a.734.734,0,0,1-.683-.469.732.732,0,0,1,.42-.946,10.329,10.329,0,0,0,1.58-.766.732.732,0,0,1,1,.254.732.732,0,0,1-.255,1,11.938,11.938,0,0,1-1.8.874A.749.749,0,0,1,7184.748-5731.5Zm4.541-3.245a.731.731,0,0,1-.471-.171.732.732,0,0,1-.089-1.031,10.663,10.663,0,0,0,1.013-1.434.733.733,0,0,1,1-.26.733.733,0,0,1,.259,1,12.051,12.051,0,0,1-1.154,1.634A.728.728,0,0,1,7189.288-5734.743Zm2.4-5.035a.758.758,0,0,1-.139-.013.732.732,0,0,1-.581-.856,10.349,10.349,0,0,0,.184-1.744.744.744,0,0,1,.747-.717.731.731,0,0,1,.717.747,11.887,11.887,0,0,1-.21,1.989A.731.731,0,0,1,7191.69-5739.777Zm.2-5.627a.732.732,0,0,1-.731-.732v-1.88a.731.731,0,0,1,.731-.731.731.731,0,0,1,.732.731v1.88A.732.732,0,0,1,7191.889-5745.4Zm0-5.642a.731.731,0,0,1-.731-.731v-1.88a.732.732,0,0,1,.731-.732.732.732,0,0,1,.732.732v1.88A.731.731,0,0,1,7191.889-5751.046Zm0-5.64a.732.732,0,0,1-.731-.731v-1.88a.732.732,0,0,1,.731-.732.732.732,0,0,1,.732.732v1.88A.732.732,0,0,1,7191.889-5756.686Zm0-5.641a.732.732,0,0,1-.731-.731v-1.88a.732.732,0,0,1,.731-.732.732.732,0,0,1,.732.732v1.88A.732.732,0,0,1,7191.889-5762.327Z" transform="translate(-7161.544 5765.67)" fill="#9ddfd3"/>
        </g>
        <g id="Group_55467" data-name="Group 55467" transform="translate(34.349 30.744)">
          <path id="Path_101427" data-name="Path 101427" d="M7192.628-5768.1a.732.732,0,0,1-.731-.731v-.976a.732.732,0,0,1,.731-.731.732.732,0,0,1,.732.731v.976A.732.732,0,0,1,7192.628-5768.1Z" transform="translate(-7191.896 5770.535)" fill="#9ddfd3"/>
        </g>
        <g id="Group_55468" data-name="Group 55468" transform="translate(34.349)">
          <path id="Path_101428" data-name="Path 101428" d="M7192.628-5774.9a.732.732,0,0,1-.731-.731v-25.687a.732.732,0,0,1,.731-.732.732.732,0,0,1,.732.732v25.688A.732.732,0,0,1,7192.628-5774.9Z" transform="translate(-7191.896 5802.046)" fill="#9ddfd3"/>
        </g>
      </g>
      <g id="Group_55470" data-name="Group 55470" transform="translate(0 23.346)">
        <path id="Path_101429" data-name="Path 101429" d="M7149.64-5731.348H6986.193a11.867,11.867,0,0,1-11.853-11.854v-45.832a.732.732,0,0,1,.732-.732.731.731,0,0,1,.731.732v45.832a10.4,10.4,0,0,0,10.39,10.39H7149.64a.731.731,0,0,1,.731.731A.732.732,0,0,1,7149.64-5731.348Z" transform="translate(-6974.34 5789.765)" fill="#9ddfd3"/>
      </g>
      <g id="Group_55474" data-name="Group 55474">
        <g id="Group_55471" data-name="Group 55471" transform="translate(36.251)">
          <path id="Path_101430" data-name="Path 101430" d="M7013.2-5812.23h-.976a.732.732,0,0,1-.732-.732.731.731,0,0,1,.732-.731h.976a.731.731,0,0,1,.731.731A.732.732,0,0,1,7013.2-5812.23Z" transform="translate(-7011.495 5813.694)" fill="#9ddfd3"/>
        </g>
        <g id="Group_55472" data-name="Group 55472">
          <path id="Path_101431" data-name="Path 101431" d="M6975.072-5796.328a.732.732,0,0,1-.732-.732v-1.974a.732.732,0,0,1,.732-.732.731.731,0,0,1,.731.732v1.974A.731.731,0,0,1,6975.072-5796.328Zm.06-5.92a.63.63,0,0,1-.074,0,.731.731,0,0,1-.655-.8,11.638,11.638,0,0,1,.4-2.064.732.732,0,0,1,.907-.5.734.734,0,0,1,.5.907,10.177,10.177,0,0,0-.35,1.8A.731.731,0,0,1,6975.131-5802.249Zm2.111-5.456a.719.719,0,0,1-.433-.144.73.73,0,0,1-.154-1.023,11.948,11.948,0,0,1,1.392-1.571.731.731,0,0,1,1.034.027.733.733,0,0,1-.028,1.035,10.474,10.474,0,0,0-1.221,1.38A.732.732,0,0,1,6977.243-5807.7Zm4.587-3.634a.731.731,0,0,1-.672-.445.731.731,0,0,1,.384-.96,11.905,11.905,0,0,1,2-.651.734.734,0,0,1,.878.549.735.735,0,0,1-.55.877,10.332,10.332,0,0,0-1.751.571A.746.746,0,0,1,6981.83-5811.339Zm25.544-.892H7005.4a.732.732,0,0,1-.731-.732.731.731,0,0,1,.731-.731h1.975a.731.731,0,0,1,.732.731A.732.732,0,0,1,7007.374-5812.23Zm-5.922,0h-1.975a.732.732,0,0,1-.732-.732.731.731,0,0,1,.732-.731h1.975a.731.731,0,0,1,.732.731A.732.732,0,0,1,7001.452-5812.23Zm-5.923,0h-1.974a.732.732,0,0,1-.731-.732.731.731,0,0,1,.731-.731h1.974a.731.731,0,0,1,.731.731A.732.732,0,0,1,6995.529-5812.23Zm-5.923,0h-1.975a.732.732,0,0,1-.732-.732.731.731,0,0,1,.732-.731h1.975a.731.731,0,0,1,.732.731A.732.732,0,0,1,6989.606-5812.23Z" transform="translate(-6974.34 5813.694)" fill="#9ddfd3"/>
        </g>
        <g id="Group_55473" data-name="Group 55473" transform="translate(0 19.862)">
          <path id="Path_101432" data-name="Path 101432" d="M6975.072-5790.9a.732.732,0,0,1-.732-.732v-.976a.731.731,0,0,1,.732-.732.731.731,0,0,1,.731.732v.976A.731.731,0,0,1,6975.072-5790.9Z" transform="translate(-6974.34 5793.336)" fill="#9ddfd3"/>
        </g>
      </g>
      <g id="Group_55475" data-name="Group 55475" transform="translate(40.154)">
        <path id="Path_101433" data-name="Path 101433" d="M7188.335-5801.11a.732.732,0,0,1-.731-.732,10.4,10.4,0,0,0-10.39-10.389H7016.227a.732.732,0,0,1-.731-.732.731.731,0,0,1,.731-.731h160.986a11.866,11.866,0,0,1,11.854,11.852A.732.732,0,0,1,7188.335-5801.11Z" transform="translate(-7015.496 5813.694)" fill="#9ddfd3"/>
      </g>
      <rect id="Rectangle_5165" data-name="Rectangle 5165" width="201.525" height="69.565" rx="7.898" transform="translate(6.1 6.098)" fill="#fff"/>
      <path id="Path_101434" data-name="Path 101434" d="M7174.387-5806.492a6.73,6.73,0,0,1,6.73,6.73v54.153a6.73,6.73,0,0,1-6.73,6.73H6988.274a6.731,6.731,0,0,1-6.731-6.73v-54.153a6.731,6.731,0,0,1,6.731-6.73h186.113m0-1.951H6988.274a8.691,8.691,0,0,0-8.682,8.682v54.153a8.692,8.692,0,0,0,8.682,8.682h186.113a8.692,8.692,0,0,0,8.682-8.682v-54.153a8.691,8.691,0,0,0-8.682-8.682Z" transform="translate(-6974.468 5813.566)" fill="#9ddfd3"/>
    </g>
    <text id="Departamento_de_ciencias_sociales" data-name="Departamento de
ciencias sociales" transform="translate(7078.719 -5781.957)" font-size="17" font-family="Roboto-Regular, Roboto"><tspan x="-65.539" y="0">Departamento de</tspan><tspan x="-64.642" y="20">ciencias sociales</tspan></text>
    <text id="Equipo_líder_de_educación_STEM" data-name="Equipo líder de
educación STEM" transform="translate(7046.994 -5643.648)" font-size="17" font-family="Roboto-Regular, Roboto"><tspan x="-55.79" y="0">Equipo líder de</tspan><tspan x="-63.92" y="20">educación </tspan><tspan y="20" font-family="Roboto-Bold, Roboto" font-weight="700">STEM</tspan></text>
    <text id="Departamento_de_ciencias" data-name="Departamento
de ciencias" transform="translate(7293.326 -5643.648)" font-size="17" font-family="Roboto-Regular, Roboto"><tspan x="-54.138" y="0">Departamento</tspan><tspan x="-42.625" y="20">de ciencias</tspan></text>
    <text id="Departamento_tecnología" data-name="Departamento
tecnología" transform="translate(7538.926 -5643.648)" font-size="17" font-family="Roboto-Regular, Roboto"><tspan x="-54.138" y="0">Departamento</tspan><tspan x="-39.669" y="20">tecnología</tspan></text>
    <text id="Departamento_de_matemáticas" data-name="Departamento
de matemáticas" transform="translate(7783.721 -5643.648)" font-size="17" font-family="Roboto-Regular, Roboto"><tspan x="-54.138" y="0">Departamento</tspan><tspan x="-61.123" y="20">de matemáticas</tspan></text>
    <text id="Administrador_de_currículo_y_plan_de_estudios" data-name="Administrador
de currículo y
plan de estudios" transform="translate(8029.345 -5654.185)" font-size="17" font-family="Roboto-Regular, Roboto"><tspan x="-53.615" y="0">Administrador</tspan><tspan x="-50.56" y="20">de currículo y</tspan><tspan x="-62.086" y="40">plan de estudios</tspan></text>
    <g id="Group_55488" data-name="Group 55488" transform="translate(7280.177 -5816.847)">
      <g id="Group_55481" data-name="Group 55481" transform="translate(177.911 11.364)">
        <g id="Group_55477" data-name="Group 55477" transform="translate(0 68.934)">
          <path id="Path_101435" data-name="Path 101435" d="M7473.055-5729.929h-.976a.732.732,0,0,1-.732-.732.732.732,0,0,1,.732-.731h.976a.732.732,0,0,1,.732.731A.731.731,0,0,1,7473.055-5729.929Z" transform="translate(-7471.347 5731.392)" fill="#9ddfd3"/>
        </g>
        <g id="Group_55478" data-name="Group 55478" transform="translate(4.737 35.491)">
          <path id="Path_101436" data-name="Path 101436" d="M7495.425-5730.763h-1.569a.731.731,0,0,1-.732-.732.732.732,0,0,1,.732-.731l1.86,0a.726.726,0,0,1,.751.711.733.733,0,0,1-.711.752Zm-5.331,0h-1.88a.731.731,0,0,1-.732-.732.732.732,0,0,1,.732-.731h1.88a.732.732,0,0,1,.731.731A.731.731,0,0,1,7490.095-5730.763Zm-5.64,0h-1.88a.732.732,0,0,1-.732-.732.732.732,0,0,1,.732-.731h1.88a.732.732,0,0,1,.731.731A.731.731,0,0,1,7484.455-5730.763Zm-5.641,0h-1.88a.732.732,0,0,1-.732-.732.732.732,0,0,1,.732-.731h1.88a.732.732,0,0,1,.732.731A.732.732,0,0,1,7478.814-5730.763Zm20.591-.735a.732.732,0,0,1-.683-.469.733.733,0,0,1,.42-.946,10.4,10.4,0,0,0,1.58-.766.731.731,0,0,1,1,.254.731.731,0,0,1-.255,1,11.91,11.91,0,0,1-1.8.874A.745.745,0,0,1,7499.405-5731.5Zm4.54-3.245a.731.731,0,0,1-.471-.171.732.732,0,0,1-.089-1.031,10.576,10.576,0,0,0,1.013-1.434.733.733,0,0,1,1-.26.733.733,0,0,1,.259,1,12.045,12.045,0,0,1-1.153,1.634A.732.732,0,0,1,7503.945-5734.743Zm2.4-5.035a.751.751,0,0,1-.138-.013.733.733,0,0,1-.581-.856,10.349,10.349,0,0,0,.184-1.744.744.744,0,0,1,.746-.717.732.732,0,0,1,.718.747,11.886,11.886,0,0,1-.209,1.989A.732.732,0,0,1,7506.347-5739.777Zm.2-5.627a.732.732,0,0,1-.731-.732v-1.88a.731.731,0,0,1,.731-.731.731.731,0,0,1,.732.731v1.88A.732.732,0,0,1,7506.546-5745.4Zm0-5.642a.731.731,0,0,1-.731-.731v-1.88a.732.732,0,0,1,.731-.732.732.732,0,0,1,.732.732v1.88A.731.731,0,0,1,7506.546-5751.046Zm0-5.64a.732.732,0,0,1-.731-.731v-1.88a.732.732,0,0,1,.731-.732.732.732,0,0,1,.732.732v1.88A.731.731,0,0,1,7506.546-5756.686Zm0-5.641a.732.732,0,0,1-.731-.731v-1.88a.732.732,0,0,1,.731-.732.732.732,0,0,1,.732.732v1.88A.731.731,0,0,1,7506.546-5762.327Z" transform="translate(-7476.202 5765.67)" fill="#9ddfd3"/>
        </g>
        <g id="Group_55479" data-name="Group 55479" transform="translate(34.349 30.744)">
          <path id="Path_101437" data-name="Path 101437" d="M7507.285-5768.1a.732.732,0,0,1-.731-.731v-.976a.732.732,0,0,1,.731-.731.731.731,0,0,1,.732.731v.976A.731.731,0,0,1,7507.285-5768.1Z" transform="translate(-7506.554 5770.535)" fill="#9ddfd3"/>
        </g>
        <g id="Group_55480" data-name="Group 55480" transform="translate(34.349)">
          <path id="Path_101438" data-name="Path 101438" d="M7507.285-5774.9a.732.732,0,0,1-.731-.731v-25.687a.732.732,0,0,1,.731-.732.732.732,0,0,1,.732.732v25.688A.732.732,0,0,1,7507.285-5774.9Z" transform="translate(-7506.554 5802.046)" fill="#9ddfd3"/>
        </g>
      </g>
      <g id="Group_55482" data-name="Group 55482" transform="translate(0 23.346)">
        <path id="Path_101439" data-name="Path 101439" d="M7464.3-5731.348H7300.851A11.866,11.866,0,0,1,7289-5743.2v-45.832a.732.732,0,0,1,.732-.732.732.732,0,0,1,.731.732v45.832a10.4,10.4,0,0,0,10.39,10.39H7464.3a.731.731,0,0,1,.731.731A.732.732,0,0,1,7464.3-5731.348Z" transform="translate(-7288.998 5789.765)" fill="#9ddfd3"/>
      </g>
      <g id="Group_55486" data-name="Group 55486">
        <g id="Group_55483" data-name="Group 55483" transform="translate(36.25)">
          <path id="Path_101440" data-name="Path 101440" d="M7327.859-5812.23h-.976a.732.732,0,0,1-.732-.732.731.731,0,0,1,.732-.731h.976a.731.731,0,0,1,.732.731A.732.732,0,0,1,7327.859-5812.23Z" transform="translate(-7326.152 5813.694)" fill="#9ddfd3"/>
        </g>
        <g id="Group_55484" data-name="Group 55484">
          <path id="Path_101441" data-name="Path 101441" d="M7289.73-5796.328a.732.732,0,0,1-.732-.732v-1.974a.732.732,0,0,1,.732-.732.731.731,0,0,1,.731.732v1.974A.732.732,0,0,1,7289.73-5796.328Zm.059-5.92a.624.624,0,0,1-.074,0,.73.73,0,0,1-.654-.8,11.594,11.594,0,0,1,.4-2.064.732.732,0,0,1,.906-.5.734.734,0,0,1,.5.907,10.045,10.045,0,0,0-.349,1.8A.731.731,0,0,1,7289.789-5802.249Zm2.112-5.456a.721.721,0,0,1-.435-.144.731.731,0,0,1-.154-1.023,11.951,11.951,0,0,1,1.392-1.571.731.731,0,0,1,1.034.027.732.732,0,0,1-.028,1.035,10.506,10.506,0,0,0-1.22,1.38A.732.732,0,0,1,7291.9-5807.7Zm4.587-3.634a.734.734,0,0,1-.673-.445.731.731,0,0,1,.385-.96,11.91,11.91,0,0,1,2-.651.733.733,0,0,1,.877.549.734.734,0,0,1-.549.877,10.275,10.275,0,0,0-1.751.571A.748.748,0,0,1,7296.488-5811.339Zm25.544-.892h-1.975a.732.732,0,0,1-.731-.732.731.731,0,0,1,.731-.731h1.975a.731.731,0,0,1,.732.731A.732.732,0,0,1,7322.032-5812.23Zm-5.923,0h-1.974a.732.732,0,0,1-.732-.732.731.731,0,0,1,.732-.731h1.974a.731.731,0,0,1,.732.731A.732.732,0,0,1,7316.109-5812.23Zm-5.922,0h-1.974a.731.731,0,0,1-.731-.732.73.73,0,0,1,.731-.731h1.974a.731.731,0,0,1,.731.731A.732.732,0,0,1,7310.187-5812.23Zm-5.922,0h-1.976a.732.732,0,0,1-.732-.732.731.731,0,0,1,.732-.731h1.976a.731.731,0,0,1,.732.731A.732.732,0,0,1,7304.264-5812.23Z" transform="translate(-7288.998 5813.694)" fill="#9ddfd3"/>
        </g>
        <g id="Group_55485" data-name="Group 55485" transform="translate(0 19.862)">
          <path id="Path_101442" data-name="Path 101442" d="M7289.73-5790.9a.732.732,0,0,1-.732-.732v-.976a.731.731,0,0,1,.732-.732.731.731,0,0,1,.731.732v.976A.732.732,0,0,1,7289.73-5790.9Z" transform="translate(-7288.998 5793.336)" fill="#9ddfd3"/>
        </g>
      </g>
      <g id="Group_55487" data-name="Group 55487" transform="translate(40.152)">
        <path id="Path_101443" data-name="Path 101443" d="M7502.992-5801.11a.732.732,0,0,1-.731-.732,10.4,10.4,0,0,0-10.39-10.389H7330.883a.732.732,0,0,1-.731-.732.731.731,0,0,1,.731-.731h160.987a11.865,11.865,0,0,1,11.853,11.852A.732.732,0,0,1,7502.992-5801.11Z" transform="translate(-7330.152 5813.694)" fill="#9ddfd3"/>
      </g>
      <rect id="Rectangle_5166" data-name="Rectangle 5166" width="201.525" height="69.565" rx="7.898" transform="translate(6.1 6.098)" fill="#fff"/>
      <path id="Path_101444" data-name="Path 101444" d="M7489.044-5806.492a6.73,6.73,0,0,1,6.73,6.73v54.153a6.73,6.73,0,0,1-6.73,6.73H7302.932a6.731,6.731,0,0,1-6.73-6.73v-54.153a6.731,6.731,0,0,1,6.73-6.73h186.112m0-1.951H7302.932a8.691,8.691,0,0,0-8.682,8.682v54.153a8.692,8.692,0,0,0,8.682,8.682h186.112a8.691,8.691,0,0,0,8.682-8.682v-54.153a8.69,8.69,0,0,0-8.682-8.682Z" transform="translate(-7289.126 5813.566)" fill="#9ddfd3"/>
    </g>
    <text id="Departamento_de_humanidades" data-name="Departamento
de humanidades" transform="translate(7385.646 -5781.957)" font-size="17" font-family="Roboto-Regular, Roboto"><tspan x="-54.138" y="0">Departamento</tspan><tspan x="-62.692" y="20">de humanidades</tspan></text>
    <g id="Group_55500" data-name="Group 55500" transform="translate(7587.177 -5816.847)">
      <g id="Group_55493" data-name="Group 55493" transform="translate(177.911 11.364)">
        <g id="Group_55489" data-name="Group 55489" transform="translate(0 68.934)">
          <path id="Path_101445" data-name="Path 101445" d="M7787.712-5729.929h-.976a.732.732,0,0,1-.732-.732.732.732,0,0,1,.732-.731h.976a.732.732,0,0,1,.732.731A.731.731,0,0,1,7787.712-5729.929Z" transform="translate(-7786.005 5731.392)" fill="#9ddfd3"/>
        </g>
        <g id="Group_55490" data-name="Group 55490" transform="translate(4.737 35.491)">
          <path id="Path_101446" data-name="Path 101446" d="M7810.083-5730.763h-1.57a.731.731,0,0,1-.732-.732.732.732,0,0,1,.732-.731l1.86,0a.726.726,0,0,1,.751.711.732.732,0,0,1-.711.752Zm-5.331,0h-1.88a.731.731,0,0,1-.732-.732.732.732,0,0,1,.732-.731h1.88a.732.732,0,0,1,.731.731A.731.731,0,0,1,7804.753-5730.763Zm-5.641,0h-1.88a.732.732,0,0,1-.732-.732.732.732,0,0,1,.732-.731h1.88a.732.732,0,0,1,.731.731A.731.731,0,0,1,7799.112-5730.763Zm-5.641,0h-1.879a.732.732,0,0,1-.732-.732.732.732,0,0,1,.732-.731h1.879a.732.732,0,0,1,.732.731A.732.732,0,0,1,7793.471-5730.763Zm20.592-.735a.733.733,0,0,1-.683-.469.732.732,0,0,1,.42-.946,10.329,10.329,0,0,0,1.58-.766.732.732,0,0,1,1,.254.732.732,0,0,1-.256,1,11.938,11.938,0,0,1-1.8.874A.738.738,0,0,1,7814.063-5731.5Zm4.54-3.245a.727.727,0,0,1-.47-.171.731.731,0,0,1-.089-1.031,10.616,10.616,0,0,0,1.012-1.434.733.733,0,0,1,1-.26.732.732,0,0,1,.259,1,12,12,0,0,1-1.154,1.634A.729.729,0,0,1,7818.6-5734.743Zm2.4-5.035a.731.731,0,0,1-.138-.013.731.731,0,0,1-.581-.856,10.348,10.348,0,0,0,.183-1.744.744.744,0,0,1,.747-.717.731.731,0,0,1,.717.747,11.835,11.835,0,0,1-.209,1.989A.731.731,0,0,1,7821-5739.777Zm.2-5.627a.732.732,0,0,1-.731-.732v-1.88a.731.731,0,0,1,.731-.731.731.731,0,0,1,.732.731v1.88A.732.732,0,0,1,7821.2-5745.4Zm0-5.642a.731.731,0,0,1-.731-.731v-1.88a.732.732,0,0,1,.731-.732.732.732,0,0,1,.732.732v1.88A.731.731,0,0,1,7821.2-5751.046Zm0-5.64a.732.732,0,0,1-.731-.731v-1.88a.732.732,0,0,1,.731-.732.732.732,0,0,1,.732.732v1.88A.732.732,0,0,1,7821.2-5756.686Zm0-5.641a.732.732,0,0,1-.731-.731v-1.88a.732.732,0,0,1,.731-.732.732.732,0,0,1,.732.732v1.88A.732.732,0,0,1,7821.2-5762.327Z" transform="translate(-7790.86 5765.67)" fill="#9ddfd3"/>
        </g>
        <g id="Group_55491" data-name="Group 55491" transform="translate(34.349 30.744)">
          <path id="Path_101447" data-name="Path 101447" d="M7821.943-5768.1a.732.732,0,0,1-.731-.731v-.976a.732.732,0,0,1,.731-.731.732.732,0,0,1,.732.731v.976A.732.732,0,0,1,7821.943-5768.1Z" transform="translate(-7821.211 5770.535)" fill="#9ddfd3"/>
        </g>
        <g id="Group_55492" data-name="Group 55492" transform="translate(34.349)">
          <path id="Path_101448" data-name="Path 101448" d="M7821.943-5774.9a.732.732,0,0,1-.731-.731v-25.687a.732.732,0,0,1,.731-.732.732.732,0,0,1,.732.732v25.688A.732.732,0,0,1,7821.943-5774.9Z" transform="translate(-7821.211 5802.046)" fill="#9ddfd3"/>
        </g>
      </g>
      <g id="Group_55494" data-name="Group 55494" transform="translate(0 23.346)">
        <path id="Path_101449" data-name="Path 101449" d="M7778.955-5731.348H7615.508a11.866,11.866,0,0,1-11.853-11.854v-45.832a.732.732,0,0,1,.732-.732.732.732,0,0,1,.731.732v45.832a10.4,10.4,0,0,0,10.389,10.39h163.446a.731.731,0,0,1,.731.731A.732.732,0,0,1,7778.955-5731.348Z" transform="translate(-7603.656 5789.765)" fill="#9ddfd3"/>
      </g>
      <g id="Group_55498" data-name="Group 55498">
        <g id="Group_55495" data-name="Group 55495" transform="translate(36.25)">
          <path id="Path_101450" data-name="Path 101450" d="M7642.518-5812.23h-.976a.732.732,0,0,1-.732-.732.731.731,0,0,1,.732-.731h.976a.731.731,0,0,1,.731.731A.732.732,0,0,1,7642.518-5812.23Z" transform="translate(-7640.81 5813.694)" fill="#9ddfd3"/>
        </g>
        <g id="Group_55496" data-name="Group 55496">
          <path id="Path_101451" data-name="Path 101451" d="M7604.388-5796.328a.732.732,0,0,1-.732-.732v-1.974a.732.732,0,0,1,.732-.732.731.731,0,0,1,.731.732v1.974A.732.732,0,0,1,7604.388-5796.328Zm.059-5.92a.641.641,0,0,1-.074,0,.73.73,0,0,1-.654-.8,11.639,11.639,0,0,1,.4-2.064.732.732,0,0,1,.906-.5.734.734,0,0,1,.5.907,10.088,10.088,0,0,0-.349,1.8A.732.732,0,0,1,7604.446-5802.249Zm2.111-5.456a.719.719,0,0,1-.433-.144.731.731,0,0,1-.154-1.023,11.99,11.99,0,0,1,1.393-1.571.73.73,0,0,1,1.033.027.732.732,0,0,1-.028,1.035,10.506,10.506,0,0,0-1.22,1.38A.732.732,0,0,1,7606.558-5807.7Zm4.588-3.634a.733.733,0,0,1-.673-.445.731.731,0,0,1,.385-.96,11.891,11.891,0,0,1,2-.651.732.732,0,0,1,.877.549.733.733,0,0,1-.55.877,10.321,10.321,0,0,0-1.75.571A.749.749,0,0,1,7611.146-5811.339Zm25.543-.892h-1.974a.732.732,0,0,1-.731-.732.731.731,0,0,1,.731-.731h1.974a.731.731,0,0,1,.732.731A.732.732,0,0,1,7636.689-5812.23Zm-5.922,0h-1.974a.731.731,0,0,1-.732-.732.731.731,0,0,1,.732-.731h1.974a.731.731,0,0,1,.732.731A.732.732,0,0,1,7630.767-5812.23Zm-5.922,0h-1.975a.732.732,0,0,1-.731-.732.731.731,0,0,1,.731-.731h1.975a.731.731,0,0,1,.732.731A.732.732,0,0,1,7624.844-5812.23Zm-5.923,0h-1.975a.732.732,0,0,1-.732-.732.731.731,0,0,1,.732-.731h1.975a.731.731,0,0,1,.732.731A.732.732,0,0,1,7618.921-5812.23Z" transform="translate(-7603.656 5813.694)" fill="#9ddfd3"/>
        </g>
        <g id="Group_55497" data-name="Group 55497" transform="translate(0 19.862)">
          <path id="Path_101452" data-name="Path 101452" d="M7604.388-5790.9a.732.732,0,0,1-.732-.732v-.976a.732.732,0,0,1,.732-.732.731.731,0,0,1,.731.732v.976A.732.732,0,0,1,7604.388-5790.9Z" transform="translate(-7603.656 5793.336)" fill="#9ddfd3"/>
        </g>
      </g>
      <g id="Group_55499" data-name="Group 55499" transform="translate(40.153)">
        <path id="Path_101453" data-name="Path 101453" d="M7817.649-5801.11a.732.732,0,0,1-.731-.732,10.4,10.4,0,0,0-10.389-10.389H7645.542a.731.731,0,0,1-.731-.732.731.731,0,0,1,.731-.731h160.987a11.865,11.865,0,0,1,11.853,11.852A.732.732,0,0,1,7817.649-5801.11Z" transform="translate(-7644.811 5813.694)" fill="#9ddfd3"/>
      </g>
      <rect id="Rectangle_5167" data-name="Rectangle 5167" width="201.525" height="69.565" rx="7.898" transform="translate(6.1 6.098)" fill="#fff"/>
      <path id="Path_101454" data-name="Path 101454" d="M7803.7-5806.492a6.73,6.73,0,0,1,6.73,6.73v54.153a6.73,6.73,0,0,1-6.73,6.73H7617.59a6.73,6.73,0,0,1-6.73-6.73v-54.153a6.73,6.73,0,0,1,6.73-6.73H7803.7m0-1.951H7617.59a8.69,8.69,0,0,0-8.682,8.682v54.153a8.691,8.691,0,0,0,8.682,8.682H7803.7a8.692,8.692,0,0,0,8.682-8.682v-54.153a8.691,8.691,0,0,0-8.682-8.682Z" transform="translate(-7603.784 5813.566)" fill="#9ddfd3"/>
    </g>
    <text id="Departamento_de_artes" data-name="Departamento
de artes" transform="translate(7692.427 -5781.957)" font-size="17" font-family="Roboto-Regular, Roboto"><tspan x="-54.138" y="0">Departamento</tspan><tspan x="-30.771" y="20">de artes</tspan></text>
    <g id="Group_55512" data-name="Group 55512" transform="translate(7894.177 -5816.847)">
      <g id="Group_55505" data-name="Group 55505" transform="translate(177.911 11.364)">
        <g id="Group_55501" data-name="Group 55501" transform="translate(0 68.934)">
          <path id="Path_101455" data-name="Path 101455" d="M8102.371-5729.929h-.976a.732.732,0,0,1-.732-.732.732.732,0,0,1,.732-.731h.976a.732.732,0,0,1,.732.731A.731.731,0,0,1,8102.371-5729.929Z" transform="translate(-8100.663 5731.392)" fill="#9ddfd3"/>
        </g>
        <g id="Group_55502" data-name="Group 55502" transform="translate(4.736 35.491)">
          <path id="Path_101456" data-name="Path 101456" d="M8124.741-5730.763h-1.57a.731.731,0,0,1-.732-.732.732.732,0,0,1,.732-.731l1.86,0a.727.727,0,0,1,.752.711.733.733,0,0,1-.712.752Zm-5.33,0h-1.88a.731.731,0,0,1-.732-.732.732.732,0,0,1,.732-.731h1.88a.732.732,0,0,1,.731.731A.731.731,0,0,1,8119.411-5730.763Zm-5.641,0h-1.879a.732.732,0,0,1-.732-.732.732.732,0,0,1,.732-.731h1.879a.732.732,0,0,1,.731.731A.731.731,0,0,1,8113.77-5730.763Zm-5.641,0h-1.88a.732.732,0,0,1-.732-.732.732.732,0,0,1,.732-.731h1.88a.732.732,0,0,1,.732.731A.732.732,0,0,1,8108.129-5730.763Zm20.592-.735a.734.734,0,0,1-.684-.469.732.732,0,0,1,.42-.946,10.329,10.329,0,0,0,1.58-.766.732.732,0,0,1,1,.254.733.733,0,0,1-.255,1,11.92,11.92,0,0,1-1.8.874A.744.744,0,0,1,8128.721-5731.5Zm4.54-3.245a.73.73,0,0,1-.471-.171.731.731,0,0,1-.089-1.031,10.707,10.707,0,0,0,1.013-1.434.732.732,0,0,1,1-.26.733.733,0,0,1,.26,1,12.051,12.051,0,0,1-1.154,1.634A.728.728,0,0,1,8133.261-5734.743Zm2.4-5.035a.754.754,0,0,1-.139-.013.731.731,0,0,1-.58-.856,10.45,10.45,0,0,0,.183-1.744.744.744,0,0,1,.746-.717.731.731,0,0,1,.717.747,11.938,11.938,0,0,1-.21,1.989A.731.731,0,0,1,8135.663-5739.777Zm.2-5.627a.732.732,0,0,1-.731-.732v-1.88a.731.731,0,0,1,.731-.731.731.731,0,0,1,.732.731v1.88A.732.732,0,0,1,8135.862-5745.4Zm0-5.642a.731.731,0,0,1-.731-.731v-1.88a.732.732,0,0,1,.731-.732.732.732,0,0,1,.732.732v1.88A.731.731,0,0,1,8135.862-5751.046Zm0-5.64a.732.732,0,0,1-.731-.731v-1.88a.732.732,0,0,1,.731-.732.732.732,0,0,1,.732.732v1.88A.732.732,0,0,1,8135.862-5756.686Zm0-5.641a.732.732,0,0,1-.731-.731v-1.88a.732.732,0,0,1,.731-.732.732.732,0,0,1,.732.732v1.88A.732.732,0,0,1,8135.862-5762.327Z" transform="translate(-8105.517 5765.67)" fill="#9ddfd3"/>
        </g>
        <g id="Group_55503" data-name="Group 55503" transform="translate(34.349 30.744)">
          <path id="Path_101457" data-name="Path 101457" d="M8136.6-5768.1a.732.732,0,0,1-.731-.731v-.976a.732.732,0,0,1,.731-.731.732.732,0,0,1,.732.731v.976A.732.732,0,0,1,8136.6-5768.1Z" transform="translate(-8135.87 5770.535)" fill="#9ddfd3"/>
        </g>
        <g id="Group_55504" data-name="Group 55504" transform="translate(34.349)">
          <path id="Path_101458" data-name="Path 101458" d="M8136.6-5774.9a.732.732,0,0,1-.731-.731v-25.687a.732.732,0,0,1,.731-.732.732.732,0,0,1,.732.732v25.688A.732.732,0,0,1,8136.6-5774.9Z" transform="translate(-8135.87 5802.046)" fill="#9ddfd3"/>
        </g>
      </g>
      <g id="Group_55506" data-name="Group 55506" transform="translate(0 23.346)">
        <path id="Path_101459" data-name="Path 101459" d="M8093.612-5731.348H7930.166a11.866,11.866,0,0,1-11.852-11.854v-45.832a.732.732,0,0,1,.732-.732.732.732,0,0,1,.731.732v45.832a10.4,10.4,0,0,0,10.389,10.39h163.446a.731.731,0,0,1,.731.731A.732.732,0,0,1,8093.612-5731.348Z" transform="translate(-7918.314 5789.765)" fill="#9ddfd3"/>
      </g>
      <g id="Group_55510" data-name="Group 55510">
        <g id="Group_55507" data-name="Group 55507" transform="translate(36.25)">
          <path id="Path_101460" data-name="Path 101460" d="M7957.175-5812.23h-.976a.732.732,0,0,1-.732-.732.731.731,0,0,1,.732-.731h.976a.731.731,0,0,1,.732.731A.732.732,0,0,1,7957.175-5812.23Z" transform="translate(-7955.468 5813.694)" fill="#9ddfd3"/>
        </g>
        <g id="Group_55508" data-name="Group 55508">
          <path id="Path_101461" data-name="Path 101461" d="M7919.046-5796.328a.732.732,0,0,1-.732-.732v-1.974a.732.732,0,0,1,.732-.732.731.731,0,0,1,.731.732v1.974A.732.732,0,0,1,7919.046-5796.328Zm.059-5.92a.644.644,0,0,1-.075,0,.731.731,0,0,1-.654-.8,11.638,11.638,0,0,1,.4-2.064.733.733,0,0,1,.906-.5.735.735,0,0,1,.5.907,10.133,10.133,0,0,0-.35,1.8A.731.731,0,0,1,7919.1-5802.249Zm2.111-5.456a.718.718,0,0,1-.433-.144.73.73,0,0,1-.154-1.023,11.944,11.944,0,0,1,1.391-1.571.731.731,0,0,1,1.034.027.733.733,0,0,1-.027,1.035,10.506,10.506,0,0,0-1.22,1.38A.734.734,0,0,1,7921.216-5807.7Zm4.587-3.634a.732.732,0,0,1-.672-.445.732.732,0,0,1,.384-.96,11.939,11.939,0,0,1,2-.651.733.733,0,0,1,.878.549.734.734,0,0,1-.55.877,10.3,10.3,0,0,0-1.751.571A.744.744,0,0,1,7925.8-5811.339Zm25.543-.892h-1.974a.732.732,0,0,1-.731-.732.731.731,0,0,1,.731-.731h1.974a.731.731,0,0,1,.732.731A.732.732,0,0,1,7951.347-5812.23Zm-5.922,0h-1.975a.732.732,0,0,1-.732-.732.731.731,0,0,1,.732-.731h1.975a.731.731,0,0,1,.732.731A.732.732,0,0,1,7945.425-5812.23Zm-5.923,0h-1.974a.732.732,0,0,1-.731-.732.731.731,0,0,1,.731-.731h1.974a.731.731,0,0,1,.731.731A.732.732,0,0,1,7939.5-5812.23Zm-5.922,0H7931.6a.732.732,0,0,1-.732-.732.731.731,0,0,1,.732-.731h1.975a.731.731,0,0,1,.732.731A.732.732,0,0,1,7933.579-5812.23Z" transform="translate(-7918.314 5813.694)" fill="#9ddfd3"/>
        </g>
        <g id="Group_55509" data-name="Group 55509" transform="translate(0 19.862)">
          <path id="Path_101462" data-name="Path 101462" d="M7919.046-5790.9a.732.732,0,0,1-.732-.732v-.976a.731.731,0,0,1,.732-.732.731.731,0,0,1,.731.732v.976A.732.732,0,0,1,7919.046-5790.9Z" transform="translate(-7918.314 5793.336)" fill="#9ddfd3"/>
        </g>
      </g>
      <g id="Group_55511" data-name="Group 55511" transform="translate(40.152)">
        <path id="Path_101463" data-name="Path 101463" d="M8132.308-5801.11a.732.732,0,0,1-.731-.732,10.4,10.4,0,0,0-10.39-10.389H7960.2a.732.732,0,0,1-.731-.732.731.731,0,0,1,.731-.731h160.987a11.866,11.866,0,0,1,11.854,11.852A.732.732,0,0,1,8132.308-5801.11Z" transform="translate(-7959.468 5813.694)" fill="#9ddfd3"/>
      </g>
      <rect id="Rectangle_5168" data-name="Rectangle 5168" width="201.525" height="69.565" rx="7.898" transform="translate(6.099 6.098)" fill="#fff"/>
      <path id="Path_101464" data-name="Path 101464" d="M8118.36-5806.492a6.73,6.73,0,0,1,6.73,6.73v54.153a6.73,6.73,0,0,1-6.73,6.73H7932.248a6.73,6.73,0,0,1-6.73-6.73v-54.153a6.73,6.73,0,0,1,6.73-6.73H8118.36m0-1.951H7932.248a8.69,8.69,0,0,0-8.682,8.682v54.153a8.691,8.691,0,0,0,8.682,8.682H8118.36a8.692,8.692,0,0,0,8.682-8.682v-54.153a8.691,8.691,0,0,0-8.682-8.682Z" transform="translate(-7918.442 5813.566)" fill="#9ddfd3"/>
    </g>
    <text id="Otras_áreas" data-name="Otras áreas" transform="translate(7999.159 -5771.42)" font-size="17" font-family="Roboto-Regular, Roboto"><tspan x="-43.372" y="0">Otras áreas</tspan></text>
    <g id="Group_55513" data-name="Group 55513" transform="translate(7067.21 -5844.945)">
      <path id="Path_101465" data-name="Path 101465" d="M8004.548-5813.139a.975.975,0,0,1-.976-.976v-26.427h-930.9v26.427a.975.975,0,0,1-.976.976.975.975,0,0,1-.976-.976v-27.4a.975.975,0,0,1,.976-.976h932.853a.976.976,0,0,1,.976.976v27.4A.975.975,0,0,1,8004.548-5813.139Z" transform="translate(-7070.719 5842.493)" fill="#31326f"/>
    </g>
    <g id="Group_55514" data-name="Group 55514" transform="translate(7067.21 -5711.977)">
      <path id="Path_101466" data-name="Path 101466" d="M8004.548-5680.821a.975.975,0,0,1-.976-.976v-22.46h-930.9v22.46a.975.975,0,0,1-.976.976.975.975,0,0,1-.976-.976v-23.436a.975.975,0,0,1,.976-.976h932.853a.976.976,0,0,1,.976.976v23.436A.975.975,0,0,1,8004.548-5680.821Z" transform="translate(-7070.719 5706.208)" fill="#31326f"/>
    </g>
    <g id="Group_55515" data-name="Group 55515" transform="translate(7293.963 -5711.977)">
      <path id="Path_101467" data-name="Path 101467" d="M7783.452-5680.825a.975.975,0,0,1-.976-.976v-22.456h-477.4v22.456a.975.975,0,0,1-.976.976.975.975,0,0,1-.976-.976v-23.432a.975.975,0,0,1,.976-.976h479.348a.976.976,0,0,1,.976.976v23.432A.975.975,0,0,1,7783.452-5680.825Z" transform="translate(-7303.128 5706.208)" fill="#31326f"/>
    </g>
    <g id="Group_55516" data-name="Group 55516" transform="translate(7386.063 -5844.945)">
      <path id="Path_101468" data-name="Path 101468" d="M7693.647-5813.139a.976.976,0,0,1-.976-.976v-26.427H7399.478v26.427a.976.976,0,0,1-.976.976.974.974,0,0,1-.976-.976v-27.4a.975.975,0,0,1,.976-.976h295.146a.975.975,0,0,1,.977.976v27.4A.975.975,0,0,1,7693.647-5813.139Z" transform="translate(-7397.526 5842.493)" fill="#31326f"/>
    </g>
    <g id="Group_55517" data-name="Group 55517" transform="translate(7539.564 -5865.006)">
      <path id="Path_101469" data-name="Path 101469" d="M7555.831-5685.374a.975.975,0,0,1-.976-.976v-175.729a.976.976,0,0,1,.976-.976.976.976,0,0,1,.976.976v175.729A.975.975,0,0,1,7555.831-5685.374Z" transform="translate(-7554.855 5863.054)" fill="#31326f"/>
    </g>
    <circle id="Ellipse_4075" data-name="Ellipse 4075" cx="3.322" cy="3.322" r="3.322" transform="translate(7064.864 -5690.887)" fill="#81c140"/>
    <circle id="Ellipse_4076" data-name="Ellipse 4076" cx="3.322" cy="3.322" r="3.322" transform="translate(7291.617 -5690.887)" fill="#81c140"/>
    <circle id="Ellipse_4077" data-name="Ellipse 4077" cx="3.322" cy="3.322" r="3.322" transform="translate(7064.864 -5714.322)" fill="#31326f"/>
    <circle id="Ellipse_4078" data-name="Ellipse 4078" cx="3.322" cy="3.322" r="3.322" transform="translate(7291.617 -5714.322)" fill="#31326f"/>
    <circle id="Ellipse_4079" data-name="Ellipse 4079" cx="3.322" cy="3.322" r="3.322" transform="translate(7770.964 -5690.887)" fill="#81c140"/>
    <circle id="Ellipse_4080" data-name="Ellipse 4080" cx="3.322" cy="3.322" r="3.322" transform="translate(7537.217 -5690.887)" fill="#81c140"/>
    <circle id="Ellipse_4081" data-name="Ellipse 4081" cx="3.322" cy="3.322" r="3.322" transform="translate(7537.217 -5867.351)" fill="#31326f"/>
    <circle id="Ellipse_4082" data-name="Ellipse 4082" cx="3.322" cy="3.322" r="3.322" transform="translate(7537.217 -5847.071)" fill="#31326f"/>
    <circle id="Ellipse_4083" data-name="Ellipse 4083" cx="3.322" cy="3.322" r="3.322" transform="translate(7537.217 -5715.298)" fill="#31326f"/>
    <circle id="Ellipse_4084" data-name="Ellipse 4084" cx="3.322" cy="3.322" r="3.322" transform="translate(7997.717 -5690.887)" fill="#81c140"/>
    <circle id="Ellipse_4085" data-name="Ellipse 4085" cx="3.322" cy="3.322" r="3.322" transform="translate(7770.964 -5713.929)" fill="#31326f"/>
    <circle id="Ellipse_4086" data-name="Ellipse 4086" cx="3.322" cy="3.322" r="3.322" transform="translate(7997.717 -5713.929)" fill="#31326f"/>
    <circle id="Ellipse_4087" data-name="Ellipse 4087" cx="3.322" cy="3.322" r="3.322" transform="translate(7064.864 -5819.437)" fill="#9ddfd3"/>
    <circle id="Ellipse_4088" data-name="Ellipse 4088" cx="3.322" cy="3.322" r="3.322" transform="translate(7383.717 -5819.437)" fill="#9ddfd3"/>
    <circle id="Ellipse_4089" data-name="Ellipse 4089" cx="3.322" cy="3.322" r="3.322" transform="translate(7064.864 -5847.291)" fill="#31326f"/>
    <circle id="Ellipse_4090" data-name="Ellipse 4090" cx="3.322" cy="3.322" r="3.322" transform="translate(7383.717 -5847.291)" fill="#31326f"/>
    <circle id="Ellipse_4091" data-name="Ellipse 4091" cx="3.322" cy="3.322" r="3.322" transform="translate(7678.865 -5819.437)" fill="#9ddfd3"/>
    <circle id="Ellipse_4092" data-name="Ellipse 4092" cx="3.322" cy="3.322" r="3.322" transform="translate(7997.718 -5819.437)" fill="#9ddfd3"/>
    <circle id="Ellipse_4093" data-name="Ellipse 4093" cx="3.322" cy="3.322" r="3.322" transform="translate(7678.865 -5847.574)" fill="#31326f"/>
    <circle id="Ellipse_4094" data-name="Ellipse 4094" cx="3.322" cy="3.322" r="3.322" transform="translate(7997.718 -5847.574)" fill="#31326f"/>
  </g>
</svg>
